<svg width="320" height="1175" viewBox="0 0 320 1175" fill="none" xmlns="http://www.w3.org/2000/svg">
<rect x="0.0405731" width="319.838" height="1174.45" fill="#E32D6F"/>
<rect x="6.86378" width="306.192" height="1174.45" fill="#F1C5DA"/>
<path d="M6.86378 0V1174.45" stroke="#6004D7"/>
<path d="M20.7816 0V1174.45" stroke="#B894D4"/>
<path d="M34.6994 0V1174.45" stroke="#B894D4"/>
<path d="M48.6172 0V1174.45" stroke="#B894D4"/>
<path d="M62.535 0V1174.45" stroke="#B894D4"/>
<path d="M76.4529 0V1174.45" stroke="#B894D4"/>
<path d="M90.3707 0V1174.45" stroke="#B894D4"/>
<path d="M104.288 0V1174.45" stroke="#B894D4"/>
<path d="M118.206 0V1174.45" stroke="#B894D4"/>
<path d="M132.124 0V1174.45" stroke="#B894D4"/>
<path d="M146.042 0V1174.45" stroke="#B894D4"/>
<path d="M159.96 0V1174.45" stroke="#B894D4"/>
<path d="M173.878 0V1174.45" stroke="#B894D4"/>
<path d="M187.795 0V1174.45" stroke="#B894D4"/>
<path d="M201.713 0V1174.45" stroke="#B894D4"/>
<path d="M215.631 0V1174.45" stroke="#B894D4"/>
<path d="M229.549 0V1174.45" stroke="#B894D4"/>
<path d="M243.467 0V1174.45" stroke="#B894D4"/>
<path d="M257.384 0V1174.45" stroke="#B894D4"/>
<path d="M271.302 0V1174.45" stroke="#B894D4"/>
<path d="M285.22 0V1174.45" stroke="#B894D4"/>
<path d="M299.138 0V1174.45" stroke="#B894D4"/>
<path d="M313.056 0V1174.45" stroke="#6004D7"/>
<path d="M319.879 13.6464L0.04049 13.6464" stroke="#B894D5"/>
<path d="M319.879 333.485L0.0405052 333.485" stroke="#B894D5"/>
<path d="M319.879 653.323L0.0405052 653.323" stroke="#B894D5"/>
<path d="M319.879 27.5642L0.0405052 27.5642" stroke="#B894D5"/>
<path d="M319.879 347.403L0.0405052 347.403" stroke="#B894D5"/>
<path d="M319.879 667.241L0.0405052 667.241" stroke="#B894D5"/>
<path d="M319.879 41.482L0.0405052 41.482" stroke="#B894D5"/>
<path d="M319.879 361.32L0.0405052 361.32" stroke="#B894D5"/>
<path d="M319.879 681.159L0.0405052 681.159" stroke="#B894D5"/>
<path d="M319.879 55.3998L0.0405052 55.3998" stroke="#B894D5"/>
<path d="M319.879 375.238L0.0405052 375.238" stroke="#B894D5"/>
<path d="M319.879 695.077L0.0405052 695.077" stroke="#B894D5"/>
<path d="M319.879 69.3177L0.0405052 69.3177" stroke="#B894D5"/>
<path d="M319.879 389.156L0.0405052 389.156" stroke="#B894D5"/>
<path d="M319.879 708.995L0.0405052 708.995" stroke="#B894D5"/>
<path d="M319.879 83.2355L0.0405052 83.2355" stroke="#B894D5"/>
<path d="M319.879 403.074L0.0405052 403.074" stroke="#B894D5"/>
<path d="M319.879 722.912L0.0405052 722.912" stroke="#B894D5"/>
<path d="M319.879 97.1533L0.0405052 97.1533" stroke="#B894D5"/>
<path d="M319.879 416.992L0.0405052 416.992" stroke="#B894D5"/>
<path d="M319.879 736.83L0.0405052 736.83" stroke="#B894D5"/>
<path d="M319.879 111.071L0.0405052 111.071" stroke="#B894D5"/>
<path d="M319.879 430.91L0.0405052 430.91" stroke="#B894D5"/>
<path d="M319.879 750.748L0.0405052 750.748" stroke="#B894D5"/>
<path d="M319.879 124.989L0.0405052 124.989" stroke="#B894D5"/>
<path d="M319.879 444.827L0.0405052 444.827" stroke="#B894D5"/>
<path d="M319.879 764.666L0.0405052 764.666" stroke="#B894D5"/>
<path d="M319.879 138.907L0.0405052 138.907" stroke="#B894D5"/>
<path d="M319.879 458.745L0.0405052 458.745" stroke="#B894D5"/>
<path d="M319.879 778.584L0.0405052 778.584" stroke="#B894D5"/>
<path d="M319.879 152.825L0.0405052 152.825" stroke="#B894D5"/>
<path d="M319.879 472.663L0.0405052 472.663" stroke="#B894D5"/>
<path d="M319.879 792.502L0.0405052 792.502" stroke="#B894D5"/>
<path d="M319.879 166.742L0.0405052 166.742" stroke="#B894D5"/>
<path d="M319.879 486.581L0.0405052 486.581" stroke="#B894D5"/>
<path d="M319.879 806.419L0.0405052 806.419" stroke="#B894D5"/>
<path d="M319.879 973.162L0.0405052 973.162" stroke="#B894D5"/>
<path d="M319.879 1139.9L0.0405052 1139.9" stroke="#B894D5"/>
<path d="M319.879 180.66L0.0405052 180.66" stroke="#B894D5"/>
<path d="M319.879 500.499L0.0405052 500.499" stroke="#B894D5"/>
<path d="M319.879 820.337L0.0405052 820.337" stroke="#B894D5"/>
<path d="M319.879 987.08L0.0405052 987.08" stroke="#B894D5"/>
<path d="M319.879 1153.82L0.0405052 1153.82" stroke="#B894D5"/>
<path d="M319.879 194.578L0.0405052 194.578" stroke="#B894D5"/>
<path d="M319.879 514.417L0.0405052 514.416" stroke="#B894D5"/>
<path d="M319.879 834.255L0.0405052 834.255" stroke="#B894D5"/>
<path d="M319.879 1001L0.0405052 1001" stroke="#B894D5"/>
<path d="M319.879 1167.74L0.0405052 1167.74" stroke="#B894D5"/>
<path d="M319.879 208.496L0.0405052 208.496" stroke="#B894D5"/>
<path d="M319.879 528.334L0.0405052 528.334" stroke="#B894D5"/>
<path d="M319.879 848.173L0.0405052 848.173" stroke="#B894D5"/>
<path d="M319.879 1014.92L0.0405052 1014.92" stroke="#B894D5"/>
<path d="M319.879 222.414L0.0405052 222.414" stroke="#B894D5"/>
<path d="M319.879 542.252L0.0405052 542.252" stroke="#B894D5"/>
<path d="M319.879 862.091L0.0405052 862.091" stroke="#B894D5"/>
<path d="M319.879 1028.83L0.0405052 1028.83" stroke="#B894D5"/>
<path d="M319.879 236.332L0.0405052 236.332" stroke="#B894D5"/>
<path d="M319.879 556.17L0.0405052 556.17" stroke="#B894D5"/>
<path d="M319.879 876.008L0.0405052 876.008" stroke="#B894D5"/>
<path d="M319.879 1042.75L0.0405052 1042.75" stroke="#B894D5"/>
<path d="M319.879 250.249L0.0405052 250.249" stroke="#B894D5"/>
<path d="M319.879 570.088L0.0405052 570.088" stroke="#B894D5"/>
<path d="M319.879 889.926L0.0405052 889.926" stroke="#B894D5"/>
<path d="M319.879 1056.67L0.0405052 1056.67" stroke="#B894D5"/>
<path d="M319.879 264.167L0.0405052 264.167" stroke="#B894D5"/>
<path d="M319.879 584.006L0.0405052 584.006" stroke="#B894D5"/>
<path d="M319.879 903.844L0.0405052 903.844" stroke="#B894D5"/>
<path d="M319.879 1070.59L0.0405052 1070.59" stroke="#B894D5"/>
<path d="M319.879 278.085L0.0405052 278.085" stroke="#B894D5"/>
<path d="M319.879 597.923L0.0405052 597.923" stroke="#B894D5"/>
<path d="M319.879 917.762L0.0405052 917.762" stroke="#B894D5"/>
<path d="M319.879 1084.5L0.0405052 1084.5" stroke="#B894D5"/>
<path d="M319.879 292.003L0.0405052 292.003" stroke="#B894D5"/>
<path d="M319.879 611.841L0.0405052 611.841" stroke="#B894D5"/>
<path d="M319.879 931.68L0.0405052 931.68" stroke="#B894D5"/>
<path d="M319.879 1098.42L0.0405052 1098.42" stroke="#B894D5"/>
<path d="M319.879 305.921L0.0405052 305.921" stroke="#B894D5"/>
<path d="M319.879 625.759L0.0405052 625.759" stroke="#B894D5"/>
<path d="M319.879 945.598L0.0405052 945.598" stroke="#B894D5"/>
<path d="M319.879 1112.34L0.0405052 1112.34" stroke="#B894D5"/>
<path d="M319.879 319.838L0.0405052 319.838" stroke="#B894D5"/>
<path d="M319.879 639.677L0.0405052 639.677" stroke="#B894D5"/>
<path d="M319.879 959.515L0.0405052 959.515" stroke="#B894D5"/>
<path d="M319.879 1126.26L0.0405052 1126.26" stroke="#B894D5"/>
</svg>
