<?xml version="1.0" encoding="utf-8"?>
<!-- Generator: Adobe Illustrator 24.1.0, SVG Export Plug-In . SVG Version: 6.00 Build 0)  -->
<svg version="1.1" id="レイヤー_1" xmlns="http://www.w3.org/2000/svg" xmlns:xlink="http://www.w3.org/1999/xlink" x="0px"
	 y="0px" viewBox="0 0 215 114" style="enable-background:new 0 0 215 114;" xml:space="preserve">
<style type="text/css">
	.st0{fill:#FFFFFF;}
	.st1{fill:#FAFF00;}
</style>
<path class="st0" d="M38.4,43H4.8c-2.6,0-4.7,2.1-4.7,4.7v61.6c0,2.6,2.1,4.7,4.7,4.7h33.6c2.6,0,4.7-2.1,4.7-4.7V47.7
	C43.1,45.1,41,43,38.4,43z M3.1,109.3V47.7c0-0.9,0.8-1.7,1.7-1.7h33.6c0.9,0,1.7,0.8,1.7,1.7v5h-28c-0.7,0-1.4,0.3-1.9,0.8
	s-0.8,1.2-0.8,1.9v7.1c0,5.4-0.7,10-2,13.5c-0.3,0.8-0.1,1.6,0.6,2.3c0.4,0.3,0.9,0.4,1.3,0.3c0.5-0.1,0.8-0.4,1.1-0.9
	c1.6-3.9,2.4-8.7,2.4-14.5v-6.7c0-0.3,0.2-0.5,0.5-0.5h8c-0.1,0.4-0.2,0.7-0.3,1h-4.6c-0.7,0-1.4,0.3-1.9,0.8s-0.8,1.2-0.8,1.9V67
	c0,0.7,0.3,1.4,0.8,1.9s1.2,0.8,1.9,0.8h0.5l-0.1,0.1c-1.2,2-2.8,3.8-4.7,5.3c-0.5,0.4-0.6,0.9-0.6,1.2c0,0.3,0.1,0.8,0.5,1.2
	c0.4,0.4,0.8,0.6,1.2,0.6s0.8-0.1,1.1-0.4l0,0c2.2-1.7,4-3.8,5.3-6.1c0.2-0.4,0.3-0.9,0.2-1.3c-0.1-0.2-0.1-0.3-0.2-0.5h2.5V75
	c0,0.4,0,0.7,0,0.9c-0.1,0-0.3,0-0.5,0s-1.2,0-2.8-0.1c-0.5-0.1-0.9,0.1-1.3,0.4c-0.3,0.3-0.5,0.7-0.5,1.2s0.2,0.9,0.5,1.2
	c0.3,0.3,0.7,0.4,1.1,0.5c0.4,0,0.8,0.1,1.2,0.1v0.2h-9.1c-0.7,0-1.4,0.3-1.9,0.8S8,81.4,8,82.1v4.4c0,0.5,0.2,0.9,0.5,1.2
	c0.7,0.7,1.8,0.7,2.4,0c-1,2.1-2.3,4.1-3.8,5.8c-0.3,0.6-0.4,1.5,0,2.2c0.2,0.5,0.7,0.8,1.2,0.8c0.5,0.1,1-0.2,1.3-0.6
	s0.7-0.8,1-1.2V111H4.8C3.9,111,3.1,110.2,3.1,109.3z M17.2,61.6v-1.4h12.6v1.4H17.2z M29.8,64.7v1.7H17.2v-1.7H29.8z M31.7,82.5
	v0.7H17.1c-0.2,0-0.5,0.1-0.7,0.1c0-0.3-0.1-0.6-0.2-0.8l0,0C16.2,82.5,31.7,82.5,31.7,82.5z M13.1,82.9c-0.4,1.3-0.9,2.6-1.4,3.8
	c0-0.1,0-0.2,0-0.2v-3.9h1.6C13.1,82.6,13.1,82.7,13.1,82.9z M38.4,111H14V89.3c0.6-1.1,1.1-2.3,1.6-3.6c0.1,0.1,0.1,0.2,0.2,0.3
	c0.3,0.3,0.7,0.5,1.1,0.5h5.8c-0.2,0.6-0.3,1.2-0.5,1.8h-3.5c-0.7,0-1.4,0.3-1.9,0.8S16,90.3,16,91v12.4c0,0.5,0.2,0.9,0.5,1.2
	c0.6,0.7,1.8,0.7,2.4,0c0.2-0.2,0.4-0.5,0.5-0.8h11.2c0.1,0.3,0.2,0.6,0.5,0.9s0.7,0.5,1.2,0.5s0.9-0.2,1.2-0.5s0.5-0.7,0.5-1.2
	V90.9c0-0.7-0.3-1.4-0.8-1.9s-1.2-0.8-1.9-0.8h-5.7c0.2-0.6,0.3-1.2,0.5-1.8h5.4c0.1,0.2,0.2,0.5,0.4,0.7c0.7,0.6,1.8,0.6,2.4,0
	c0.3-0.3,0.5-0.7,0.5-1.2V82c0-0.7-0.3-1.4-0.8-1.9s-1.2-0.8-1.9-0.8H23V79c0.7-0.1,1.2-0.4,1.5-0.7c0.5-0.6,0.7-1.5,0.7-3.3v-5.3h1
	c-0.2,0.3-0.3,0.6-0.3,0.9c0,0.5,0.2,0.9,0.5,1.2c2,1.8,3.8,3.7,5.3,5.8c0.3,0.4,0.7,0.6,1.1,0.7c0.1,0,0.2,0,0.3,0
	c0.4,0,0.7-0.1,1-0.3c0.4-0.3,0.6-0.7,0.7-1.1c0-0.4-0.1-0.9-0.3-1.2c-1.6-2.1-3.5-4.1-5.4-5.9h1.1c0.7,0,1.4-0.3,1.9-0.8
	c0.5-0.5,0.8-1.2,0.8-1.9v-7.3c0-0.7-0.3-1.4-0.8-1.9s-1.2-0.8-1.9-0.8h-5.9c0.1-0.3,0.2-0.6,0.3-1h15.5v53.3
	C40.1,110.2,39.3,111,38.4,111z M19.6,94.2v-2.7h11.2v2.7H19.6z M30.8,97.4v3H19.6v-3H30.8z"/>
<path class="st0" d="M51.5,47l-1.7,1.3V60c0,9.7,0.1,12,0.9,13.7l0.9,2h7.5h7.5l1.1-2.5l1.1-2.5l-1.2-2.1l-1.2-2.1h-4.1h-4.1V57
	v-9.4l-2.5-0.9c-1.4-0.5-2.5-0.9-2.5-0.9C53.2,45.7,52.5,46.3,51.5,47z M55.3,48c0.4,0.8-1.6,1.8-2.6,1.4c-0.6-0.3-0.7-0.5-0.2-1.2
	C53.2,47.3,54.9,47.1,55.3,48z M57.2,58v8.4h-1.3h-1.3v-7.8c0-6.8,0.1-7.8,0.9-8.3c0.5-0.3,1.1-0.6,1.3-0.6
	C57,49.7,57.2,53.4,57.2,58z M53,59.2l0.3,8.6l5.6,0.2c3.1,0.1,5.6,0.4,5.6,0.6c0,1.4-1.6,1.8-7.4,1.8h-6.2V60.3
	c0-9.3,0.1-10.1,0.9-9.9C52.6,50.5,52.7,51.5,53,59.2z M66.9,70.1c0.5,2.2-0.9,3.8-1.6,1.7c-0.4-1.2,0.1-3.1,0.8-3.1
	C66.4,68.7,66.7,69.3,66.9,70.1z M64.3,72.6c0.4,0.6,0.7,1.2,0.7,1.4c0,0.2-2.8,0.4-6.2,0.4c-5.7,0-6.3-0.1-6.8-1.1
	c-0.3-0.6-0.5-1.3-0.5-1.4c0-0.2,2.7-0.3,6.1-0.3C62.7,71.6,63.7,71.7,64.3,72.6z"/>
<path class="st0" d="M82.3,46.2c-5.2,1.2-8.8,5.4-9.9,11.7c-1.3,6.8,1.2,12.8,6.3,15.7c2.3,1.3,3.5,1.5,7,1.5c3,0,4.8-0.3,6.3-1.1
	c5.6-2.9,8.5-10.7,6.6-18.4c-0.8-3.1-3.8-6.9-6.6-8.2C89.5,46.2,84.8,45.6,82.3,46.2z M92.8,49.4c3.1,2.3,4.9,5.6,5.1,9.7
	c0.3,3.9-0.6,8-2,9.4c-0.9,0.9-0.9,0.8-0.2-1.3c2.7-8.4-3.4-18.1-10.4-16.6c-5.7,1.2-8.7,8.1-6.1,14.5l1.1,2.8L78.7,66
	c-4.4-5.2-2.9-14.6,2.7-17.5C84.6,46.8,89.9,47.2,92.8,49.4z M75.4,54.2c-0.9,2.7-0.3,8.2,1.2,11.1c2.3,4.6,8.1,6.6,12,4.2
	c2.6-1.7,4.2-5.5,4-9.5c-0.1-1.8-0.6-4.1-1.2-5.2l-0.9-2l1.2,1.2c3,2.9,4.2,10.2,2.4,14c-3.9,8.2-15.7,7.6-19.7-1.2
	c-1.5-3.1-1.4-8.7,0-12.4C75.6,51.5,76.3,51.3,75.4,54.2z M88.1,53.3c1.1,0.8,2.2,2.4,2.8,4.1c0.9,2.4,0.9,3.1,0.4,5.5
	c-0.9,3.7-3.7,6.7-6,6.2c-3.4-0.7-6.2-4.7-6.2-8.7c0-2.5,1.6-6,3.4-7.2C84.6,51.7,86,51.7,88.1,53.3z"/>
<path class="st0" d="M104.5,47.1c-0.4,0.8-1.1,2.1-1.6,2.9c-0.4,0.7-0.8,1.7-0.8,2.1c0,0.4,2.7,5.8,5.9,12.1l5.9,11.5h2.4h2.4
	l6.6-12.4c3.7-6.9,6.6-12.7,6.6-13.1s-0.5-1.5-1-2.6c-1-1.7-1.2-1.9-3.8-1.9c-1.5,0-3,0.2-3.3,0.4s-1.9,2.9-3.6,6.1
	c-1.7,3.1-3.2,5.6-3.4,5.6s-1.7-2.7-3.4-6.1l-3-6.1h-2.6C105.7,45.6,105.2,45.9,104.5,47.1z M107.9,49.4c-0.9,1.6-1.4,2-2.6,2
	c-1.5,0-1.5,0-0.8-1.3c0.4-0.7,0.9-1.6,1.1-2s1.1-0.7,1.9-0.7h1.5L107.9,49.4z M127.4,49.2c-0.6,1-3.8,6.9-7,13l-6,11.2l-5.1-9.8
	c-2.8-5.4-5.1-10.1-5.1-10.4c0-0.3,0.6-0.6,1.3-0.6c1,0,1.8,1.1,4.6,6.4c1.8,3.5,3.6,6.5,3.8,6.6c0.3,0.1,2.8-3.9,5.5-9l4.9-9.2h2h2
	L127.4,49.2z M115.8,60.6c-1.7,3.4-1.7,3.4-4.9-2.8L108,52l1.1-2l1.1-2l3,5.9C115.4,58,116.1,60,115.8,60.6z M130.4,49
	c0.7,1.5-11.9,25.1-13.5,25.4c-0.6,0.1-1.1,0-1.1-0.2c0-0.5,13.6-26.2,13.9-26.2C129.8,48,130.1,48.4,130.4,49z"/>
<path class="st0" d="M135.2,57.5c0,11.8,0,11.9,1.4,14.7L138,75h8.8c8.7,0,8.8,0,9-1.3c0.1-0.7,0-2.1-0.2-3.2l-0.4-1.9l-9.3-0.1
	l-9.3-0.1l-0.1-10.5l-0.1-10.5h8h8v2v2l-6.3,0.2l-6.3,0.2l-0.2,6.2l-0.2,6.2l8-0.2l8-0.2l0.5-1.6c0.3-1.1,0.3-2.1-0.2-3.2
	c-0.7-1.6-0.8-1.6-6.3-1.9c-5.6-0.3-5.6-0.3-6.7-2c-0.6-1-1-1.9-1-2.2c0-0.2,3.1-0.4,6.8-0.4c4.6,0,6.9-0.2,7.2-0.7
	c0.7-1.2,0.2-4.8-0.7-5.5c-0.6-0.5-3.5-0.7-10.2-0.7h-9.3v11.9H135.2z M154.4,50.1l-0.2,1.6l-0.6-1.4c-0.6-1.6-0.3-3.3,0.5-2.4
	C154.4,48.2,154.6,49.1,154.4,50.1z M142.5,60.2c0,2.1-0.2,2.7-0.8,2.7s-0.8-0.8-0.8-3.9c0-3.5,0.1-3.8,0.8-2.7
	C142.1,57,142.5,58.7,142.5,60.2z M152.2,60.8l0.1,2.2h-4.1h-4.1v-2.3v-2.3l4,0.2l4,0.2L152.2,60.8z M154.4,61.6l-0.2,1.6l-0.6-1.6
	c-0.7-1.8-0.4-3.2,0.5-2.2C154.4,59.7,154.6,60.7,154.4,61.6z M152.2,71.9v2h-6.6H139l-1.1-2l-1.1-2h7.7h7.7L152.2,71.9L152.2,71.9z
	 M154.4,72.5l-0.2,1.6l-0.6-1.4c-0.6-1.6-0.3-3.3,0.5-2.4C154.4,70.7,154.6,71.6,154.4,72.5z"/>
<path class="st0" d="M55.8,90.1c0.6-0.2,1.5,0.3,2.1,1.2c1,1.3,1.1,1.3,2.6,0.3c0.9-0.6,1.8-1.9,2.4-3.4l0.9-2.5L62,84.5
	c-1.9-1.3-5.5-1.9-7.4-1.2c-3.8,1.4-6.1,4.7-6.1,8.8c0,3.8,0.7,5.3,3.8,7.7c2.1,1.7,3,2.8,3.2,3.7c0.1,0.4,0,0.7-0.2,1.2
	s-0.6,0.7-0.8,0.6c-0.3-0.2-1.5-0.4-2.7-0.5c-2.1-0.2-2.2-0.2-3,2c-0.3,1.1-0.7,2.5-0.7,3c0,0.6,0.3,1.1,0.9,1.5
	c1.2,0.9,3.5,1.4,5.8,1.4s4.6-0.5,5.8-1.6c1.5-1.4,2.5-4.2,2.5-7.4c0-4-1.1-6.3-4.5-8.8c-3-2.3-3.5-3.1-3.2-4.1
	C55.4,90.4,55.5,90.2,55.8,90.1z M49.7,108.6c-0.1-0.1,0.1-0.6,0.4-1.4c0.2-0.6,0.8-1,1.1-1h0.1c0.1,0,0.1,0.1,0.1,0.2
	c0,0.7-1.1,2.2-1.5,2.2C49.7,108.6,49.7,108.6,49.7,108.6z M50.8,110.4c-0.1-0.1-0.1-0.1-0.2-0.1C50.6,110.3,50.7,110.3,50.8,110.4
	c0.3-0.1,0.7,0.2,0.8,0.4c0.1,0.1,0.1,0.2,0.1,0.2C51.6,110.9,51.3,110.8,50.8,110.4z M58.4,84.9c0.7,0,1.6,0.4,2.2,0.8
	c0.5,0.4,0.6,0.6,0.6,0.7c-0.2,0.1-1,0-2.2-0.8c-0.4-0.2-0.8-0.5-1-0.7C58.1,84.9,58.3,84.9,58.4,84.9z M56.9,95.7
	c4.2,2.8,5.6,5.6,4.8,9.7c-0.4,2-1.3,3.6-2.5,4.5c-1.6,1.1-3.7,1.1-6-0.1c-1.1-0.6-1.2-0.8-0.8-2.2c0.1-0.4,0.3-0.6,0.9-0.6
	c0.3,0,0.8,0.1,1.4,0.2c1.8,0.3,3,0,3.7-0.8c0.5-0.7,0.8-1.7,0.8-3.2c0-3-1.4-5.5-4.2-7.4c-1.3-0.9-2-1.7-2.2-2.5
	c-0.1-0.5,0-1.1,0.4-1.8c0.4-0.8,0.9-1.2,1.1-1.3c0,0.1,0,0.2-0.1,0.3c-0.3,0.6-0.3,1.2-0.2,1.8C54.1,93.3,55.2,94.5,56.9,95.7z
	 M54,88.2c-1.3,0.6-2.2,2-2.5,3.6c-0.4,2.4,0.2,3.6,3.1,6.1c2,1.6,3.1,3.1,3.3,4.5c0.1,0.6,0,1.2-0.2,1.7c-0.3,0.6-0.7,1-0.9,1.1
	c-0.1,0-0.1,0-0.1,0s0-0.1,0-0.3c0.6-2-0.8-4.5-3.4-6.4c-2.9-2.1-3.7-3.5-3.7-5.9c0-2.2,0.8-4.1,2.2-5.3c0.9-0.7,1.9-1.1,3-1.1
	s2.2,0.4,3.2,1.1s1.4,1.3,1.3,1.7c-0.1,0.4-0.2,0.6-0.4,0.6c-0.3,0.1-0.7-0.1-1.3-0.7C56.7,87.7,55.3,87.5,54,88.2z"/>
<path class="st0" d="M80.9,83l-1.8,0.5v10.1l-7.3-10.9h-2.5c-0.1,0-2.5,0-2.8,0.4s-0.3,11.5-0.3,12.7c0,11.7,0,12.3,1,14.6
	c1,2.3,1.1,2.4,3.4,2.4H73l0.2-10.9l7,11.2l5.6-0.4l0.1-12.1c0.1-11.8,0.1-12-1-14.6C83.8,82.9,83.2,82.5,80.9,83z M81.3,84.9
	c0.1-0.1,0.4-0.1,0.6-0.1c0.5,0,1.2,0.5,1.5,1.2c0.2,0.3,0.7,1.3,0.6,1.6c-0.1,0.1-0.3,0.2-0.8,0.2c-0.7,0-1.1-0.5-1.6-1.6
	C81.5,85.7,81.3,85.1,81.3,84.9z M80.9,88.1c0.1,0.5,0.3,2.2,0.3,4.4c0,2.5-0.1,3.4-0.2,3.7c-0.1-0.5-0.3-2.2-0.3-4.4
	C80.7,89.2,80.8,88.4,80.9,88.1z M71.2,111.4c-0.1,0.1-0.5,0.1-0.9,0.1c-0.8,0-1.2-0.4-1.7-1.6c-0.4-0.9-0.5-1.4-0.4-1.7
	c0.1-0.2,0.4-0.3,1-0.3s1.1,0.5,1.5,1.6C71,110.3,71.3,111.2,71.2,111.4z M71.5,108.1c-0.4-1.3-0.4-7.7-0.2-8.9
	c0.1,0.6,0.3,2.4,0.3,5C71.7,106.7,71.6,107.7,71.5,108.1z M82.4,111.5c-1.2,0-1.8-0.7-6.3-8c-0.8-1.4-5.1-8.1-5.5-8.1
	s-0.5,3.1-0.5,5.7v5.2h-2.6V96c0-6.2,0-9.3,0.2-9.6c0.1,0,0.2,0.3,0.3,0.4c0.4,0.6,4.1,6.3,8.3,12.6c4.1,6.3,7.1,11,7.4,11.8
	C83.5,111.4,83.1,111.5,82.4,111.5z M84.9,99.9c0,4.8-0.1,8.5-0.1,9.6C83,107,69.9,87,68.7,85c0.2-0.1,0.6-0.2,1.2-0.2
	c1.2,0,1.9,0.8,6.5,7.4c0.2,0.3,5.2,7.6,5.8,7.6c0.3,0,0.6-0.4,0.6-5.1V90H85L84.9,99.9L84.9,99.9z"/>
<path class="st0" d="M92.4,88.4v13.2l12.5-0.4l0.4-1.8c0.3-1.3,0.2-2.1-0.2-3.4c-0.6-1.6-0.8-1.7-5.2-1.8L95.6,94l-1.5-4h5.3
	c5.2,0,5.7,0,6-1.4s-0.1-4-0.7-5.2c-0.3-0.6-1.6-0.8-7.9-0.8c-0.8,0-7.4,0-7.7,0.4c-0.3,0.4-0.3,10.8-0.3,12c0,11.5,0,11.5,1.2,14.4
	l1.2,3h13.9l0.3-1.6c0.1-0.8,0.1-2.2-0.1-3.2l-0.4-1.8l-14.8-0.6l-0.2-20.6h12.4v3.6h-9.9V88.4z M103.7,96.1
	c0.1,0.1,0.3,0.9,0.3,2.2c0,1.1-0.1,1.4-0.2,1.5c-0.1-0.1-0.3-0.9-0.3-2.2C103.5,96.5,103.6,96.1,103.7,96.1z M96.1,95.8l6.1,0.3
	l0.2,3.9h-6.3C96.1,100,96.1,95.8,96.1,95.8z M94.3,94.6c0.6,1.7,0.6,3.7,0.3,4.6c-0.1,0.4-0.3,0.6-0.5,0.6c-0.2,0.1-0.3,0-0.3,0
	c-0.2-0.2-0.2-1.3-0.2-3.3c0-1.6,0.1-2.8,0.1-3.4C93.8,93.4,94.1,93.9,94.3,94.6z M103.8,107.3c0.1,0.1,0.3,0.7,0.3,1.8
	c0,1-0.1,1.5-0.2,1.5c-0.1-0.1-0.3-0.9-0.3-1.9C103.5,108,103.7,107.4,103.8,107.3z M96.5,107.3h5.8v3.6H92l-0.7-1.6
	c-0.3-0.8-0.6-1.5-0.7-1.8C91.2,107.5,93.3,107.3,96.5,107.3z M103.8,84.8c0.1,0.1,0.3,0.7,0.3,1.8c0,1-0.1,1.5-0.2,1.5
	c-0.1-0.1-0.3-0.9-0.3-1.9C103.5,85.5,103.7,84.9,103.8,84.8z"/>
<path class="st0" d="M122.6,83.8c-0.5-0.8-1.3-1.1-2.9-1.1c-1.9,0-2.3,0.2-2.9,1.7c-0.4,0.9-2.6,6.4-5.1,12.4l-4.5,10.9l1.1,2.7
	c1.1,2.6,1.2,2.7,3.5,2.7c2.1,0,2.4-0.2,3.1-1.8l0.7-1.6h7.9l0.7,1.6c0.7,1.7,1,1.8,3.4,1.8h2.7l2.3-5.5l-4.7-11.5
	C125.4,89.9,123,84.3,122.6,83.8z M109.3,106.7c0.2-0.7,2-5.1,4.4-11.1c4.3-10.4,4.4-10.7,5.7-10.7c0.6,0,1,0.1,1.1,0.1
	c-0.3,0.7-1.4,3.5-2.8,7c0,0.1-2.9,7.1-2.9,7.6c0,0.6,2,0.8,3.1,0.9c2.5,0.1,3,0.3,3.4,1.4l0.4,0.9h-8.5l-1,2.1
	c-0.7,1.5-1.1,1.9-2,1.9C109.8,106.9,109.4,106.8,109.3,106.7z M119.7,98.5c0-0.2,0-0.3,0-0.3s0.2,0.2,0.3,0.5c0.1,0.1,0,0.2,0,0.2
	s0,0-0.1,0C119.8,98.8,119.7,98.7,119.7,98.5z M111.6,111.5c-0.7-0.1-1.3-0.6-1.6-1.2c-0.2-0.4-0.7-1.3-0.5-1.6
	c0.1-0.2,0.8-0.2,1-0.2c0.7,0,1.3,0.4,1.7,1.3c0.3,0.7,0.4,1.3,0.4,1.4C112.3,111.5,112,111.6,111.6,111.5z M114,109.8
	c-0.1,0.3-0.2,0.3-0.2,0.3s-0.1-0.1-0.4-1c-0.3-0.8-0.4-1.9-0.2-2.4c0.1-0.2,0.1-0.5,0.2-0.6c0.1,0.1,0.3,0.4,0.4,0.7
	c0.3,0.6,0.6,1.3,0.6,1.6C114.4,108.8,114.2,109.4,114,109.8z M127.5,111.5c-1.4,0-1.7-0.2-2.4-1.9l-0.9-2.1h-4.4
	c-4.2,0-4.2,0-4.6-1.3l-0.4-1.1h4c0.2,0,4.4,0,4.7-0.4c0.3-0.5-0.9-3.7-1.3-4.7c-1.3-3.2-1.5-4.1-1.1-4.9c0.2-0.5,0.4-0.8,0.5-0.9
	c0.3,0.5,1.7,3.7,3.6,8.3c2,4.8,3.4,8.3,3.6,8.8C128.7,111.4,128.2,111.5,127.5,111.5z M130.6,108.6c-0.2,0.7-0.5,1.1-0.6,1.2
	c-0.3-0.5-1.9-4.1-4-8.9c-0.4-0.9-3.8-9.2-4.5-9.2c-0.5,0-1.6,2.2-2.2,3.7c-1.1,2.7-1.6,3.5-2.3,3.5h-0.7l0.7-1.5
	c0.5-1,1.7-4.1,2.8-6.6c1-2.5,1.8-4.1,2.1-4.6c0.4,0.8,2.3,4.9,4.6,10.6C130.4,105.9,130.9,107.5,130.6,108.6z"/>
<path class="st0" d="M145.5,98c0-0.3,0.9-2.3,2.5-5c1.4-2.2,2.9-4.8,3-5.2c0.2-0.5-0.3-1.9-0.7-2.9c-0.9-2-1.2-2.2-3.1-2.2
	c-2,0-2.2,0.1-4.1,3.1l-1.7,2.6L141,83l-2.3-0.2c-2.2-0.2-2.3-0.1-3.4,2.5c-1.1,2.6-1.1,2.6-1.1,15.1v12.7h2.2c2.3,0,3-0.9,4.1-5.1
	l0.4-1.6l1.8,2.9c2,3.2,2.1,3.3,4.3,3.3s2.4-0.1,3.2-2.3l0.9-2.4l-2.8-4.7C146.8,100.5,145.6,98.3,145.5,98z M146.7,84.4
	c0.1-0.1,0.3-0.1,0.5-0.1c0.5,0,1.2,0.2,1.5,0.6c0.5,0.6,0.4,0.9,0.4,1s-0.1,0.3-0.7,0.3c-0.8,0-1.8-0.8-1.8-1.6
	C146.6,84.5,146.7,84.4,146.7,84.4z M139.9,86.9c0,0.3,0.1,0.9,0.1,1.4c0.1,1.4-0.1,2.4-0.5,3c-0.1,0.1-0.2,0.3-0.3,0.4
	c0-0.2,0-0.9,0-1.2c0-1,0.2-2.4,0.5-3C139.7,87.3,139.8,87.1,139.9,86.9z M136.9,85.4c0.4-0.7,1.3-1.2,1.9-1.2c0.1,0,0.2,0,0.3,0.1
	c0.2,0.1,0.2,0.2,0.2,0.2c0,1.1-1.3,2.8-2.2,2.8c-0.5,0-0.7-0.1-0.8-0.2C136.2,86.8,136.7,85.8,136.9,85.4z M137.6,100.7v10.8
	l-2-0.3l-0.2-21.8h2.6v2.7c0,1.2,0.1,3.1,0.5,3.1s3-4.1,3.5-5c1.8-2.8,3-4.6,3.2-4.8c0.1,0.1,0.3,0.4,0.5,0.9
	c0.3,0.8-0.4,2.1-3.9,7.6L137.6,100.7z M139.3,106.9c0,0.1,0,0.2-0.1,0.4c0-0.4,0-0.8,0-1.3c0-1.3,0-1.9,0.1-2.1l0,0
	C139.5,104.4,139.5,105.5,139.3,106.9z M145.8,109.1c-0.1,0.3-0.2,0.4-0.4,0.5c-0.6-0.2-5.7-7.8-5.8-8.7c0.1-0.3,1.7-3,3.9-6.5
	c2.9-4.6,4.2-6.1,4.9-6.1c0.3,0,0.3,0,0.3,0.1c0.1,0.4-1.3,2.6-2.6,4.8c-0.4,0.6-0.7,1.1-1,1.6c-3.6,5.7-3.6,5.8-1.7,8.8
	c0.2,0.2,0.3,0.5,0.5,0.8C145.6,107.2,145.9,108.5,145.8,109.1z M149.2,109.3c0,0.8-0.9,1.6-1.8,1.6c-0.6,0-0.7-0.2-0.7-0.3
	s0-0.3,0.4-1c0.3-0.4,1-0.6,1.5-0.6c0.2,0,0.4,0,0.5,0.1S149.2,109.3,149.2,109.3z M148.2,107.5c-0.9,0-3.5-4.2-4.3-6.5
	c-0.3-0.8-0.2-1-0.2-1c0.2-0.4,0.5-0.6,0.6-0.6c0.2,0.2,1.1,1.5,2.2,3.7c1,1.9,2.2,4,2.1,4.4C148.6,107.4,148.6,107.5,148.2,107.5z"
	/>
<path class="st0" d="M157.5,88.4v13.1h6.3c6.7,0,6.8,0,6.8-3.7c0-3.3-1.1-3.7-5.7-3.7h-4.1l-0.7-1.7c-0.4-0.9-0.6-1.8-0.7-2.1
	c0.4-0.2,2.1-0.4,5.2-0.4c4.6,0,5.5-0.2,5.8-1.1c0.5-1.6,0.3-3.5-0.4-4.9c-0.7-1.3-0.9-1.4-8.2-1.4c-0.8,0-7.5,0-7.8,0.4
	s-0.3,10.9-0.3,12.1c0,11.7,0,11.7,1.2,14.3l1.2,2.7h14.3l0.1-2.1c0.1-1.1-0.1-2.4-0.3-3.2c-0.5-1.2-0.9-1.3-7.9-1.4l-7.2-0.1
	l-0.2-20.6h12.5v3.6h-9.9L157.5,88.4L157.5,88.4z M168.7,96.5c0,0,0-0.1,0.1-0.1s0.3,0.4,0.5,1.3c0.2,1.2,0.1,2-0.1,2.1
	c0,0-0.1-0.1-0.3-0.3C168.6,98.6,168.5,97,168.7,96.5z M161.1,98.3c0-1.1,0.1-2,0.2-2.1c0.2-0.1,1.5-0.3,3.2-0.3h2.9v4.2h-6.3
	L161.1,98.3L161.1,98.3z M160,97.7c0,2.1-0.1,2.2-0.7,2.2c-0.5,0-0.7,0-0.7-3.7V93l0.5,0.9C159.7,94.9,160,96.2,160,97.7z
	 M168.7,107.5c0-0.1,0.1-0.1,0.1-0.1c0.1,0,0.4,0.4,0.5,1.2c0.2,1.1,0,2-0.1,2.1c-0.1,0-0.2-0.1-0.2-0.3
	C168.6,109.6,168.5,108,168.7,107.5z M161.6,107.3h5.9v3.6h-10.4l-0.5-1.5c-0.2-0.7-0.5-1.4-0.7-1.8
	C156.4,107.5,158.6,107.3,161.6,107.3z M168.7,85c0-0.1,0.1-0.1,0.1-0.1c0.1,0,0.4,0.4,0.5,1.2c0.2,1.1,0,2-0.1,2.1
	c-0.1,0-0.1-0.1-0.2-0.3C168.6,87.1,168.5,85.5,168.7,85z"/>
<path class="st0" d="M187.8,104.1l-1.4-2.7l1.1-2.3c1.6-3.3,1.7-8.9,0.3-11.6c-2-3.7-3.2-4.3-9.1-4.3h-5.5v12.1
	c0,11.6,0,12,1.1,14.8l1.1,3h4.8v-4c0-1.8,0.1-3,0.2-3.4c0.3,0.4,1.1,1.6,2.1,3.6l2,3.8h4.8v-3.2
	C189.3,107.4,189.1,106.5,187.8,104.1z M178.6,111.4c-0.1,0.1-0.7,0.1-1,0.1c-0.8,0-1.3-0.4-1.7-1.3c-0.2-0.5-0.6-1.4-0.6-1.5
	c0.1-0.1,0.7-0.1,1-0.1c0.8,0,1.3,0.4,1.7,1.3C178.2,110.3,178.6,111.2,178.6,111.4z M179,108.3c-0.1-0.1-0.2-0.3-0.2-0.4
	c-0.6-1.1-0.8-4.7-0.4-5.4c0-0.1,0.1-0.1,0.1-0.1l0,0c0.1,0.1,0.4,1,0.5,3.4C179,106.7,179,107.9,179,108.3z M186.5,111.5
	c-0.4,0-2-1-6.9-10.7c-0.9-1.7-1.4-2.4-1.8-2.4h-0.1c-0.5,0.2-0.6,1.3-0.6,4.2v3.8h-2.6V96c0-6,0.1-10.5,0.2-10.8
	c0.4-0.6,8.1-0.4,9.4,0.5c3,2.1,4.3,6.6,3,10.5c-0.7,2.2-2.7,5-3.3,5c-0.2,0-0.3-0.1-0.4-0.3c-0.2-0.5,0.1-1.7,0.9-2.7
	c1.7-2.2,2.1-5.4,1-8s-2.4-3.4-5.6-3.4H177v9.1h2.6c2.3,0,3.6-0.4,3.6-2.8c0-1.7-0.9-2.8-2.2-2.8c-0.9,0-1.9-0.8-1.9-1.6
	c0.2-0.4,2.5-0.3,3.7,0.4c1.2,0.8,2,2.4,1.9,4.2c0,2-1,3.8-2.5,4.5c-0.4,0.2-0.7,0.4-0.8,0.9c-0.2,0.9,0.6,2.4,3.1,7.1
	c1.6,2.9,2.7,5.2,2.9,5.6C187.2,111.4,186.9,111.5,186.5,111.5z M178.5,90.6c0.3,0.3,0.6,1.3,0.6,2.2c0,0.7-0.1,1.4-0.5,1.4
	c-0.2,0-0.5-0.2-0.5-2.1c0-0.4,0-1.6,0.1-1.7C178.2,90.3,178.3,90.3,178.5,90.6z M180.2,93c0-0.4,0.1-1,0.3-1.1
	c0.1,0,0.1-0.1,0.2-0.1c0.2,0,0.5,0.2,0.9,0.5c0.3,0.2,0.4,0.6,0.3,1c-0.1,0.5-0.4,0.9-1,0.9C180.4,94.2,180.2,94,180.2,93z
	 M186.5,106.2c-1-1.9-1.5-3.3-1.5-3.5c0.1-0.1,0.1-0.3,0.2-0.3c0.2,0,0.7,1.1,1.6,2.9c1,2.1,1.3,3.1,1.3,3.4
	C187.9,108.5,187.4,107.9,186.5,106.2z"/>
<path class="st0" d="M201.8,15.3c-3.7-1.7-8.1,4.5-11.9,10.9l-0.1,0.1c-0.4,0.6-2.7,2.4-7,5.3c0,0-0.1,0-0.1,0.1
	c-0.1,0.1-0.2,0.1-0.3,0.2c-3.6,2.4-8.5,5.6-14.9,9.6c-0.7,0.5-1.2,1.2-1.2,2.1c-0.1,0.9,0.3,1.7,1,2.3l0,0c1.2,1,3.1,2.9,3.2,5.1
	c0.1,1.3-0.6,2.7-2,4c-3.3,3.2-6.4,5.3-8.5,6.4c-0.9,0.5-1.6,1.3-1.8,2.3c-0.3,1-0.1,2,0.4,2.9c0.9,1.5,2.5,3.5,5.7,4.8
	c0.6,0.2,1.2,0.5,1.8,0.8c0.1,0,0.2,0.1,0.3,0.1c1.1,0.5,2.2,1,3.3,1.6c1.3,0.7,2.6,1.5,3.9,2.4c0,0.1,0.1,0.1,0.1,0.2
	c0.2,0.1,0.3,0.2,0.5,0.3c0.6,0.5,1.2,0.9,1.8,1.5c1.4,1.2,2.9,1.8,4.3,1.8c0.1,0,0.3,0,0.4,0c2-0.2,3.1-1.4,3.2-1.6l0.2-0.2
	c19-33,24-50,23.9-54.4C208,18.6,205.2,16.9,201.8,15.3z M174.6,73.3c-1.2-0.8-2.4-1.5-3.6-2.1c-0.6-0.3-1.2-0.6-1.8-0.9
	c3.9-4.1,8.1-4.1,10.4-3.7C178.2,68.7,176.5,71,174.6,73.3z M181.7,76.5c-0.4,0.4-1.6,1.1-3.7-0.6c-0.4-0.3-0.7-0.6-1.1-0.9
	c7.5-8.8,11.2-17.9,11.4-18.3c0.3-0.8-0.1-1.6-0.8-1.9c-0.8-0.3-1.6,0.1-1.9,0.8c0,0.1-1.5,3.6-4.3,8.3c-2.7-0.7-9.3-1.5-15,5.1
	c-0.3-0.1-0.6-0.3-0.9-0.4c-1.9-0.8-3.3-2-4.2-3.5c-0.1-0.2-0.1-0.5-0.1-0.6c0.1-0.2,0.2-0.4,0.4-0.5c2.2-1.2,5.6-3.5,9.1-6.9
	c2-2,2.9-4.1,2.8-6.3c-0.1-3-2.2-5.5-4-7c2.7-1.7,5.1-3.2,7.3-4.6c0.5,1.1,1.1,2.5,1.3,3.6c0.1,0.7,0.7,1.3,1.5,1.3
	c0.1,0,0.1,0,0.2,0c0.8-0.1,1.4-0.9,1.3-1.7c-0.2-1.7-1.1-3.6-1.7-4.8c1.3-0.9,2.5-1.7,3.7-2.4c0.5,1,1,2.4,1.2,3.5
	c0.1,0.7,0.7,1.3,1.5,1.3c0.1,0,0.1,0,0.2,0c0.8-0.1,1.4-0.9,1.3-1.7c-0.2-1.7-1.1-3.5-1.7-4.7c4-2.8,6.3-4.7,6.9-5.6l0.1-0.1
	c4.5-7.5,6.8-9.2,7.7-9.6c0.2,1.9-0.5,8.9-10.6,29.9c-0.4,0.7-0.1,1.6,0.7,2c0.2,0.1,0.4,0.1,0.6,0.1c0.5,0,1.1-0.3,1.3-0.8
	c8.4-17.3,10.7-25.8,10.9-30c1.4,1,2.1,2.2,2.1,4.6C205.2,27.1,201.1,43,181.7,76.5z"/>
<path class="st1" d="M201.4,16.2c-3-1.4-7.3,4.9-10.7,10.5l-0.1,0.1c-0.5,0.8-3.1,2.8-7.4,5.7h-0.1l-0.1,0.1c-3.8,2.6-9,5.9-15,9.6
	c-0.5,0.3-0.7,0.8-0.8,1.3c0,0.5,0.2,1.1,0.6,1.4l0,0c1.3,1.1,3.5,3.3,3.6,5.9c0.1,1.6-0.7,3.2-2.2,4.8c-3.4,3.3-6.6,5.4-8.7,6.6
	c-0.7,0.4-1.2,1-1.4,1.7s-0.1,1.5,0.3,2.1c0.8,1.3,2.3,3.2,5.2,4.4c0.6,0.2,1.2,0.5,1.8,0.8l0,0h0.1c1.1,0.5,2.3,1.1,3.6,1.7
	c1.4,0.7,2.8,1.6,4.2,2.6c0,0.1,0.1,0.1,0.1,0.2c0.1,0.1,0.2,0.1,0.3,0.1c0.7,0.5,1.4,1,2.1,1.6c1.2,1.1,2.5,1.6,3.7,1.6
	c0.1,0,0.2,0,0.3,0c1.6-0.1,2.5-1.2,2.6-1.3c18.9-32.8,23.8-49.6,23.8-53.9C207.1,19.3,204.7,17.7,201.4,16.2z M170.6,72.1
	c-1.1-0.5-2.1-1-3-1.4c5.4-6.6,11.8-5.3,13.7-4.7c-1.7,2.7-3.9,5.7-6.5,8.7C173.4,73.6,172,72.8,170.6,72.1z M182.6,77.2
	c-0.1,0.1-2,2.2-5.2-0.5c-0.6-0.5-1.2-1-1.9-1.5c2.8-3.1,5-6.4,6.8-9.2c0,0,0,0,0-0.1l0,0c3.3-5.3,5-9.4,5-9.5
	c0.1-0.3,0-0.5-0.3-0.6s-0.5,0-0.6,0.3c0,0.1-1.6,4-4.8,9.1c-1.8-0.6-9.2-2.4-15.2,5.1c-0.5-0.2-1.1-0.5-1.6-0.7
	c-2.6-1.1-4.1-2.7-4.8-4c-0.2-0.4-0.3-0.9-0.2-1.4s0.4-0.8,0.9-1.1c2.2-1.2,5.5-3.4,8.9-6.8c1.8-1.7,2.8-3.6,2.7-5.5
	c-0.1-2.8-2.4-5.2-4.2-6.6c-0.2-0.2-0.3-0.4-0.3-0.6c0-0.2,0.1-0.4,0.3-0.5c2.5-1.5,5.9-3.6,9-5.6c0.5,0.8,1.6,3.1,1.9,4.9
	c0,0.2,0.2,0.4,0.5,0.4c0,0,0,0,0.1,0c0.3,0,0.5-0.3,0.4-0.6c-0.3-2.1-1.6-4.5-2.1-5.3c1.8-1.2,3.7-2.4,5.3-3.5
	c0.5,0.9,1.6,3.1,1.8,4.9c0,0.2,0.2,0.4,0.5,0.4c0,0,0,0,0.1,0c0.3,0,0.5-0.3,0.4-0.6c-0.3-2-1.5-4.2-2-5.2c3.8-2.6,6.6-4.5,7.2-5.5
	l0.1-0.1c5.5-9,8.1-10.7,9.8-10.1c0.3,0.7,1.7,6.1-10.5,31.4c-0.1,0.2,0,0.5,0.2,0.7c0.1,0,0.1,0,0.2,0c0.2,0,0.4-0.1,0.4-0.3
	c10.2-21.1,11.1-28.7,10.8-31.3c2.5,1.3,3.7,2.6,3.9,5.7C206.1,27.2,202.1,43.4,182.6,77.2z"/>
<g>
	<path class="st1" d="M33.7,76.3c-1.7-2.2-3.5-4.2-5.5-6c-0.4-0.3-0.7-0.3-1,0c-0.1,0.1-0.2,0.3-0.2,0.4c0,0.2,0.1,0.3,0.2,0.4
		c2,1.8,3.8,3.8,5.5,5.9c0.1,0.2,0.3,0.2,0.5,0.3c0.2,0,0.4,0,0.5-0.1c0.2-0.1,0.2-0.3,0.3-0.5C33.8,76.7,33.8,76.5,33.7,76.3z"/>
	<path class="st1" d="M13.9,76.8c2.1-1.7,3.8-3.6,5.1-5.9c0.1-0.2,0.1-0.3,0.1-0.5c-0.1-0.2-0.2-0.3-0.3-0.4
		c-0.4-0.2-0.7-0.1-0.9,0.3c-1.3,2.1-2.9,4-4.9,5.6c-0.4,0.3-0.4,0.6-0.1,0.9C13.1,77.1,13.5,77.1,13.9,76.8z"/>
	<path class="st1" d="M38.4,44H4.8c-2,0-3.7,1.7-3.7,3.7v61.6c0,2,1.7,3.7,3.7,3.7h33.6c2,0,3.7-1.7,3.7-3.7V47.7
		C42.1,45.7,40.4,44,38.4,44z M41.1,53.8h-29c-0.4,0-0.8,0.2-1.2,0.5c-0.3,0.3-0.5,0.7-0.5,1.2v7.1c0,5.6-0.7,10.2-2,13.8
		c-0.2,0.4-0.1,0.8,0.3,1.2c0.1,0.1,0.3,0.2,0.5,0.1c0.2,0,0.3-0.1,0.4-0.3c1.5-3.8,2.3-8.5,2.3-14.1v-7.9c0-0.2,0.1-0.2,0.3-0.2
		h10.2c0.2,0,0.2,0.1,0.2,0.2c-0.2,1-0.5,1.8-0.7,2.5c-0.1,0.2-0.2,0.2-0.4,0.2h-5c-0.4,0-0.8,0.2-1.2,0.5c-0.3,0.3-0.5,0.7-0.5,1.2
		V67c0,0.4,0.2,0.8,0.5,1.2c0.3,0.3,0.7,0.5,1.2,0.5H23c0.2,0,0.3,0.1,0.3,0.3v6c0,0.9-0.1,1.5-0.2,1.6c-0.1,0.2-0.6,0.2-1.3,0.2
		c-0.2,0-1.2,0-3-0.1c-0.2,0-0.3,0-0.5,0.2s-0.2,0.3-0.2,0.4c0,0.2,0.1,0.3,0.2,0.5s0.3,0.2,0.5,0.2c0.8,0.1,1.5,0.1,2.2,0.1V80
		c0,0.2-0.1,0.2-0.3,0.2h-9.8c-0.4,0-0.8,0.2-1.2,0.5c-0.3,0.3-0.5,0.7-0.5,1.2v4.4c0,0.2,0.1,0.4,0.2,0.5C9.5,86.9,9.7,87,9.9,87
		s0.4-0.1,0.5-0.2s0.2-0.3,0.2-0.5v-4.6c0-0.2,0.1-0.3,0.2-0.3h21.6c0.2,0,0.2,0.1,0.2,0.3v2.2c0,0.2-0.1,0.3-0.2,0.3H17.1
		c-0.2,0-0.3,0.1-0.4,0.2s-0.2,0.3-0.2,0.4s0.1,0.3,0.2,0.4s0.3,0.2,0.4,0.2h6.8c0.2,0,0.2,0.1,0.2,0.3c-0.3,1.2-0.6,2.3-1,3.3
		c-0.1,0.1-0.2,0.2-0.3,0.2h-3.9c-0.4,0-0.8,0.2-1.2,0.5s-0.5,0.7-0.5,1.2v12.4c0,0.2,0.1,0.4,0.2,0.5s0.3,0.2,0.5,0.2
		s0.4-0.1,0.5-0.2s0.2-0.3,0.2-0.5v-0.5c0-0.1,0.1-0.2,0.2-0.2h12.8c0.1,0,0.2,0.1,0.2,0.2v0.5c0,0.2,0.1,0.4,0.2,0.5
		c0.1,0.1,0.3,0.2,0.5,0.2s0.4-0.1,0.5-0.2s0.2-0.3,0.2-0.5V90.9c0-0.4-0.2-0.8-0.5-1.2c-0.3-0.3-0.7-0.5-1.2-0.5h-6.8
		c-0.2,0-0.2-0.1-0.2-0.2c0.4-1.1,0.7-2.2,0.9-3.4c0-0.2,0.1-0.2,0.3-0.2h6.6c0.2,0,0.2,0.1,0.2,0.3v0.2c0,0.2,0.1,0.4,0.2,0.5
		c0.1,0.1,0.3,0.2,0.5,0.2s0.4-0.1,0.5-0.2s0.2-0.3,0.2-0.5V82c0-0.4-0.2-0.8-0.5-1.2s-0.7-0.5-1.2-0.5h-9.8c-0.2,0-0.3-0.1-0.3-0.2
		v-1.9c0.9,0,1.5-0.2,1.8-0.5s0.5-1.2,0.5-2.6V69c0-0.2,0.1-0.3,0.2-0.3h5.6c0.4,0,0.8-0.2,1.2-0.5s0.5-0.7,0.5-1.2v-7.3
		c0-0.4-0.2-0.8-0.5-1.2c-0.3-0.3-0.7-0.5-1.2-0.5h-7C23,58,23,57.9,23,57.8c0.3-0.8,0.5-1.6,0.7-2.5c0-0.2,0.1-0.3,0.3-0.3h17.1
		v54.3c0,1.5-1.2,2.7-2.7,2.7H13V89.3c0-0.2,0-0.3,0.1-0.5c0.8-1.6,1.6-3.4,2.2-5.3c0.1-0.2,0-0.4,0-0.5c-0.1-0.2-0.2-0.3-0.4-0.3
		c-0.4-0.1-0.7,0.1-0.9,0.5c-1.3,4.2-3.2,7.8-5.9,10.9c-0.3,0.4-0.4,0.8-0.1,1.2c0.1,0.2,0.2,0.2,0.4,0.3c0.2,0,0.4,0,0.5-0.2
		c0.9-1.1,1.8-2.3,2.6-3.7c0,0,0,0,0.1,0c0,0,0,0,0,0.1V112H4.8c-1.5,0-2.7-1.2-2.7-2.7V47.7c0-1.5,1.2-2.7,2.7-2.7h33.6
		c1.5,0,2.7,1.2,2.7,2.7V53.8z M30.5,62.6H16.4c-0.2,0-0.2-0.1-0.2-0.2v-3c0-0.2,0.1-0.2,0.2-0.2h14.1c0.2,0,0.3,0.1,0.3,0.2v3
		C30.8,62.5,30.7,62.6,30.5,62.6z M30.8,64v3.2c0,0.2-0.1,0.2-0.3,0.2H16.4c-0.2,0-0.2-0.1-0.2-0.2V64c0-0.2,0.1-0.3,0.2-0.3h14.1
		C30.7,63.7,30.8,63.8,30.8,64z M31.5,95.2H18.9c-0.2,0-0.3-0.1-0.3-0.2v-4.2c0-0.2,0.1-0.2,0.3-0.2h12.7c0.2,0,0.3,0.1,0.3,0.2V95
		C31.8,95.1,31.7,95.2,31.5,95.2z M31.8,96.6v4.5c0,0.2-0.1,0.2-0.3,0.2H18.9c-0.2,0-0.3-0.1-0.3-0.2v-4.5c0-0.2,0.1-0.3,0.3-0.3
		h12.7C31.7,96.4,31.8,96.4,31.8,96.6z"/>
</g>
</svg>
