<svg width="215" height="114" fill="none" xmlns="http://www.w3.org/2000/svg"><path d="M49.355 37.278l-1.636 1.226v11.215c0 9.385.138 11.539.855 13.185l.856 1.97H63.841l1.058-2.39 1.057-2.39-1.108-2.058-1.107-2.058H55.774V37.777l-2.367-.884c-1.308-.49-2.378-.876-2.39-.858-.014.009-.756.569-1.662 1.243zm3.65.946c.415.735-1.51 1.75-2.518 1.33-.604-.254-.66-.525-.22-1.111.667-.885 2.285-1.016 2.738-.22zm1.768 9.709v8.054h-2.517V48.52c0-6.548.107-7.538.88-8.02.504-.314 1.045-.568 1.26-.586.207-.017.377 3.581.377 8.02zm-4.034 1.112l.252 8.326 5.418.166c2.977.087 5.419.368 5.419.613 0 1.357-1.51 1.724-7.156 1.724h-5.947V50.13c0-8.991.07-9.726.881-9.578.78.15.907 1.112 1.133 8.493zm13.405 10.497c.49 2.162-.844 3.624-1.524 1.663-.383-1.112.101-2.994.775-2.994.239 0 .585.604.748 1.33zm-2.518 2.416c.372.552.667 1.147.68 1.392.013.228-2.668.42-5.997.42-5.444 0-6.073-.105-6.552-1.085-.295-.613-.528-1.217-.528-1.392 0-.167 2.643-.307 5.871-.307 4.984 0 5.966.14 6.526.972zM78.963 36.508c-4.978 1.13-8.451 5.21-9.572 11.267-1.214 6.549 1.133 12.362 6.092 15.085 2.222 1.217 3.354 1.462 6.727 1.462 2.87 0 4.645-.298 6.073-1.033 5.431-2.784 8.137-10.348 6.344-17.729-.73-2.994-3.644-6.636-6.344-7.914-2.391-1.138-6.903-1.69-9.32-1.138zm10.076 3.064c2.983 2.18 4.675 5.367 4.94 9.306.251 3.774-.586 7.74-1.913 9.044-.863.84-.869.78-.227-1.217 2.599-8.054-3.291-17.43-10.056-16.021-5.513 1.147-8.332 7.81-5.91 13.973l1.07 2.723-1.485-1.778c-4.21-5.042-2.8-14.051 2.643-16.853 3.077-1.593 8.162-1.208 10.938.823zm-16.702 4.701c-.837 2.636-.277 7.88 1.145 10.716 2.228 4.44 7.829 6.374 11.58 4.001 2.548-1.62 4.09-5.331 3.807-9.157-.126-1.725-.623-3.949-1.114-5l-.881-1.89 1.158 1.13c2.844 2.774 4.059 9.804 2.328 13.473-3.75 7.94-15.11 7.275-18.986-1.112-1.404-3.03-1.385-8.387.038-11.933 1.151-2.898 1.825-3.055.925-.227zm12.22-.936c1.07.788 2.084 2.267 2.694 3.93.862 2.33.906 2.995.372 5.271-.831 3.555-3.606 6.452-5.74 5.997-3.253-.7-5.947-4.5-5.947-8.387 0-2.39 1.574-5.778 3.229-6.943 2.026-1.418 3.322-1.392 5.393.132zM100.379 37.392c-.422.78-1.09 1.987-1.51 2.749-.403.718-.756 1.663-.756 1.996 0 .35 2.555 5.603 5.67 11.661l5.67 11.023 2.291.026 2.291.026 6.4-11.968c3.536-6.61 6.4-12.265 6.4-12.633 0-.367-.447-1.47-1.007-2.469-.938-1.68-1.177-1.803-3.65-1.803-1.46 0-2.882.184-3.178.42-.296.228-1.825 2.828-3.43 5.83-1.605 3.004-3.058 5.411-3.253 5.411-.195 0-1.662-2.609-3.279-5.83L106.124 36h-2.492c-2.114 0-2.611.21-3.253 1.392zm3.203 2.215c-.825 1.558-1.334 1.944-2.543 1.944-1.46 0-1.491-.044-.805-1.253.377-.665.881-1.575 1.082-1.943.208-.385 1.032-.692 1.838-.692h1.46l-1.032 1.944zm18.822-.14c-.553.99-3.618 6.662-6.777 12.546l-5.771 10.742-4.865-9.438c-2.687-5.218-4.864-9.71-4.864-10.05 0-.333.554-.613 1.208-.613 1.007 0 1.743 1.024 4.412 6.19 1.749 3.387 3.429 6.276 3.706 6.382.277.105 2.65-3.8 5.268-8.685l4.763-8.886h3.927l-1.007 1.812zm-11.182 10.97c-1.668 3.274-1.668 3.274-4.689-2.723l-2.825-5.603 1.057-1.97 1.057-1.97 2.92 5.69c2.089 4.046 2.801 5.945 2.48 6.576zm14.04-11.215c.679 1.4-11.422 24.154-12.983 24.417-.604.105-1.057.009-1.057-.21 0-.5 13.089-25.205 13.354-25.205.107 0 .415.437.686.998zM129.862 47.434c0 11.329.012 11.46 1.334 14.156l1.334 2.723h8.439c8.364 0 8.445-.009 8.641-1.252.113-.691.018-2.057-.202-3.055l-.403-1.804-8.948-.14-8.949-.14-.126-10.13-.126-10.129h15.368l.025 1.918.025 1.917-6.073.166-6.072.167-.151 5.997-.152 5.997 7.659-.167 7.659-.166.453-1.497c.308-1.015.245-1.996-.201-3.055-.649-1.532-.73-1.559-6.073-1.83-5.343-.272-5.431-.298-6.425-1.944-.573-.945-1.007-1.847-1.007-2.083 0-.228 2.951-.42 6.526-.42 4.386 0 6.651-.22 6.903-.666.655-1.164.22-4.588-.68-5.306-.585-.49-3.404-.691-9.804-.691h-8.974v11.434zm18.552-7.188l-.202 1.585-.534-1.392c-.598-1.559-.302-3.143.434-2.33.283.316.415 1.253.302 2.137zm-11.516 9.77c.018 1.997-.158 2.636-.73 2.636-.598 0-.756-.78-.756-3.721 0-3.388.063-3.625.73-2.635.397.595.737 2.276.756 3.72zm9.32.56l.125 2.084h-7.916v-4.5l3.832.167 3.833.166.126 2.084zm2.196.771l-.202 1.585-.597-1.559c-.661-1.724-.346-3.099.497-2.162.283.315.415 1.252.302 2.136zm-2.171 9.91v1.944h-12.75l-1.032-1.943-1.032-1.944h14.814v1.944zm2.171.64l-.202 1.584-.534-1.392c-.598-1.558-.302-3.143.434-2.328.283.315.415 1.252.302 2.136zM53.445 78.797c.572-.184 1.422.272 2.064 1.112.931 1.226 1.095 1.252 2.473.333.881-.587 1.75-1.839 2.266-3.266l.887-2.442-1.7-1.191c-1.83-1.287-5.298-1.865-7.136-1.2-3.7 1.349-5.896 4.518-5.877 8.484.012 3.668.692 5.06 3.65 7.433 2.045 1.646 2.932 2.661 3.077 3.528.063.36-.006.718-.208 1.13-.214.446-.616.7-.812.604-.314-.15-1.453-.36-2.592-.482-2.064-.228-2.146-.175-2.851 1.926C46.352 95.8 46 97.14 46 97.62c0 .552.283 1.05.843 1.471 1.14.858 3.36 1.331 5.582 1.331s4.45-.473 5.589-1.515c1.472-1.34 2.39-4.07 2.403-7.117.013-3.879-1.088-6.024-4.373-8.502-2.933-2.214-3.342-2.941-3.065-3.974.076-.263.233-.438.466-.517zm-5.897 17.764c-.05-.114.076-.56.378-1.33.226-.579.761-.946 1.07-.946.037 0 .075.008.1.017.063.026.1.07.095.201-.02.648-1.058 2.12-1.398 2.12-.213 0-.245-.062-.245-.062zm1.089 1.742c-.057-.052-.107-.096-.145-.14h.145c.327 0 .698.245.793.455.05.114.063.175.075.193-.094.017-.39-.07-.868-.508zm7.294-24.531c.648.017 1.56.341 2.083.735.446.342.578.552.616.63-.176.088-.944.01-2.108-.726-.34-.219-.73-.464-.988-.639a2.97 2.97 0 01.397 0zm-1.379 10.374c4.084 2.706 5.419 5.42 4.607 9.36-.403 1.97-1.246 3.458-2.442 4.29-1.535 1.067-3.593 1.024-5.796-.132-1.082-.57-1.139-.727-.78-2.075.094-.368.264-.543.856-.543.314 0 .755.053 1.365.158 1.73.289 2.857.035 3.543-.814.529-.648.78-1.646.78-3.038 0-2.854-1.371-5.262-4.077-7.17-1.297-.911-1.938-1.664-2.083-2.434-.101-.508.012-1.068.34-1.778.34-.726.824-1.199 1.032-1.295-.02.061-.044.149-.107.289a2.748 2.748 0 00-.183 1.707c.258 1.182 1.246 2.346 2.945 3.475zm-2.781-7.213c-1.221.604-2.121 1.882-2.392 3.423-.421 2.355.17 3.51 3.009 5.865 1.894 1.567 2.964 3.02 3.184 4.316.1.578.031 1.112-.208 1.638-.264.586-.667.972-.906 1.041-.063.018-.094.01-.1 0 0 0-.026-.07.037-.297.535-1.926-.724-4.299-3.291-6.181-2.75-2.022-3.581-3.362-3.562-5.726.019-2.118.786-3.974 2.114-5.086.85-.71 1.85-1.068 2.889-1.068 1.038 0 2.12.359 3.121 1.076.963.683 1.372 1.235 1.259 1.673-.095.35-.22.551-.384.621-.277.114-.705-.122-1.265-.709-.944-.99-2.253-1.208-3.505-.587zM77.617 72.004l-1.687.394v9.735l-7.036-10.497h-2.36c-.094 0-2.366.009-2.668.43-.296.41-.308 11.022-.308 12.23 0 11.223.044 11.88.937 14.042.92 2.224 1.07 2.329 3.229 2.329h2.328l.233-10.48L77.012 101l5.412-.35.101-11.644c.1-11.39.088-11.522-.931-14.096-1.196-3.02-1.756-3.431-3.977-2.906zm.402 1.812c.05-.079.41-.079.623-.079.504 0 1.17.508 1.486 1.13.163.324.648 1.295.553 1.567-.05.131-.302.201-.755.201-.642 0-1.076-.446-1.498-1.55-.188-.481-.447-1.138-.409-1.269zm-.377 3.055c.132.465.283 2.084.283 4.203 0 2.451-.126 3.265-.195 3.537-.132-.464-.283-2.084-.283-4.203-.007-2.45.126-3.274.195-3.537zm-9.346 22.395c-.056.132-.528.132-.906.132-.749 0-1.195-.403-1.661-1.497-.353-.84-.478-1.366-.378-1.611.095-.22.416-.333.995-.333.553 0 1.013.508 1.41 1.55.308.779.616 1.584.54 1.76zm.315-3.186c-.415-1.235-.409-7.433-.145-8.615.133.56.277 2.329.277 4.833.007 2.495-.069 3.431-.132 3.782zm10.49 3.318c-1.195 0-1.711-.648-6.104-7.696-.818-1.313-4.915-7.844-5.324-7.844-.427 0-.516 2.985-.516 5.49v5.05h-2.48v-9.883c0-5.989 0-8.992.177-9.254.057.017.227.254.315.385.409.586 3.99 6.04 7.98 12.152 3.951 6.058 6.79 10.61 7.155 11.355-.139.105-.554.245-1.202.245zm2.417-11.163c0 4.614-.056 8.177-.113 9.29-1.75-2.426-14.38-21.687-15.481-23.621.164-.07.554-.158 1.145-.158 1.158 0 1.794.735 6.212 7.153.207.297 5.021 7.284 5.544 7.284.314 0 .617-.385.617-4.938v-4.5h2.076v9.49zM88.699 77.187v12.712l12.045-.342.415-1.698c.302-1.235.239-2.049-.233-3.23-.617-1.55-.805-1.612-5.003-1.778l-4.178-.166-1.442-3.949h5.11c5.022 0 5.494-.035 5.777-1.322.303-1.348-.056-3.86-.704-4.972-.309-.534-1.574-.806-7.628-.806-.73 0-7.155.009-7.457.43-.302.42-.308 10.4-.308 11.538 0 11.075 0 11.075 1.114 13.903l1.145 2.889h13.587l.27-1.523c.139-.771.07-2.163-.144-3.038l-.416-1.699-14.247-.551-.195-19.83h11.975v3.432H88.7zm10.855 7.345c.107.096.321.91.321 2.092 0 1.051-.126 1.392-.163 1.419-.107-.088-.321-.91-.321-2.084 0-1.042.132-1.392.163-1.427zm-7.344-.289l5.878.315.145 3.739H92.21v-4.054zm-1.686-1.12c.604 1.593.623 3.519.302 4.447-.12.35-.283.552-.479.604-.2.053-.264.009-.302-.035-.195-.228-.226-1.252-.226-3.204 0-1.576.05-2.714.1-3.23.133.262.365.76.605 1.418zm9.1 12.265c.088.061.251.648.251 1.751 0 .98-.12 1.41-.163 1.453-.126-.105-.321-.875-.321-1.786 0-.823.163-1.365.233-1.418zm-7.011.009h5.588v3.45H88.31l-.636-1.498a17.364 17.364 0 01-.63-1.698c.491-.123 2.486-.254 5.57-.254zm7.01-21.66c.089.062.252.648.252 1.751 0 .98-.12 1.41-.163 1.454-.126-.105-.321-.876-.321-1.786 0-.823.163-1.366.233-1.419zM117.792 72.687c-.46-.745-1.259-1.05-2.757-1.05-1.85 0-2.215.218-2.794 1.636-.34.84-2.549 6.199-4.927 11.933l-4.355 10.523 1.101 2.61c1.064 2.512 1.189 2.608 3.348 2.608 2.014 0 2.322-.183 2.989-1.777l.655-1.558h7.602l.654 1.558c.686 1.646.938 1.777 3.31 1.777h2.562l2.246-5.323-4.537-11.022c-2.473-6.023-4.758-11.364-5.097-11.915zm-12.794 22.062c.207-.683 1.894-4.955 4.254-10.681 4.128-10.033 4.279-10.33 5.45-10.33.535 0 .919.052 1.095.104-.246.683-1.303 3.327-2.725 6.785-.025.07-2.813 6.83-2.813 7.354 0 .596 1.881.788 3.002.858 2.385.14 2.844.324 3.303 1.314l.422.91h-8.181l-.925 2.049c-.642 1.427-1.07 1.838-1.901 1.838-.528.009-.874-.114-.981-.201zm9.955-7.897c0-.219.038-.324.019-.333.038.018.158.15.29.447.05.122.044.184.044.193-.006.008-.032.026-.088.026-.151 0-.265-.14-.265-.333zm-7.79 12.58c-.63-.078-1.278-.55-1.586-1.164-.17-.341-.636-1.252-.529-1.532.088-.236.724-.236.938-.236.698 0 1.271.429 1.642 1.234.328.7.428 1.287.403 1.392-.176.245-.491.35-.868.307zm2.334-1.628c-.126.272-.182.28-.182.28-.025 0-.132-.078-.403-.919-.252-.779-.34-1.786-.195-2.302.05-.184.126-.464.176-.56.088.096.264.42.409.691.327.613.548 1.287.548 1.532 0 .254-.145.832-.353 1.278zm12.964 1.594c-1.334 0-1.592-.21-2.278-1.839l-.862-2.048h-4.242c-4.052 0-4.065-.044-4.468-1.261l-.359-1.077h3.883c.17 0 4.198-.009 4.5-.429.315-.446-.894-3.607-1.271-4.561-1.227-3.108-1.435-3.984-1.102-4.684.227-.473.422-.753.51-.84.309.525 1.662 3.572 3.493 7.993 1.894 4.578 3.272 7.95 3.48 8.51-.126.096-.56.236-1.284.236zm2.989-2.81c-.207.639-.44 1.033-.541 1.129-.327-.5-1.875-3.94-3.807-8.615-.372-.902-3.675-8.851-4.305-8.851-.478 0-1.523 2.145-2.114 3.58-1.076 2.636-1.555 3.362-2.215 3.362h-.655l.648-1.47c.435-.98 1.662-3.905 2.675-6.391.975-2.382 1.731-3.984 1.989-4.395.415.744 2.19 4.762 4.442 10.2 3.669 8.833 4.217 10.435 3.883 11.45zM139.83 86.388c-.019-.324.837-2.215 2.423-4.789 1.303-2.11 2.763-4.605 2.901-5.051.157-.526-.245-1.839-.692-2.837-.837-1.882-1.12-2.075-3.008-2.075-1.97 0-2.153.14-3.971 2.96l-1.618 2.52-.377-5.191-2.19-.175c-2.089-.166-2.184-.105-3.241 2.442C129 76.74 129 76.74 129 88.761v12.186h2.152c2.253 0 2.914-.831 3.933-4.92l.397-1.585 1.718 2.793c1.906 3.1 1.982 3.161 4.172 3.161 2.165 0 2.284-.088 3.071-2.259l.824-2.267-2.662-4.5c-1.51-2.566-2.68-4.702-2.775-4.982zm1.164-13.08c.12-.07.296-.105.491-.105.516 0 1.196.22 1.454.578.434.604.409.858.39.92-.019.06-.126.262-.717.262-.818 0-1.718-.814-1.718-1.558 0-.018.037-.062.1-.097zm-6.576 2.408c.044.306.076.91.101 1.374.075 1.366-.076 2.33-.453 2.855-.057.078-.221.306-.315.393-.038-.218-.038-.831-.038-1.181 0-.963.214-2.268.478-2.916.057-.131.152-.367.227-.525zm-2.907-1.4c.339-.684 1.265-1.183 1.85-1.183.107 0 .201.018.277.053.157.07.157.175.157.227 0 1.025-1.284 2.67-2.077 2.67-.453 0-.705-.07-.755-.2-.101-.272.39-1.253.548-1.568zm.692 14.725v10.392l-1.882-.29-.195-20.958h2.48v2.556c0 1.12.063 2.994.497 2.994.39 0 2.907-3.992 3.411-4.797 1.718-2.74 2.882-4.395 3.127-4.632.095.07.328.403.523.902.283.736-.384 2.023-3.751 7.275l-4.21 6.558zm1.636 5.892l-.057.35c-.006-.35-.006-.762-.012-1.217-.006-1.243.025-1.803.056-2.049 0 .01.007.018.007.018.22.517.22 1.628.006 2.898zm6.23 2.118a.735.735 0 01-.377.526c-.617-.167-5.519-7.538-5.582-8.344.088-.324 1.63-2.924 3.794-6.286 2.832-4.386 4.015-5.865 4.695-5.865.258 0 .308.043.315.052.075.342-1.259 2.495-2.549 4.588-.352.569-.68 1.094-.975 1.567-3.418 5.49-3.487 5.594-1.674 8.43.151.237.314.491.49.78 1.731 2.775 1.97 4.01 1.863 4.553zm3.304.237c0 .744-.9 1.558-1.718 1.558-.591 0-.698-.201-.717-.262-.019-.062-.044-.316.39-.92.258-.359.938-.578 1.454-.578.201 0 .377.035.497.106.056.026.094.06.094.096zm-.956-1.777c-.831 0-3.386-4.045-4.135-6.251-.264-.788-.176-.98-.164-.998.214-.36.453-.578.542-.613.188.184 1.013 1.47 2.164 3.546 1.007 1.812 2.146 3.87 2.027 4.21-.013.036-.076.106-.434.106zM151.359 77.187v12.651h6.104c6.457 0 6.583 0 6.583-3.546 0-3.134-1.101-3.545-5.462-3.545h-3.978l-.654-1.611c-.372-.91-.617-1.716-.667-2.014.352-.166 2.051-.376 4.978-.376 4.468 0 5.298-.158 5.537-1.025.435-1.576.277-3.397-.409-4.754-.641-1.278-.862-1.313-7.847-1.313-.736 0-7.174.009-7.476.43-.296.42-.271 10.523-.265 11.678.038 11.224.038 11.224 1.139 13.772l1.127 2.6h13.763l.132-1.979c.069-1.05-.063-2.355-.315-3.038-.434-1.182-.862-1.26-7.639-1.392l-6.929-.131-.195-19.83h12.057v3.423h-9.584zm10.812 7.766c.012-.026.044-.105.075-.105.069.017.308.403.459 1.226.202 1.138.057 1.908-.075 1.987-.031.026-.132-.053-.258-.324-.334-.744-.403-2.267-.201-2.784zm-7.307 1.698c0-1.041.126-1.934.202-2.057.151-.131 1.403-.306 3.09-.306h2.775v4h-6.073v-1.637h.006zm-1.114-.499c0 2.049-.144 2.145-.641 2.145-.529 0-.642 0-.642-3.528v-3.125l.516.901c.491.84.767 2.154.767 3.607zm8.439 9.368c.026-.061.057-.131.101-.131.082 0 .346.411.485 1.164.195 1.103.025 1.961-.139 2.058-.05.026-.151-.08-.239-.28-.352-.762-.415-2.277-.208-2.811zm-6.922-.123h5.67v3.45h-10l-.497-1.4c-.239-.675-.491-1.384-.629-1.752.535-.157 2.605-.297 5.456-.297zm6.922-21.528c.026-.061.057-.131.101-.131.082 0 .346.411.485 1.164.195 1.103.025 1.961-.139 2.058-.05.026-.144-.08-.239-.28-.352-.77-.415-2.285-.208-2.81zM180.553 92.245l-1.353-2.574 1.051-2.206c1.51-3.178 1.655-8.589.295-11.136-1.925-3.598-3.064-4.141-8.716-4.141h-5.305v11.626c0 11.136.032 11.539 1.013 14.253l1.039 2.872h4.644v-3.826c0-1.699.095-2.89.183-3.283.27.341 1.044 1.584 2.026 3.44l1.945 3.669H182v-3.047c0-2.434-.227-3.336-1.447-5.647zm-8.899 7.013c-.057.14-.635.14-.944.14-.742 0-1.258-.394-1.674-1.287-.226-.49-.61-1.314-.547-1.471.056-.14.635-.14.944-.14.742 0 1.258.394 1.674 1.287.226.499.61 1.313.547 1.47zm.409-2.977a4.913 4.913 0 01-.239-.412c-.591-1.076-.768-4.5-.384-5.244.032-.06.057-.078.076-.078.006 0 .019 0 .025.008.126.053.403.937.491 3.3.031.92.069 2.032.031 2.426zm7.187 3.117c-.422 0-1.907-1.007-6.671-10.349-.849-1.672-1.346-2.355-1.737-2.355a.386.386 0 00-.138.027c-.434.192-.592 1.278-.592 4v3.669h-2.479v-9.954c0-5.779.132-10.068.233-10.419.421-.577 7.797-.411 9.074.508 2.857 2.049 4.116 6.382 2.92 10.068-.673 2.075-2.592 4.816-3.209 4.816-.202 0-.327-.106-.39-.316-.151-.525.132-1.637.856-2.591 1.629-2.128 2.02-5.227.969-7.704-1.051-2.478-2.348-3.275-5.349-3.275h-2.631v8.764h2.473c2.222 0 3.43-.43 3.43-2.714 0-1.681-.824-2.714-2.152-2.714-.894 0-1.838-.806-1.844-1.541.163-.341 2.404-.324 3.574.412 1.202.761 1.901 2.267 1.857 4.035-.044 1.944-.95 3.616-2.366 4.37-.372.192-.686.393-.781.83-.176.85.585 2.32 3.015 6.838 1.523 2.828 2.624 5.043 2.762 5.41-.088.08-.371.185-.824.185zm-7.684-20.154c.29.324.541 1.287.541 2.11 0 .63-.075 1.392-.44 1.392-.214 0-.441-.158-.441-2.057 0-.42 0-1.541.082-1.664.013 0 .069.009.258.22zm1.655 2.329c0-.403.05-.92.277-1.094a.333.333 0 01.208-.07c.214 0 .497.157.83.455.252.227.346.578.265.971-.095.438-.428.902-.938.902-.428.009-.642-.175-.642-1.164zm6.01 12.694c-.982-1.803-1.466-3.178-1.435-3.414.057-.131.139-.306.164-.324.151.026.679 1.077 1.542 2.828.988 1.996 1.252 2.959 1.283 3.265-.176-.14-.654-.7-1.554-2.355z" fill="#fff"/><path d="M162.633 35.442c-.621-.518-.577-1.441.105-1.865 4.899-3.034 20.764-12.957 22.137-15.215 1.63-2.674 6.954-11.498 9.872-10.14 3.219 1.495 5.248 2.847 5.304 7.007.056 4.16-5.011 20.792-23.098 52.101 0 0-2.183 2.59-5.689-.391-2.01-1.712-4.166-3.245-6.554-4.427a81.425 81.425 0 00-5.353-2.43c-2.636-1.064-4.072-2.703-4.85-4.032-.631-1.083-.249-2.424.859-3.035 1.923-1.07 5.207-3.158 8.596-6.498 4.881-4.812.948-9.186-1.329-11.075z" stroke="#fff" stroke-width="3" stroke-miterlimit="10"/><path d="M194.739 8.23s3.272 3.432-10.163 31.066M180.911 46.66s-3.929 9.717-11.904 18.594M177.462 24.086s1.76 2.925 2.096 5.269M171.544 28.174s1.76 2.925 2.096 5.269M176.021 55.886s-8.245-3.545-14.824 5.005" stroke="#fff" stroke-width="3" stroke-miterlimit="10" stroke-linecap="round" stroke-linejoin="round"/><path d="M162.609 35.458c-.625-.52-.582-1.443.101-1.866 4.912-3.028 20.82-12.931 22.194-15.19 1.631-2.672 6.959-11.495 9.891-10.131 3.234 1.503 5.274 2.859 5.338 7.023.064 4.165-4.99 20.802-23.088 52.106 0 0-2.186 2.588-5.711-.402-2.021-1.717-4.189-3.255-6.589-4.442a81.916 81.916 0 00-5.378-2.442c-2.648-1.07-4.093-2.712-4.876-4.044-.636-1.085-.255-2.427.856-3.036 1.928-1.067 5.221-3.152 8.617-6.488 4.891-4.808.934-9.193-1.355-11.088z" stroke="#FAFF00" stroke-miterlimit="10"/><path d="M194.787 8.28s3.291 3.44-10.143 31.075M180.979 46.719s-3.926 9.719-11.914 18.59M177.473 24.119s1.773 2.93 2.114 5.277M171.54 28.2s1.772 2.93 2.114 5.277M176.088 55.944s-8.284-3.562-14.871 4.984" stroke="#FAFF00" stroke-miterlimit="10" stroke-linecap="round" stroke-linejoin="round"/><mask id="a" fill="#fff"><rect y="34" width="41" height="68" rx="2"/></mask><rect y="34" width="41" height="68" rx="2" stroke="#fff" stroke-width="6" stroke-linejoin="round" mask="url(#a)"/><rect x="1.5" y="35.5" width="38" height="65" rx="1.5" stroke="#FAFF00" stroke-linejoin="round"/><path d="M22.14 73.33c-.6 0-.84-.24-.84-.84-.03-1.23 0-1.53.39-1.8.27-.15.42-.21.42-.42 0-.39-.54-.33-1.23-.42-.24-.03-.57-.06-.84-.06-.24 0-.48.06-.48.36 0 .09.03.18.03.3.06.69.15 1.35.12 2.04 0 .6-.24.84-.81.84h-6.03c-.93 0-1.86-.03-2.82-.03-1.02 0-1.68.09-1.68 1.29 0 .42.03.84.03 1.26v1.2c0 .24-.06.57-.06.87 0 .48.21.6.84.6.39 0 .84-.03.84-.54 0-.3-.06-.66-.06-.93v-1.41c0-.57.27-.81.84-.81h19.44c.51 0 .72.21.72.72v.33c0 .24-.06.63-.06.93 0 .51.45.54.84.54.72 0 .84-.18.84-.69 0-.27-.03-.54-.03-.81 0-.12.03-.87.03-1.29 0-1.2-.75-1.26-1.77-1.26-.93 0-1.83.03-2.76.03h-5.91zm-9.24 8.04c.87-1.11 1.68-2.28 2.43-3.48.3-.45.36-.54.69-.6.18-.03.36-.12.36-.3 0-.21-.18-.3-.33-.36-.3-.09-1.14-.48-1.38-.48-.21 0-.3.18-.39.36-1.32 2.73-4.26 6.12-6.66 8.01-.21.15-.48.33-.48.63s.51.78.87.78c.51 0 2.07-1.5 2.49-1.89.09-.09.15-.12.27-.12.21 0 .3.18.3.39v7.38c0 1.17-.06 2.34-.06 3.51 0 .69.06 1.11.87 1.11s.84-.45.84-1.14c0-1.17-.06-2.31-.06-3.48v-6.33c0-2.04-.06-2.55.39-2.85.24-.15.42-.21.42-.42s-.24-.3-.42-.33c-.12-.03-.24-.09-.24-.21 0-.09.03-.12.09-.18zm7.14 8.73c0-.51.33-.84.84-.84h7.83c.51 0 .81.33.81.84v2.31c0 .48-.3.78-.81.84h-7.83c-.51-.06-.84-.33-.84-.84V90.1zm.84-2.34c-.51-.06-.84-.33-.84-.84v-2.01c0-.51.33-.78.84-.84h7.83c.51 0 .81.33.81.84v2.01c0 .51-.3.84-.81.84h-7.83zm8.61 7.98c0 .57.12.78.84.78.63 0 .81-.15.81-.72 0-.66-.03-1.35-.03-2.01v-8.13c0-.6.03-1.2.03-1.8 0-1.05-.36-1.29-1.35-1.29-.48 0-.93.03-1.38.03h-3.93c-.24-.03-.48-.12-.48-.42 0-.12.03-.18.06-.27.36-.66.72-1.32 1.02-2.01.27-.57.51-.72 1.14-.72h1.11c1.17 0 2.34.06 3.51.06.54 0 .57-.3.57-.81 0-.57-.03-.81-.6-.81-1.14 0-2.31.06-3.48.06h-5.94c-1.17 0-2.34-.06-3.51-.06-.54 0-.57.3-.57.81s.03.81.57.81c1.17 0 2.34-.06 3.51-.06h1.56c.12 0 .57 0 .57.45 0 .12-.03.18-.06.27-.36.75-.69 1.32-1.11 2.04-.39.54-.6.63-1.26.66-.45 0-.93-.03-1.38-.03-1.62 0-1.26.99-1.26 3.09v7.98c0 .66-.03 1.32-.03 1.98 0 .57.12.75.81.75.72 0 .84-.18.84-.75v-.33c0-.42.21-.57.6-.57h8.22c.45 0 .6.15.6.6v.42z" fill="#FAFF00"/><path d="M21.3 72.49h.5v-.013l-.5.012zm.39-1.8l-.243-.438-.022.012-.02.014.284.411zm-.81-.84l.064-.496h-.002l-.063.495zm-1.29.6h-.5v.021l.001.022.498-.044zm.12 2.04l-.5-.022V72.489h.5zm-6.81 8.88l.353.353.021-.022.019-.023-.393-.309zm2.43-3.48l-.416-.278-.005.006-.004.006.425.265zm.69-.6l-.083-.494-.007.001.09.492zm.03-.66l.185-.465-.02-.008-.022-.007-.144.48zm-1.77-.12l-.448-.224-.003.006.45.217zm-6.66 8.01l.29.406.01-.007.009-.007-.31-.393zm2.88-.48l.34.366.007-.007.006-.006-.354-.354zm2.55-1.53l-.266-.425-.006.004-.006.004.277.416zm0-.75l-.122.484.02.005.02.004.082-.494zm15.66 11.49v.5h.029l.029-.004-.059-.497zm-7.83 0l-.059.496.03.003h.029v-.5zm0-5.49l-.059.496.03.003h.029v-.5zm0-3.69v-.5h-.03l-.029.003.058.496zm3.6-1.47l-.063.495.031.004h.032v-.5zm-.42-.69l-.44-.24-.02.039-.015.042.474.158zm1.02-2.01l-.452-.215-.004.007-.003.008.459.2zm-1.62 0l.45.216.014-.029.01-.03-.475-.158zm-1.11 2.04l.405.292.014-.02.012-.02-.431-.253zm-1.26.66v.5h.01l.012-.001-.022-.5zm1.05-9.77a.874.874 0 01-.242-.027.205.205 0 01-.041-.016.035.035 0 01-.009-.006s-.003-.003-.006-.01a.2.2 0 01-.016-.04.874.874 0 01-.027-.242h-1c0 .35.067.724.342.999s.65.341.999.341v-1zm-.34-.353c-.016-.633-.012-.953.027-1.15a.372.372 0 01.048-.137.355.355 0 01.1-.09l-.57-.822c-.131.091-.258.202-.36.355-.103.153-.163.32-.198.498-.066.329-.062.773-.047 1.37l1-.024zm.132-1.35c.097-.054.27-.142.39-.243a.802.802 0 00.21-.263.795.795 0 00.078-.352h-1c0-.01.002-.043.022-.086a.205.205 0 01.047-.064l-.014.01a4.665 4.665 0 01-.12.07l-.098.053.485.874zm.678-.858c0-.233-.09-.449-.278-.603a1.084 1.084 0 00-.48-.21 4.16 4.16 0 00-.445-.056c-.153-.014-.303-.026-.463-.047l-.13.992c.186.024.362.038.505.051.15.013.256.025.335.04.086.018.077.03.042.002a.242.242 0 01-.087-.169h1zm-1.668-.916a7.867 7.867 0 00-.902-.064v1c.24 0 .547.028.777.056l.125-.992zm-.902-.064c-.143 0-.374.014-.582.136a.808.808 0 00-.398.724h1c0-.007 0 .019-.021.058a.216.216 0 01-.078.082c-.019.01-.025.01-.008.006a.495.495 0 01.087-.006v-1zm-.98.86c0 .092.015.18.02.215.007.046.01.066.01.085h1c0-.1-.013-.186-.021-.237l-.01-.063h-1zm.031.344c.063.721.147 1.328.119 1.975l.999.043c.032-.733-.064-1.447-.121-2.105l-.997.087zm.118 1.996c0 .12-.012.197-.026.244a.217.217 0 01-.023.053l-.007.005a.169.169 0 01-.035.014.765.765 0 01-.218.024v1c.34 0 .708-.07.977-.346.266-.274.332-.644.332-.994h-1zm-.31.34h-6.03v1h6.03v-1zm-6.03 0c-.46 0-.92-.007-1.39-.015-.468-.007-.945-.015-1.43-.015v1c.476 0 .944.008 1.414.015.468.008.937.015 1.407.015v-1zm-2.82-.03c-.257 0-.518.006-.758.037-.24.032-.492.094-.718.228-.508.3-.703.836-.703 1.525h1c0-.51.134-.619.211-.664a.916.916 0 01.341-.097c.17-.023.375-.029.627-.029v-1zm-2.18 1.79c0 .22.008.44.016.648.007.212.015.413.015.612h1c0-.22-.008-.44-.016-.648a17.204 17.204 0 01-.014-.612h-1zm.03 1.26v1.2h1v-1.2h-1zm0 1.2c0 .09-.011.202-.027.363a5.15 5.15 0 00-.032.507h1c0-.121.012-.255.027-.407.014-.14.033-.312.033-.463h-1zm-.06.87c0 .299.065.662.401.893.274.187.632.207.94.207v-1c-.146 0-.245-.007-.312-.019-.068-.011-.077-.023-.062-.013.025.017.04.042.044.053l-.005-.027a.679.679 0 01-.005-.094h-1zm1.34 1.1c.184 0 .497-.001.769-.121a.938.938 0 00.415-.347c.111-.172.157-.37.157-.572h-1c0 .053-.011.051.003.028.016-.024.032-.029.02-.024a.452.452 0 01-.123.027c-.068.007-.147.01-.24.01v1zm1.34-1.04c0-.177-.017-.365-.032-.522a4.77 4.77 0 01-.027-.408h-1c0 .164.017.347.032.5.015.166.028.307.028.43h1zm-.06-.93v-1.41h-1v1.41h1zm0-1.41c0-.105.013-.17.026-.209.011-.034.022-.044.024-.046.005-.005.062-.055.29-.055v-1c-.341 0-.704.07-.977.328-.279.264-.362.627-.362.982h1zm.34-.31h19.44v-1H10.8v1zm19.44 0c.203 0 .22.045.198.023-.022-.022.022-.005.022.197h1c0-.308-.06-.65-.315-.905-.254-.254-.597-.315-.904-.315v1zm.22.22v.33h1v-.33h-1zm0 .33c0 .092-.011.222-.027.397a6.09 6.09 0 00-.032.533h1c0-.123.012-.273.027-.442.015-.154.032-.34.032-.488h-1zm-.06.93c0 .202.046.4.157.572a.938.938 0 00.415.347c.272.12.585.121.768.121v-1c-.093 0-.172-.002-.24-.01a.452.452 0 01-.124-.026c-.011-.005.005 0 .02.024.015.023.005.025.005-.028h-1zm1.34 1.04c.356 0 .75-.033 1.026-.283.298-.27.315-.656.315-.907h-1a.903.903 0 01-.015.2c-.005.018-.001-.007.029-.034.025-.023.032-.013-.027 0a1.611 1.611 0 01-.328.024v1zm1.34-1.19c0-.15-.008-.3-.015-.433a6.876 6.876 0 01-.014-.377h-1c0 .151.008.3.015.433.008.137.015.258.015.377h1zm-.03-.81c0-.05.008-.252.015-.517.008-.255.016-.554.016-.773h-1c0 .202-.008.487-.015.743-.008.244-.015.477-.015.547h1zm.03-1.29c0-.348-.053-.66-.184-.924a1.327 1.327 0 00-.586-.599c-.444-.232-1.019-.237-1.5-.237v1c.54 0 .85.026 1.036.123.07.037.117.082.153.156.042.083.082.23.082.481h1zm-2.27-1.76c-.47 0-.93.008-1.388.015a83.4 83.4 0 01-1.372.015v1c.47 0 .932-.007 1.389-.015a83.4 83.4 0 011.372-.015v-1zm-2.76.03h-5.91v1h5.91v-1zm-14.756 8.849a40.562 40.562 0 002.46-3.524l-.848-.53a39.591 39.591 0 01-2.399 3.437l.787.617zm2.453-3.511c.077-.116.13-.196.175-.258a.701.701 0 01.08-.098c.007-.006.006-.004.008-.005a.528.528 0 01.1-.025l-.179-.984c-.21.039-.413.101-.605.278-.15.137-.278.336-.411.537l.832.555zm.356-.385c.133-.022.306-.071.458-.181a.747.747 0 00.32-.612h-1c0-.042.011-.089.035-.13a.219.219 0 01.06-.069c.01-.008.014-.008.005-.004a.246.246 0 01-.043.01l.165.986zm.777-.793a.802.802 0 00-.277-.61 1.249 1.249 0 00-.367-.214l-.371.928c.03.013.051.022.066.03.015.008.016.01.01.005a.198.198 0 01-.06-.139h1zm-.686-.839c-.124-.037-.368-.14-.674-.26a7.708 7.708 0 00-.42-.154 1.49 1.49 0 00-.43-.087v1c-.03 0-.003-.002.121.038.102.033.228.08.365.134.248.098.575.234.75.287l.288-.958zm-1.524-.5c-.276 0-.48.13-.613.28-.113.126-.186.28-.224.356l.895.447.055-.106c.015-.026.022-.034.021-.033a.201.201 0 01-.134.055v-1zm-.84.642c-1.28 2.648-4.166 5.981-6.519 7.834l.619.786c2.447-1.927 5.441-5.373 6.8-8.185l-.9-.435zm-6.5 7.82c-.09.064-.259.18-.395.326a1.036 1.036 0 00-.294.711h1v.002l-.001.003v.002a.174.174 0 01.029-.038c.05-.056.122-.106.242-.192l-.581-.814zm-.69 1.037c0 .206.083.385.16.51.082.134.189.257.303.362.207.189.542.408.908.408v-1c.014 0-.006.003-.063-.026a.791.791 0 01-.296-.267c-.03-.049-.011-.042-.011.013h-1zm1.37 1.28c.17 0 .329-.058.443-.11.124-.056.252-.13.376-.212a8.66 8.66 0 00.781-.593c.52-.434 1.027-.92 1.23-1.108l-.68-.733c-.216.201-.698.661-1.192 1.074a7.728 7.728 0 01-.686.523c-.1.066-.181.111-.242.139-.07.031-.072.02-.03.02v1zm2.844-2.036c.029-.03.016-.01-.023.008a.232.232 0 01-.054.017c-.012.002-.016.001-.006.001v-1a.834.834 0 00-.354.071.92.92 0 00-.27.196l.707.707zm-.083.026a.24.24 0 01-.199-.128l-.004-.009.002.007v.02h1a.984.984 0 00-.158-.556.762.762 0 00-.641-.334v1zm-.2-.11v7.38h1v-7.38h-1zm0 7.38c0 .578-.015 1.156-.03 1.743-.015.583-.03 1.175-.03 1.767h1c0-.577.014-1.156.03-1.742.014-.584.03-1.175.03-1.768h-1zm-.06 3.51c0 .175.003.36.026.531.023.172.07.365.178.543.247.407.683.536 1.165.536v-1a.774.774 0 01-.284-.037c-.025-.01-.025-.016-.027-.019a.43.43 0 01-.04-.156 3.149 3.149 0 01-.019-.398h-1zm1.37 1.61c.495 0 .929-.145 1.162-.571a1.46 1.46 0 00.157-.544c.019-.17.02-.354.02-.525h-1c0 .175-.002.306-.014.414a.505.505 0 01-.04.175c-.003.006-.002.007-.02.015a.684.684 0 01-.265.036v1zm1.34-1.64c0-.592-.016-1.176-.03-1.753-.016-.578-.03-1.15-.03-1.727h-1c0 .593.015 1.177.03 1.753.015.579.03 1.15.03 1.727h1zm-.06-3.48v-6.33h-1v6.33h1zm0-6.33c0-1.047-.015-1.64.023-2.028.019-.187.046-.277.068-.323a.183.183 0 01.076-.083l-.555-.832c-.18.12-.325.275-.425.487a1.964 1.964 0 00-.159.653c-.044.452-.029 1.133-.029 2.126h1zm.155-2.426c.053-.033.095-.057.156-.093.053-.031.124-.074.19-.128a.768.768 0 00.308-.623h-1c0-.023.007-.064.03-.108.022-.038.043-.054.038-.05a.771.771 0 01-.076.049c-.04.023-.11.064-.177.105l.53.848zm.655-.844a.77.77 0 00-.375-.654 1.263 1.263 0 00-.463-.169l-.165.986c.024.004.047.01.066.016.02.007.027.012.026.01a.172.172 0 01-.047-.05.258.258 0 01-.043-.139h1zm-.8-.815c-.031-.008-.017-.01.014.014.02.015.052.044.08.092.03.052.046.112.046.17h-1c0 .256.138.436.274.538a.963.963 0 00.344.156l.243-.97zm.14.275a.344.344 0 01-.076.193l.02-.02-.708-.706c-.016.016-.093.088-.148.184a.69.69 0 00-.088.35h1zm7.23 8.55c0-.145.044-.22.082-.257.037-.038.112-.083.258-.083v-1c-.365 0-.71.12-.965.376-.255.254-.375.6-.375.964h1zm.34-.34h7.83v-1h-7.83v1zm7.83 0c.143 0 .205.044.233.073.031.033.076.11.076.267h1c0-.352-.104-.696-.35-.955-.25-.263-.593-.385-.96-.385v1zm.31.34v2.31h1V90.1h-1zm0 2.31c0 .131-.038.194-.072.229-.04.04-.124.094-.297.115l.117.993c.337-.04.658-.166.896-.41.243-.25.355-.578.355-.927h-1zm-.31.34h-7.83v1h7.83v-1zm-7.772.004c-.187-.022-.282-.076-.326-.118-.032-.03-.072-.087-.072-.226h-1c0 .372.124.705.384.952.25.236.574.347.897.385l.117-.993zm-.398-.344V90.1h-1v2.31h1zm.398-5.146c-.187-.022-.282-.076-.326-.118-.032-.03-.072-.087-.072-.226h-1c0 .372.124.705.384.952.25.236.574.347.897.385l.117-.993zm-.398-.344v-2.01h-1v2.01h1zm0-2.01c0-.138.04-.195.072-.226.044-.041.139-.095.326-.117l-.117-.993c-.323.038-.648.149-.897.385-.26.246-.384.58-.384.951h1zm.34-.34h7.83v-1h-7.83v1zm7.83 0c.143 0 .205.044.233.073.031.033.076.11.076.267h1c0-.352-.104-.696-.35-.955-.25-.263-.593-.385-.96-.385v1zm.31.34v2.01h1v-2.01h-1zm0 2.01c0 .159-.046.234-.077.267-.028.03-.09.073-.234.073v1c.367 0 .71-.121.96-.384.246-.26.35-.604.35-.956h-1zm-.31.34h-7.83v1h7.83v-1zm.28 8.48c0 .275.015.668.29.952.277.285.683.328 1.05.328v-1c-.161 0-.257-.012-.312-.026-.05-.013-.041-.02-.02.002.022.022.018.036.01-.003a1.237 1.237 0 01-.018-.253h-1zm1.34 1.28c.312 0 .693-.026.97-.27.3-.264.34-.647.34-.95h-1a.86.86 0 01-.02.217c-.006.022-.005.004.02-.019.022-.018.027-.01-.024.001-.055.012-.144.021-.287.021v1zm1.31-1.22c0-.336-.008-.68-.016-1.016-.007-.338-.014-.67-.014-.994h-1c0 .337.007.68.015 1.016.007.339.015.67.015.994h1zm-.03-2.01v-8.13h-1v8.13h1zm0-8.13c0-.292.007-.586.014-.887.008-.3.016-.605.016-.913h-1c0 .293-.008.587-.015.888-.008.299-.015.605-.015.912h1zm.03-1.8c0-.55-.088-1.068-.47-1.411-.368-.329-.884-.379-1.38-.379v1c.493 0 .652.07.712.124.045.04.138.167.138.666h1zm-1.85-1.79c-.25 0-.49.008-.718.016-.23.007-.447.014-.662.014v1c.234 0 .468-.008.695-.015.23-.008.454-.015.684-.015v-1zm-1.38.03h-3.93v1h3.93v-1zm-3.869.004a.55.55 0 01-.09-.018c-.021-.006-.022-.01-.012-.002a.16.16 0 01.046.056c.015.029.015.047.015.04h-1c0 .31.137.56.36.72.192.135.411.178.558.196l.123-.992zm-.041.076v-.01-.002-.002a.495.495 0 01.01-.028l.024-.07-.949-.316c-.017.052-.085.207-.085.428h1zm-.002-.03c.359-.657.73-1.337 1.04-2.05l-.917-.4c-.29.667-.639 1.308-1 1.97l.878.48zm1.033-2.036c.123-.26.2-.333.25-.364.05-.032.15-.07.439-.07v-1c-.343 0-.677.038-.972.224-.295.186-.473.472-.62.782l.903.428zm.689-.434h1.11v-1h-1.11v1zm1.11 0c.577 0 1.156.015 1.742.03.584.015 1.175.03 1.768.03v-1a68.15 68.15 0 01-1.743-.03c-.584-.014-1.175-.03-1.768-.03v1zm3.51.06c.175 0 .357-.023.525-.1a.855.855 0 00.402-.376c.08-.15.112-.306.126-.436.015-.13.017-.27.017-.398h-1c0 .128-.003.217-.01.286-.008.07-.019.084-.013.073a.146.146 0 01.061-.058c.01-.005-.015.01-.108.01v1zm1.07-1.31c0-.14-.002-.289-.017-.424a1.114 1.114 0 00-.141-.452c-.221-.368-.615-.434-.942-.434v1c.054 0 .093.003.12.007.027.004.038.008.037.007a.18.18 0 01-.072-.066c-.014-.022-.004-.02.004.052.008.07.01.166.01.31h1zm-1.1-1.31c-.578 0-1.162.016-1.742.03-.582.016-1.161.03-1.739.03v1c.593 0 1.184-.015 1.765-.03.582-.015 1.153-.03 1.715-.03v-1zm-3.48.06h-5.94v1h5.94v-1zm-5.94 0c-.578 0-1.157-.014-1.743-.03-.584-.014-1.175-.03-1.767-.03v1c.577 0 1.156.015 1.742.03.584.015 1.175.03 1.768.03v-1zm-3.51-.06c-.177 0-.358.024-.526.1a.855.855 0 00-.402.376c-.08.15-.112.307-.126.437a3.63 3.63 0 00-.017.397h1c0-.127.003-.216.01-.285.008-.07.019-.084.013-.073a.148.148 0 01-.061.058c-.01.004.014-.01.108-.01v-1zm-1.07 1.31c0 .128.001.267.016.398.014.13.045.287.126.436a.855.855 0 00.402.376c.168.077.35.1.526.1v-1c-.095 0-.119-.014-.109-.01.022.011.048.035.06.059.007.01-.004-.003-.011-.073a2.705 2.705 0 01-.01-.286h-1zm1.07 1.31c.592 0 1.183-.015 1.767-.03a68.15 68.15 0 011.743-.03v-1c-.593 0-1.184.016-1.768.03a68.15 68.15 0 01-1.742.03v1zm3.51-.06h1.56v-1h-1.56v1zm1.56 0c.027 0 .053 0 .08.004a.194.194 0 01.048.01s-.02-.01-.041-.038a.12.12 0 01-.017-.034c-.002-.008 0-.006 0 .008h1c0-.2-.052-.387-.162-.546a.891.891 0 00-.377-.305c-.235-.104-.476-.099-.532-.099v1zm.07-.05v.01l-.001.002v.003a.528.528 0 01-.01.027l-.024.07.949.316c.017-.051.085-.206.085-.428h-1zm-.011.054c-.35.73-.672 1.285-1.091 2.004l.863.504c.42-.72.76-1.305 1.13-2.075l-.902-.433zm-1.065 1.963c-.184.256-.277.332-.35.37-.08.04-.202.069-.527.084l.045.999c.335-.015.648-.046.936-.193.294-.15.501-.39.707-.674l-.81-.585zm-.854.453c-.216 0-.44-.007-.674-.014-.231-.008-.472-.016-.707-.016v1c.216 0 .44.007.674.015.231.007.472.015.707.015v-1zm-1.38-.03c-.443 0-.839.065-1.152.268-.338.218-.5.542-.574.882-.071.32-.074.697-.065 1.082.008.408.03.839.03 1.358h1c0-.53-.023-1.01-.03-1.38-.009-.39 0-.655.041-.844.038-.17.09-.225.14-.258.075-.049.241-.108.61-.108v-1zm-1.76 3.59v7.98h1v-7.98h-1zm0 7.98c0 .324-.008.648-.015.979-.008.329-.015.665-.015 1.001h1c0-.323.007-.647.014-.978.008-.33.015-.665.015-1.002h-1zm-.03 1.98c0 .271.014.664.292.943.276.275.676.307 1.018.307v-1c-.157 0-.25-.01-.302-.023-.049-.012-.035-.018-.009.008.028.028.026.047.018.012a1.212 1.212 0 01-.018-.247h-1zm1.31 1.25c.353 0 .758-.031 1.037-.302.289-.28.303-.677.303-.948h-1c0 .132-.008.204-.018.245-.007.033-.008.012.02-.015.025-.025.036-.017-.02-.004a1.54 1.54 0 01-.322.024v1zm1.34-1.25v-.33h-1v.33h1zm0-.33a.33.33 0 01.01-.1c0-.001-.006.015-.025.032-.017.015-.026.015-.01.01a.494.494 0 01.124-.012v-1c-.242 0-.542.044-.778.254-.25.222-.321.53-.321.816h1zm.1-.07h8.22v-1h-8.22v1zm8.22 0c.088 0 .133.008.151.013.014.004-.009 0-.036-.028-.028-.028-.032-.05-.028-.037a.635.635 0 01.012.152h1c0-.252-.035-.58-.277-.822-.242-.242-.57-.278-.822-.278v1zm.1.1v.42h1v-.42h-1z" fill="#fff"/><path d="M33.24 65.553c0-.21-.12-.36-.27-.54-.9-1.08-2.22-2.4-3.27-3.39-.63-.6-1.77-1.65-2.46-2.19-.15-.12-.27-.21-.48-.21-.39 0-.84.48-.84.87 0 .24.21.42.36.57 1.89 1.65 3.69 3.39 5.4 5.22.18.21.39.48.69.48.33 0 .87-.42.87-.81zm-13.29-5.34c0-.27-1.38-1.05-1.59-1.05-.24 0-.39.24-.51.42-1.26 1.83-3.42 3.84-5.25 5.04-.24.15-.42.27-.42.57 0 .36.48.81.93.81.33 0 .6-.18.84-.36 2.01-1.5 3.54-2.94 5.07-4.89.21-.3.3-.27.57-.27.18 0 .36-.09.36-.27zm8.07-7.71c.54.06.78.3.84.84v1.56c-.09.51-.33.75-.84.81H17.94c-.51-.06-.75-.3-.81-.84v-1.53c.06-.54.3-.78.81-.84h10.08zm-10.08-1.47c-.51-.06-.75-.3-.81-.84v-1.44c.06-.54.3-.78.81-.84h10.08c.54.06.78.3.84.84v1.44c-.09.54-.33.78-.84.84H17.94zm4.47 11.67c0 1.95 0 2.61-2.76 2.61-.42 0-.87-.06-1.29-.06-.3 0-.48.15-.48.45 0 .24.12.84.3 1.05.18.24.66.21.96.21 1.92 0 4.92-.09 4.92-2.67 0-.6-.06-1.23-.06-1.83v-4.44c0-.57.24-.81.84-.81h3.57c.3 0 .33.15.45.39.06.15.15.33.78.33s.84-.15.84-.72-.06-1.17-.06-1.74v-6.15c0-.57.03-1.14.03-1.71 0-.99-.48-1.2-1.38-1.2-.57 0-1.17.03-1.74.03H22.8c-.27 0-.51-.12-.51-.42 0-.12 0-.18.06-.27.36-.63.66-1.29.96-1.92.27-.57.51-.69 1.14-.69h4.8c1.26 0 2.76.06 3.42.06.51 0 .57-.27.57-.81s-.06-.81-.57-.81c-.75 0-2.16.06-3.42.06H14.52c-.93 0-1.86-.03-2.79-.03-1.2 0-1.56.27-1.56 1.35 0 .81.03 1.62.03 2.43v6.93c0 2.73-.12 5.82-.99 8.4-.45 1.32-1.26 3.15-2.1 4.2-.12.15-.3.36-.3.54 0 .51.87.93 1.2.93.21 0 .33-.12.45-.27.6-.81 1.38-2.49 1.77-3.45 1.29-3.27 1.56-6.84 1.56-10.32v-8.37c0-.6.24-.84.84-.84h8.46c.09 0 .54.03.54.45 0 .12-.03.18-.06.27-.33.66-.69 1.32-1.08 1.95-.33.51-.6.63-1.2.63h-.63c-.6 0-1.2-.03-1.8-.03-1.14 0-1.38.48-1.38 1.38 0 .42.06.9.06 1.53v6.15c0 .57-.03 1.11-.03 1.68 0 .57.09.78.81.78.27 0 .66-.03.78-.3.15-.27.24-.42.54-.42h3.93c.6 0 .84.24.84.81v4.68z" fill="#FAFF00"/><path d="M32.97 65.013l-.385.32.384-.32zm-3.27-3.39l-.345.362.002.002.343-.364zm-2.46-2.19l-.313.39.004.004.308-.394zm-.96 1.23l-.354.353.012.012.013.011.328-.376zm5.4 5.22l.38-.326-.008-.008-.007-.008-.366.342zm-13.83-6.3l.411.283.005-.006-.416-.277zm-5.25 5.04l.265.424.009-.006-.274-.418zm1.35 1.02l-.3-.401.3.4zm5.07-4.89l.393.308.008-.01.008-.012-.41-.286zm9-8.25l.055-.497-.028-.003h-.027v.5zm.84.84h.5v-.028l-.003-.027-.497.055zm0 1.56l.492.087.008-.044v-.043h-.5zm-.84.81v.5h.029l.029-.004-.058-.496zm-10.08 0l-.059.496.03.004h.028v-.5zm-.81-.84h-.5v.027l.003.028.497-.055zm0-1.53l-.497-.056-.003.028v.028h.5zm.81-.84v-.5h-.03l-.029.003.058.497zm0-1.47l-.059.496.03.004h.028v-.5zm-.81-.84h-.5v.027l.003.028.497-.055zm0-1.44l-.497-.056-.003.028v.028h.5zm.81-.84v-.5h-.03l-.029.003.058.497zm10.08 0l.055-.497-.028-.003h-.027v.5zm.84.84h.5v-.028l-.003-.028-.497.056zm0 1.44l.493.082.006-.04v-.042h-.5zm-.84.84v.5h.029l.029-.004-.058-.496zm-9.84 15.72l.4-.3-.01-.013-.01-.013-.38.326zm10.68-9.15l.464-.186-.008-.02-.01-.018-.447.224zm-6.51-11.85l.415.277.01-.014.009-.015-.434-.248zm.96-1.92l.45.215.001-.001-.451-.214zm-14.1 16.89l.473.161v-.002l-.473-.16zm-2.1 4.2l.39.312-.39-.312zm1.35 1.2l.39.312.006-.007.005-.008-.401-.297zm1.77-3.45l.463.188.002-.005-.466-.183zm11.34-18.81l.447.223.016-.031.01-.034-.473-.158zm-1.08 1.95l.42.271.005-.008-.425-.263zm-3.39 11.82l-.438-.243-.01.02-.01.02.457.203zm16.64 7.92c0-.418-.254-.702-.386-.86l-.769.64c.08.095.117.144.14.184.017.03.014.035.014.036h1zm-.386-.86c-.92-1.103-2.257-2.44-3.311-3.434l-.686.728c1.045.985 2.348 2.289 3.228 3.346l.769-.64zm-3.31-3.432c-.63-.6-1.785-1.665-2.496-2.222l-.617.788c.67.523 1.793 1.558 2.424 2.158l.69-.724zm-2.492-2.219c-.157-.125-.396-.32-.793-.32v1c.017 0 .024.002.027.003l.012.005a.339.339 0 01.043.027c.023.016.049.036.086.066l.625-.78zm-.793-.32c-.384 0-.716.223-.927.444-.213.223-.413.558-.413.927h1c0-.004.003-.033.027-.083a.62.62 0 01.25-.264c.046-.023.067-.023.063-.023v-1zm-1.34 1.37c0 .274.121.484.226.622.098.13.228.249.281.302l.707-.707-.116-.114a.96.96 0 01-.076-.086c-.037-.05-.021-.05-.021-.016h-1zm.532.947a73.437 73.437 0 015.363 5.185l.73-.683a74.388 74.388 0 00-5.436-5.255l-.657.753zm5.349 5.17c.075.087.206.249.36.377.16.134.398.277.71.277v-1c.01 0-.007.008-.07-.046-.072-.06-.136-.138-.24-.26l-.76.651zm1.07.654c.336 0 .667-.19.887-.382.219-.191.483-.52.483-.928h-1c0-.017.004-.005-.02.036a.747.747 0 01-.287.25c-.057.026-.079.024-.063.024v1zm-11.92-6.65a.705.705 0 00-.171-.437 1.68 1.68 0 00-.227-.225 4.902 4.902 0 00-.556-.39 6.952 6.952 0 00-.58-.322 3.06 3.06 0 00-.251-.11.895.895 0 00-.305-.066v1c-.077 0-.112-.022-.049.002.039.014.095.038.167.073.142.07.32.167.493.274.175.108.332.217.439.306a.756.756 0 01.091.087c.028.034-.052-.042-.052-.192h1zm-2.09-1.55a.92.92 0 00-.654.289c-.125.125-.223.279-.273.353l.832.555c.034-.05.058-.088.086-.125a.633.633 0 01.062-.076c.033-.033.01.004-.053.004v-1zm-.922.636c-1.218 1.77-3.329 3.736-5.113 4.906l.549.836c1.876-1.23 4.085-3.284 5.387-5.175l-.823-.567zm-5.103 4.9c-.109.067-.28.172-.413.324a.988.988 0 00-.242.67h1c0-.024.003-.028 0-.021-.002.007-.006.01-.003.008a.325.325 0 01.05-.044l.137-.09-.53-.847zm-.655.994c0 .381.234.709.463.913.238.213.584.397.966.397v-1a.508.508 0 01-.3-.143.542.542 0 01-.111-.133c-.023-.041-.018-.053-.018-.034h-1zm1.43 1.31c.511 0 .9-.281 1.14-.46l-.6-.8c-.242.18-.392.26-.54.26v1zm1.139-.46c2.04-1.522 3.603-2.992 5.164-4.982l-.787-.617c-1.5 1.91-2.996 3.32-4.976 4.798l.598.801zm5.18-5.004a.624.624 0 01.071-.09c.002 0-.015.015-.047.026-.028.01-.043.008-.018.007h.155v-1c-.043 0-.132-.001-.193.001a.925.925 0 00-.286.052c-.233.085-.382.26-.501.431l.82.573zm.16-.056c.165 0 .357-.04.525-.152a.736.736 0 00.335-.618h-1a.27.27 0 01.11-.214c.034-.022.046-.016.03-.016v1zM27.965 53c.212.023.279.073.302.096.023.023.073.09.097.302l.994-.11c-.037-.329-.137-.652-.384-.899s-.57-.347-.898-.383l-.11.994zm.396.343v1.56h1v-1.56h-1zm.007 1.473c-.035.198-.087.271-.119.302-.029.029-.097.076-.287.098l.117.993c.32-.037.627-.14.867-.374.239-.232.352-.534.407-.845l-.985-.174zm-.348.397H17.94v1h10.08v-1zm-10.021.003c-.192-.022-.252-.07-.274-.092-.023-.024-.074-.095-.098-.306l-.993.11c.036.328.136.648.374.893.241.248.556.35.874.388l.117-.993zm-.369-.343v-1.53h-1v1.53h1zm-.003-1.475c.024-.212.075-.282.098-.307.022-.022.082-.07.274-.092l-.117-.993c-.318.038-.633.14-.874.388-.239.246-.338.565-.374.894l.993.11zm.313-.395h10.08v-1H17.94v1zm.059-2.467c-.192-.022-.252-.07-.274-.092-.023-.024-.074-.095-.098-.306l-.993.11c.036.328.136.648.374.893.241.248.556.35.874.388l.117-.993zm-.369-.343v-1.44h-1v1.44h1zm-.003-1.385c.024-.212.075-.282.098-.307.022-.022.082-.07.274-.092l-.117-.993c-.318.038-.633.14-.874.388-.239.246-.338.565-.374.893l.993.111zm.313-.395h10.08v-1H17.94v1zm10.025-.003c.212.023.279.073.302.096.023.023.073.09.097.302l.994-.11c-.037-.329-.137-.652-.384-.899s-.57-.347-.898-.383l-.11.994zm.396.343v1.44h1v-1.44h-1zm.006 1.358c-.036.217-.09.296-.122.328-.028.028-.093.075-.283.097l.117.993c.32-.037.63-.14.873-.383.238-.238.348-.548.402-.871l-.987-.164zm-.346.422H17.94v1h10.08v-1zm-6.11 12.17c0 .498-.001.87-.04 1.167-.037.291-.104.447-.188.547-.08.095-.227.198-.553.276-.33.079-.802.12-1.48.12v1c.703 0 1.267-.041 1.712-.147.45-.108.821-.291 1.086-.605.26-.309.367-.684.415-1.064.048-.375.048-.818.048-1.294h-1zm-2.26 2.11c-.19 0-.39-.014-.611-.03-.214-.014-.45-.03-.68-.03v1a9 9 0 01.611.029c.214.014.45.03.68.03v-1zm-1.29-.06c-.227 0-.485.056-.69.242a.932.932 0 00-.29.708h1c0-.026.003-.03 0-.018a.148.148 0 01-.06.068.054.054 0 01-.01.004s.015-.004.05-.004v-1zm-.98.95c0 .176.04.43.098.66.03.118.068.243.116.36.045.11.11.243.206.355l.76-.65c.005.006-.012-.014-.04-.083a1.8 1.8 0 01-.073-.23 2.067 2.067 0 01-.067-.412h-1zm.4 1.35c.22.294.57.365.772.39.221.029.466.02.588.02v-1c-.179 0-.324.006-.463-.011a.512.512 0 01-.123-.027c-.018-.008.002-.004.026.028l-.8.6zm1.36.41c.95 0 2.262-.019 3.344-.396.549-.19 1.072-.485 1.46-.947.394-.471.616-1.078.616-1.827h-1c0 .54-.154.912-.382 1.184-.236.28-.582.492-1.023.646-.898.313-2.045.34-3.015.34v1zm5.42-3.17c0-.315-.016-.634-.031-.94-.015-.31-.03-.605-.03-.89h-1c0 .314.016.634.031.94.015.309.03.604.03.89h1zm-.06-1.83v-4.44h-1v4.44h1zm0-4.44c0-.11.012-.179.024-.219a.168.168 0 01.014-.035l.005-.006.01-.007a.211.211 0 01.043-.017.89.89 0 01.244-.026v-1c-.35 0-.72.067-.994.332-.277.27-.346.637-.346.978h1zm.34-.31h3.57v-1h-3.57v1zm3.57 0c.035 0 .029.005.002-.006a.216.216 0 01-.084-.057l-.008-.01a5.503 5.503 0 00.092.186l.895-.447a3.61 3.61 0 01-.037-.077l-.044-.088a1.066 1.066 0 00-.15-.228c-.182-.205-.42-.273-.666-.273v1zm-.015.075a.893.893 0 00.388.467c.222.13.508.178.857.178v-1c-.282 0-.356-.043-.351-.04.01.005.025.018.038.037.009.013.01.02-.003-.013l-.929.371zm1.245.645c.316 0 .694-.028.975-.261.311-.259.365-.64.365-.96h-1c0 .25-.052.23-.003.19.015-.013.013-.003-.044.01-.06.012-.151.02-.293.02v1zm1.34-1.22c0-.3-.016-.606-.031-.896-.015-.295-.03-.574-.03-.844h-1c0 .3.016.605.031.895.015.295.03.575.03.845h1zm-.06-1.74v-6.15h-1v6.15h1zm0-6.15c0-.278.007-.556.014-.842.008-.284.015-.576.015-.868h-1c0 .277-.007.556-.014.842-.008.284-.015.575-.015.868h1zm.03-1.71c0-.565-.138-1.057-.55-1.37-.376-.285-.873-.33-1.33-.33v1c.442 0 .635.059.725.127.052.04.154.148.154.573h1zm-1.88-1.7c-.293 0-.592.008-.883.015-.294.007-.58.015-.858.015v1c.293 0 .592-.008.883-.015.294-.008.58-.015.858-.015v-1zm-1.74.03H22.8v1h4.53v-1zm-4.53 0a.27.27 0 01-.067-.007c-.012-.004-.01-.005.002.004.014.01.031.027.043.051.013.025.012.039.012.032h-1c0 .303.131.562.361.728.207.15.45.192.648.192v-1zm-.01.08v-.038-.023c0-.01 0-.007-.001.004a.198.198 0 01-.013.043c-.006.015-.011.022-.01.021l-.832-.555a.814.814 0 00-.129.312c-.017.095-.015.19-.015.236h1zM22.784 46c.372-.651.682-1.335.977-1.953l-.903-.43c-.305.641-.595 1.278-.943 1.887l.869.496zm.977-1.954c.122-.256.195-.317.237-.342.05-.03.151-.062.451-.062v-1c-.329 0-.663.027-.958.2-.303.178-.484.461-.633.776l.903.428zm.689-.404h4.8v-1h-4.8v1zm4.8 0c.623 0 1.307.015 1.922.03.61.014 1.16.03 1.497.03v-1c-.322 0-.852-.015-1.472-.03a82.45 82.45 0 00-1.947-.03v1zm3.42.06c.34 0 .7-.096.908-.45.085-.148.122-.305.14-.44a3.22 3.22 0 00.021-.42h-1c0 .13-.003.22-.012.288-.01.068-.02.08-.013.067a.144.144 0 01.06-.054c.008-.004-.016.009-.105.009v1zm1.07-1.31c0-.14-.004-.286-.022-.421a1.171 1.171 0 00-.14-.439c-.207-.354-.568-.45-.909-.45v1c.089 0 .113.012.105.009a.144.144 0 01-.06-.055c-.007-.012.004 0 .013.068.009.067.013.158.013.288h1zm-1.07-1.31c-.384 0-.932.015-1.532.03-.603.015-1.265.03-1.889.03v1c.637 0 1.31-.015 1.914-.03.608-.016 1.14-.03 1.506-.03v-1zm-3.42.06H14.52v1h14.73v-1zm-14.73 0c-.46 0-.922-.008-1.387-.015a86.857 86.857 0 00-1.403-.015v1c.46 0 .92.007 1.386.015.465.007.934.015 1.404.015v-1zm-2.79-.03c-.596 0-1.16.056-1.553.388-.422.355-.507.9-.507 1.462h1c0-.518.094-.649.152-.698.087-.074.303-.152.908-.152v-1zm-2.06 1.85c0 .41.007.82.015 1.224.007.406.015.806.015 1.206h1c0-.41-.008-.82-.016-1.224-.007-.406-.014-.807-.014-1.206h-1zm.03 2.43v6.93h1v-6.93h-1zm0 6.93c0 2.73-.123 5.745-.964 8.24l.947.32c.9-2.666 1.017-5.83 1.017-8.56h-1zm-.964 8.238c-.444 1.304-1.232 3.068-2.017 4.05l.78.624c.896-1.118 1.728-3.014 2.184-4.35l-.947-.324zm-2.017 4.05c-.05.062-.148.179-.226.301a1.042 1.042 0 00-.183.55h1c0 .037-.01.054-.006.046a.372.372 0 01.032-.057c.042-.065.094-.129.164-.216l-.78-.625zm-.41.852c0 .274.117.501.247.668.131.167.297.303.457.407.161.105.335.19.496.25.152.056.332.105.5.105v-1c.004 0-.049-.004-.153-.043a1.538 1.538 0 01-.297-.15.9.9 0 01-.214-.184c-.043-.056-.035-.072-.035-.053h-1zm1.7 1.43c.457 0 .707-.29.84-.458l-.78-.625a.98.98 0 01-.083.091L8 65.895c.009-.003.013-.002.01-.002v1zm.852-.473c.641-.865 1.441-2.598 1.832-3.56l-.927-.375c-.39.958-1.15 2.586-1.708 3.34l.803.595zm1.834-3.564c1.325-3.359 1.595-7.005 1.595-10.503h-1c0 3.461-.27 6.955-1.526 10.136l.93.367zm1.595-10.503v-8.37h-1v8.37h1zm0-8.37c0-.12.012-.196.026-.242a.2.2 0 01.016-.04c.003-.007.006-.01.006-.01l.009-.006a.193.193 0 01.041-.016.874.874 0 01.242-.026v-1c-.35 0-.724.067-.999.341-.275.275-.341.65-.341.999h1zm.34-.34h8.46v-1h-8.46v1zm8.46 0h.01a.297.297 0 01.075.017c.006.003-.009-.003-.026-.027a.125.125 0 01-.017-.035c-.003-.01-.003-.013-.003-.005h1c0-.2-.055-.383-.163-.536a.923.923 0 00-.355-.297 1.248 1.248 0 00-.521-.117v1zm.04-.05v.01l-.001.002v.002a.515.515 0 01-.01.028l-.024.07.949.316c.017-.052.085-.207.085-.428h-1zm-.008.046c-.325.65-.677 1.296-1.058 1.91l.85.527c.4-.645.767-1.32 1.103-1.99l-.895-.447zm-1.052 1.902c-.144.222-.235.296-.306.333-.077.039-.198.069-.474.069v1c.323 0 .637-.03.928-.179.296-.15.505-.391.691-.68l-.84-.543zm-.78.402h-.63v1h.63v-1zm-.63 0c-.293 0-.587-.008-.888-.015a36.356 36.356 0 00-.912-.015v1c.292 0 .586.007.887.015.299.007.605.015.913.015v-1zm-1.8-.03c-.62 0-1.15.127-1.495.524-.331.38-.386.891-.386 1.356h1c0-.435.066-.614.14-.7.06-.068.22-.18.74-.18v-1zm-1.88 1.88c0 .229.016.472.03.716.015.25.03.514.03.814h1c0-.33-.016-.62-.031-.874-.016-.258-.03-.465-.03-.656h-1zm.06 1.53v6.15h1v-6.15h-1zm0 6.15c0 .277-.008.548-.015.826-.008.277-.016.56-.016.854h1c0-.277.008-.548.015-.827.008-.276.015-.56.015-.853h-1zm-.03 1.68c0 .149.005.309.034.459.03.155.093.33.23.48.272.3.683.34 1.046.34v-1c-.162 0-.254-.012-.305-.025-.044-.011-.027-.016 0 .013.024.027.02.043.01-.002-.01-.05-.015-.13-.015-.265h-1zm1.31 1.28c.145 0 .366-.007.581-.068.213-.06.509-.2.655-.53l-.913-.405c.026-.06.067-.05-.013-.027-.077.022-.186.03-.31.03v1zm1.217-.557c.038-.07.063-.114.086-.148.021-.033.03-.039.026-.036a.116.116 0 01-.036.021c-.012.004-.007 0 .027 0v-1a.947.947 0 00-.662.238c-.152.137-.251.323-.316.439l.875.486zm.103-.163h3.93v-1h-3.93v1zm3.93 0a.89.89 0 01.243.026.211.211 0 01.043.017l.01.007.005.006a.168.168 0 01.014.035c.013.04.024.109.024.219h1c0-.34-.069-.708-.346-.978-.273-.265-.644-.332-.993-.332v1zm.34.31v4.68h1v-4.68h-1z" fill="#fff"/></svg>