<svg width="192" height="45" viewBox="0 0 192 45" fill="none" xmlns="http://www.w3.org/2000/svg">
<path d="M1.9762 40.552V30.232C1.9762 29.944 2.17886 29.8 2.5842 29.8C2.7442 29.8 2.87753 29.8373 2.9842 29.912C3.10153 29.9867 3.1602 30.0933 3.1602 30.232V39.832H8.4082C8.54686 39.832 8.65353 39.8907 8.7282 40.008C8.81353 40.1253 8.8562 40.264 8.8562 40.424C8.8562 40.808 8.70686 41 8.4082 41H2.9042C2.28553 41 1.9762 40.8507 1.9762 40.552ZM9.29495 35.432C9.29495 33.8 9.74828 32.44 10.6549 31.352C11.5723 30.264 12.6603 29.72 13.9189 29.72C15.1776 29.72 16.2389 30.28 17.1029 31.4C17.9776 32.5093 18.4149 33.8373 18.4149 35.384C18.4149 37.0907 17.9883 38.4667 17.1349 39.512C16.2923 40.5467 15.2203 41.0693 13.9189 41.08C12.6603 41.08 11.5723 40.552 10.6549 39.496C9.74828 38.44 9.29495 37.0853 9.29495 35.432ZM10.4789 35.448C10.4789 36.664 10.8149 37.7093 11.4869 38.584C12.1696 39.4587 12.9803 39.896 13.9189 39.896C14.8469 39.896 15.6309 39.4587 16.2709 38.584C16.9109 37.6987 17.2309 36.6427 17.2309 35.416C17.2309 34.2427 16.9056 33.1973 16.2549 32.28C15.6149 31.3627 14.8363 30.904 13.9189 30.904C12.9803 30.904 12.1696 31.368 11.4869 32.296C10.8149 33.224 10.4789 34.2747 10.4789 35.448ZM19.4418 30.392C19.4418 30.232 19.5218 30.0933 19.6818 29.976C19.8418 29.8587 20.0018 29.8 20.1618 29.8C20.3325 29.8 20.4605 29.88 20.5458 30.04L23.9858 39.08L27.4418 30.04C27.5272 29.88 27.6552 29.8 27.8258 29.8C27.9858 29.8 28.1458 29.8587 28.3058 29.976C28.4658 30.0933 28.5458 30.232 28.5458 30.392C28.5458 30.4347 28.5352 30.488 28.5138 30.552L24.7218 40.44C24.6472 40.6 24.5352 40.7333 24.3858 40.84C24.2365 40.9467 24.1032 41 23.9858 41C23.8685 41 23.7352 40.952 23.5858 40.856C23.4365 40.7493 23.3192 40.6107 23.2338 40.44L19.4738 30.552C19.4525 30.488 19.4418 30.4347 19.4418 30.392ZM30.0856 40.184V30.6C30.0856 30.0773 30.2242 29.816 30.5016 29.816H38.7256C38.8642 29.816 38.9709 29.8747 39.0456 29.992C39.1309 30.1093 39.1736 30.248 39.1736 30.408C39.1736 30.8027 39.0242 31 38.7256 31H31.2696V34.136H37.2856C37.4242 34.136 37.5309 34.1947 37.6056 34.312C37.6909 34.4293 37.7336 34.568 37.7336 34.728C37.7336 35.1227 37.5842 35.32 37.2856 35.32H31.2696V39.816H38.7256C38.8642 39.816 38.9709 39.8747 39.0456 39.992C39.1309 40.1093 39.1736 40.248 39.1736 40.408C39.1736 40.8027 39.0242 41 38.7256 41H30.5016C30.3202 41 30.2029 40.936 30.1496 40.808C30.1069 40.68 30.0856 40.472 30.0856 40.184ZM44.2149 38.968C44.2149 38.808 44.2736 38.6427 44.3909 38.472C44.5189 38.3013 44.6629 38.216 44.8229 38.216C44.8763 38.216 44.9136 38.2267 44.9349 38.248C45.3083 38.6427 45.8683 39.0053 46.6149 39.336C47.3723 39.656 48.0816 39.816 48.7429 39.816C50.6523 39.816 51.6069 39.1813 51.6069 37.912C51.6069 37.4853 51.4736 37.1387 51.2069 36.872C50.9509 36.5947 50.6096 36.3867 50.1829 36.248C49.7669 36.1093 49.3029 35.992 48.7909 35.896C48.2896 35.8 47.7829 35.688 47.2709 35.56C46.7589 35.4213 46.2896 35.2507 45.8629 35.048C45.4469 34.8453 45.1056 34.536 44.8389 34.12C44.5829 33.704 44.4549 33.1973 44.4549 32.6C44.4549 31.704 44.8496 31.016 45.6389 30.536C46.4283 30.0453 47.3723 29.8 48.4709 29.8C49.3243 29.8 50.1243 29.944 50.8709 30.232C51.6283 30.5093 52.1829 30.904 52.5349 31.416C52.5456 31.4373 52.5509 31.464 52.5509 31.496C52.5509 31.624 52.4603 31.7573 52.2789 31.896C52.1083 32.024 51.9536 32.088 51.8149 32.088C51.7936 32.088 51.7296 32.0613 51.6229 32.008C50.7803 31.3147 49.7349 30.968 48.4869 30.968C47.7296 30.968 47.0629 31.112 46.4869 31.4C45.9109 31.6773 45.6229 32.104 45.6229 32.68C45.6229 33.0747 45.7509 33.4 46.0069 33.656C46.2736 33.912 46.6149 34.104 47.0309 34.232C47.4576 34.3493 47.9269 34.456 48.4389 34.552C48.9509 34.6373 49.4629 34.7493 49.9749 34.888C50.4869 35.0267 50.9509 35.208 51.3669 35.432C51.7936 35.6453 52.1349 35.9707 52.3909 36.408C52.6576 36.8453 52.7909 37.3787 52.7909 38.008C52.7909 39.992 51.4789 40.984 48.8549 40.984C48.0016 40.984 47.1643 40.8347 46.3429 40.536C45.5216 40.2267 44.8496 39.8053 44.3269 39.272C44.2523 39.1973 44.2149 39.096 44.2149 38.968ZM54.6949 40.552V30.232C54.6949 29.944 54.8549 29.8 55.1749 29.8C55.4096 29.8 55.6389 29.9013 55.8629 30.104L62.6629 36.088V30.232C62.6629 29.944 62.8656 29.8 63.2709 29.8C63.4309 29.8 63.5643 29.8373 63.6709 29.912C63.7883 29.9867 63.8469 30.0933 63.8469 30.232V40.552C63.8469 40.6907 63.7883 40.8027 63.6709 40.888C63.5536 40.9627 63.4149 41 63.2549 41C62.8603 41 62.6629 40.8507 62.6629 40.552V37.64L55.8789 31.672V40.552C55.8789 40.6907 55.8203 40.8027 55.7029 40.888C55.5856 40.9627 55.4469 41 55.2869 41C54.8923 41 54.6949 40.8507 54.6949 40.552ZM66.1793 40.184V30.6C66.1793 30.0773 66.318 29.816 66.5953 29.816H74.8193C74.958 29.816 75.0647 29.8747 75.1393 29.992C75.2247 30.1093 75.2673 30.248 75.2673 30.408C75.2673 30.8027 75.118 31 74.8193 31H67.3633V34.136H73.3793C73.518 34.136 73.6247 34.1947 73.6993 34.312C73.7847 34.4293 73.8273 34.568 73.8273 34.728C73.8273 35.1227 73.678 35.32 73.3793 35.32H67.3633V39.816H74.8193C74.958 39.816 75.0647 39.8747 75.1393 39.992C75.2247 40.1093 75.2673 40.248 75.2673 40.408C75.2673 40.8027 75.118 41 74.8193 41H66.5953C66.414 41 66.2967 40.936 66.2433 40.808C66.2007 40.68 66.1793 40.472 66.1793 40.184ZM76.3373 40.408C76.3373 40.3653 76.348 40.312 76.3693 40.248L77.4573 37.368H76.8013C76.5133 37.368 76.3693 37.1653 76.3693 36.76C76.3693 36.6 76.4067 36.4667 76.4813 36.36C76.556 36.2427 76.6627 36.184 76.8013 36.184H77.9053L80.1293 30.36C80.2147 30.1893 80.332 30.056 80.4813 29.96C80.6307 29.8533 80.764 29.8 80.8813 29.8C80.9987 29.8 81.132 29.8533 81.2813 29.96C81.4307 30.0667 81.5427 30.2 81.6173 30.36L83.8413 36.184H84.8813C85.02 36.184 85.1267 36.2427 85.2013 36.36C85.2867 36.4773 85.3293 36.616 85.3293 36.776C85.3293 37.1707 85.18 37.368 84.8813 37.368H84.3053L85.4093 40.248C85.4307 40.312 85.4413 40.3653 85.4413 40.408C85.4413 40.568 85.3613 40.7067 85.2013 40.824C85.0413 40.9413 84.8813 41 84.7213 41C84.5507 41 84.4227 40.92 84.3373 40.76L83.0413 37.368H78.7373L77.4413 40.76C77.356 40.92 77.228 41 77.0573 41C76.8973 41 76.7373 40.9413 76.5773 40.824C76.4173 40.7067 76.3373 40.568 76.3373 40.408ZM79.1853 36.184H82.5773L80.8813 31.72L79.1853 36.184ZM87.1481 40.552V30.232C87.1481 29.944 87.3507 29.8 87.7561 29.8C87.9161 29.8 88.0494 29.8373 88.1561 29.912C88.2734 29.9867 88.3321 30.0933 88.3321 30.232V35.528L94.0921 29.944C94.1881 29.848 94.2947 29.8 94.4121 29.8C94.5721 29.8 94.7214 29.8747 94.8601 30.024C95.0094 30.1627 95.0841 30.312 95.0841 30.472C95.0841 30.5787 95.0467 30.6693 94.9721 30.744L90.7961 34.776L96.0761 40.184C96.1187 40.2267 96.1401 40.3013 96.1401 40.408C96.1401 40.5573 96.0601 40.696 95.9001 40.824C95.7401 40.9413 95.5747 41 95.4041 41C95.2974 41 95.1801 40.936 95.0521 40.808L89.9161 35.624L88.3321 37.16V40.552C88.3321 40.6907 88.2734 40.8027 88.1561 40.888C88.0387 40.9627 87.9001 41 87.7401 41C87.3454 41 87.1481 40.8507 87.1481 40.552ZM97.1793 40.184V30.6C97.1793 30.0773 97.318 29.816 97.5953 29.816H105.819C105.958 29.816 106.065 29.8747 106.139 29.992C106.225 30.1093 106.267 30.248 106.267 30.408C106.267 30.8027 106.118 31 105.819 31H98.3633V34.136H104.379C104.518 34.136 104.625 34.1947 104.699 34.312C104.785 34.4293 104.827 34.568 104.827 34.728C104.827 35.1227 104.678 35.32 104.379 35.32H98.3633V39.816H105.819C105.958 39.816 106.065 39.8747 106.139 39.992C106.225 40.1093 106.267 40.248 106.267 40.408C106.267 40.8027 106.118 41 105.819 41H97.5953C97.414 41 97.2967 40.936 97.2433 40.808C97.2007 40.68 97.1793 40.472 97.1793 40.184ZM107.929 40.568V30.248C107.929 29.9493 108.127 29.8 108.521 29.8C108.895 29.8 109.081 30.0293 109.081 30.488C110.18 30.0187 111.241 29.784 112.265 29.784C113.716 29.784 114.783 30.1307 115.465 30.824C116.148 31.5173 116.489 32.392 116.489 33.448C116.489 34.9413 115.716 35.9333 114.169 36.424L116.841 40.28C116.905 40.3973 116.937 40.4987 116.937 40.584C116.937 40.712 116.884 40.8133 116.777 40.888C116.681 40.9627 116.553 41 116.393 41C116.063 41 115.801 40.8667 115.609 40.6L112.953 36.696C112.42 36.7707 111.785 36.808 111.049 36.808C110.836 36.808 110.511 36.792 110.073 36.76C109.647 36.728 109.327 36.712 109.113 36.712V40.568C109.113 40.7067 109.055 40.8133 108.937 40.888C108.831 40.9627 108.697 41 108.537 41C108.132 41 107.929 40.856 107.929 40.568ZM109.113 35.336C109.551 35.4747 110.431 35.544 111.753 35.544C112.82 35.544 113.679 35.3573 114.329 34.984C114.98 34.6 115.305 34.0293 115.305 33.272C115.305 32.6213 115.044 32.0773 114.521 31.64C113.999 31.192 113.193 30.968 112.105 30.968C111.167 30.968 110.169 31.2507 109.113 31.816V35.336ZM121.977 30.392C121.977 30.232 122.057 30.0933 122.217 29.976C122.377 29.8587 122.537 29.8 122.697 29.8C122.91 29.8 123.038 29.88 123.081 30.04L125.561 39.08L127.465 30.664C127.518 30.44 127.598 30.2533 127.705 30.104C127.822 29.9547 127.95 29.88 128.089 29.88C128.334 29.88 128.515 30.136 128.633 30.648L130.681 39.08L133.177 30.04C133.23 29.88 133.358 29.8 133.561 29.8C133.721 29.8 133.881 29.8587 134.041 29.976C134.201 30.0933 134.281 30.232 134.281 30.392C134.281 30.4347 134.27 30.488 134.249 30.552L131.417 40.44C131.342 40.6 131.23 40.7333 131.081 40.84C130.931 40.9467 130.798 41 130.681 41C130.563 41 130.43 40.952 130.281 40.856C130.131 40.7493 130.014 40.6107 129.929 40.44L128.073 33.624L126.297 40.44C126.222 40.6 126.11 40.7333 125.961 40.84C125.811 40.9467 125.678 41 125.561 41C125.443 41 125.31 40.952 125.161 40.856C125.011 40.7493 124.894 40.6107 124.809 40.44L122.009 30.552C121.987 30.488 121.977 30.4347 121.977 30.392ZM135.976 40.184V30.6C135.976 30.0773 136.115 29.816 136.392 29.816H144.616C144.755 29.816 144.862 29.8747 144.936 29.992C145.022 30.1093 145.064 30.248 145.064 30.408C145.064 30.8027 144.915 31 144.616 31H137.16V34.136H143.176C143.315 34.136 143.422 34.1947 143.496 34.312C143.582 34.4293 143.624 34.568 143.624 34.728C143.624 35.1227 143.475 35.32 143.176 35.32H137.16V39.816H144.616C144.755 39.816 144.862 39.8747 144.936 39.992C145.022 40.1093 145.064 40.248 145.064 40.408C145.064 40.8027 144.915 41 144.616 41H136.392C136.211 41 136.094 40.936 136.04 40.808C135.998 40.68 135.976 40.472 135.976 40.184ZM146.726 40.552V30.232C146.726 29.944 146.929 29.8 147.334 29.8C147.494 29.8 147.628 29.8373 147.734 29.912C147.852 29.9867 147.91 30.0933 147.91 30.232V31.08C148.678 30.216 149.649 29.784 150.822 29.784C151.612 29.784 152.289 29.9973 152.854 30.424C153.42 30.8507 153.702 31.4427 153.702 32.2C153.702 32.6693 153.574 33.1387 153.318 33.608C153.073 34.0667 152.684 34.3813 152.15 34.552C153.164 34.712 153.937 35.0907 154.47 35.688C155.014 36.2853 155.286 36.9253 155.286 37.608C155.286 38.664 154.945 39.5387 154.262 40.232C153.58 40.9253 152.513 41.272 151.062 41.272C149.814 41.272 148.753 41.0853 147.878 40.712C147.782 40.904 147.596 41 147.318 41C146.924 41 146.726 40.8507 146.726 40.552ZM147.91 39.544C148.593 39.9067 149.59 40.088 150.902 40.088C151.99 40.088 152.796 39.8693 153.318 39.432C153.841 38.984 154.102 38.4347 154.102 37.784C154.102 37.0267 153.777 36.4613 153.126 36.088C152.476 35.704 151.617 35.512 150.55 35.512C150.22 35.512 149.745 35.5227 149.126 35.544C148.508 35.5547 148.102 35.56 147.91 35.56V39.544ZM147.91 34.264C148.337 34.3173 148.812 34.344 149.334 34.344C150.337 34.344 151.116 34.1413 151.67 33.736C152.236 33.32 152.518 32.8347 152.518 32.28C152.518 31.8213 152.364 31.48 152.054 31.256C151.745 31.032 151.334 30.92 150.822 30.92C150.225 30.92 149.665 31.064 149.142 31.352C148.62 31.64 148.209 32.088 147.91 32.696V34.264ZM160.867 40.568V30.248C160.867 29.9493 161.064 29.8 161.459 29.8C161.832 29.8 162.019 30.0293 162.019 30.488C163.117 30.0187 164.179 29.784 165.203 29.784C166.653 29.784 167.72 30.1307 168.403 30.824C169.085 31.5173 169.427 32.392 169.427 33.448C169.427 34.9413 168.653 35.9333 167.107 36.424L169.779 40.28C169.843 40.3973 169.875 40.4987 169.875 40.584C169.875 40.712 169.821 40.8133 169.715 40.888C169.619 40.9627 169.491 41 169.331 41C169 41 168.739 40.8667 168.547 40.6L165.891 36.696C165.357 36.7707 164.723 36.808 163.987 36.808C163.773 36.808 163.448 36.792 163.011 36.76C162.584 36.728 162.264 36.712 162.051 36.712V40.568C162.051 40.7067 161.992 40.8133 161.875 40.888C161.768 40.9627 161.635 41 161.475 41C161.069 41 160.867 40.856 160.867 40.568ZM162.051 35.336C162.488 35.4747 163.368 35.544 164.691 35.544C165.757 35.544 166.616 35.3573 167.267 34.984C167.917 34.6 168.243 34.0293 168.243 33.272C168.243 32.6213 167.981 32.0773 167.459 31.64C166.936 31.192 166.131 30.968 165.043 30.968C164.104 30.968 163.107 31.2507 162.051 31.816V35.336ZM171.231 37.832C171.231 37.128 171.412 36.552 171.775 36.104C172.138 35.656 172.639 35.2453 173.279 34.872L173.231 34.808C172.527 33.9973 172.175 33.112 172.175 32.152C172.175 31.448 172.442 30.8827 172.975 30.456C173.508 30.0187 174.127 29.8 174.831 29.8C175.546 29.8 176.164 30.024 176.687 30.472C177.22 30.92 177.487 31.5333 177.487 32.312C177.487 33.0267 177.284 33.608 176.879 34.056C176.484 34.504 175.93 34.92 175.215 35.304L177.231 37.656L177.823 36.68C177.866 36.6373 177.93 36.616 178.015 36.616C178.196 36.616 178.351 36.7067 178.479 36.888C178.618 37.0587 178.687 37.2133 178.687 37.352C178.687 37.4373 178.666 37.5067 178.623 37.56L177.983 38.52L179.231 39.96C179.295 40.0347 179.327 40.12 179.327 40.216C179.327 40.344 179.247 40.4827 179.087 40.632C178.927 40.7813 178.767 40.856 178.607 40.856C178.49 40.856 178.399 40.8187 178.335 40.744L177.231 39.464C176.356 40.4133 175.386 40.888 174.319 40.888C173.434 40.888 172.698 40.648 172.111 40.168C171.524 39.688 171.231 38.9093 171.231 37.832ZM172.415 37.912C172.415 38.5307 172.607 38.984 172.991 39.272C173.375 39.56 173.85 39.704 174.415 39.704C175.204 39.704 175.908 39.3467 176.527 38.632L174.143 35.864C173.588 36.1627 173.162 36.4667 172.863 36.776C172.564 37.0853 172.415 37.464 172.415 37.912ZM173.327 32.312C173.327 32.8347 173.567 33.3787 174.047 33.944L174.351 34.312C174.671 34.152 174.922 34.0187 175.103 33.912C175.295 33.7947 175.492 33.6507 175.695 33.48C175.908 33.3093 176.063 33.128 176.159 32.936C176.255 32.7333 176.303 32.5093 176.303 32.264C176.303 31.8587 176.159 31.544 175.871 31.32C175.594 31.0853 175.258 30.968 174.863 30.968C174.458 30.968 174.1 31.0907 173.791 31.336C173.482 31.5707 173.327 31.896 173.327 32.312ZM180.757 40.552V30.232C180.757 29.944 180.96 29.8 181.365 29.8C181.525 29.8 181.659 29.8373 181.765 29.912C181.883 29.9867 181.941 30.0933 181.941 30.232V30.36C182.699 29.8693 183.44 29.624 184.165 29.624C185.765 29.624 187.152 30.168 188.325 31.256C189.509 32.3333 190.101 33.688 190.101 35.32C190.101 36.344 189.872 37.2933 189.413 38.168C188.955 39.032 188.261 39.7467 187.333 40.312C186.405 40.8667 185.328 41.144 184.101 41.144C183.28 41.144 182.56 40.9467 181.941 40.552C181.941 40.6907 181.883 40.8027 181.765 40.888C181.648 40.9627 181.509 41 181.349 41C180.955 41 180.757 40.8507 180.757 40.552ZM181.941 39.016C182.528 39.6453 183.275 39.96 184.181 39.96C185.621 39.96 186.768 39.4907 187.621 38.552C188.475 37.6133 188.901 36.5307 188.901 35.304C188.901 34.1093 188.464 33.064 187.589 32.168C186.725 31.2613 185.595 30.808 184.197 30.808C183.44 30.808 182.688 31.0693 181.941 31.592V39.016Z" fill="#FAFF00"/>
<path d="M50.5282 9.32C50.5282 7.688 51.1149 6.33333 52.2882 5.256C53.4722 4.168 54.8642 3.624 56.4642 3.624C57.4242 3.624 58.3149 3.95467 59.1362 4.616C59.2215 4.69067 59.2642 4.78667 59.2642 4.904C59.2642 5.07467 59.1949 5.23467 59.0562 5.384C58.9175 5.52267 58.7735 5.592 58.6242 5.592C58.5175 5.592 58.4269 5.55467 58.3522 5.48C57.8402 5.032 57.2002 4.808 56.4322 4.808C55.0349 4.808 53.8989 5.26133 53.0242 6.168C52.1602 7.064 51.7282 8.10933 51.7282 9.304C51.7282 10.5307 52.1549 11.6133 53.0082 12.552C53.8615 13.4907 55.0082 13.96 56.4482 13.96C57.3869 13.96 58.1495 13.624 58.7362 12.952C58.8535 12.8347 58.9549 12.776 59.0402 12.776C59.2002 12.776 59.3549 12.856 59.5042 13.016C59.6535 13.176 59.7282 13.3307 59.7282 13.48C59.7282 13.576 59.6909 13.6613 59.6162 13.736C58.7949 14.6747 57.7655 15.144 56.5282 15.144C55.3015 15.144 54.2242 14.8667 53.2962 14.312C52.3682 13.7467 51.6749 13.032 51.2162 12.168C50.7575 11.2933 50.5282 10.344 50.5282 9.32ZM60.6506 11.032C60.6506 10.1147 60.8906 9.32533 61.3706 8.664C61.8612 7.992 62.4479 7.50667 63.1306 7.208C63.8239 6.90933 64.5492 6.76 65.3066 6.76C66.3732 6.76 67.3546 7.16533 68.2506 7.976C69.1572 8.776 69.6106 9.78933 69.6106 11.016C69.6106 12.1787 69.2106 13.176 68.4106 14.008C67.6106 14.8293 66.5652 15.24 65.2746 15.24C64.0052 15.24 62.9172 14.8293 62.0106 14.008C61.1039 13.176 60.6506 12.184 60.6506 11.032ZM61.8346 11.048C61.8346 11.8053 62.1812 12.4987 62.8746 13.128C63.5679 13.7467 64.3732 14.056 65.2906 14.056C66.1546 14.056 66.8906 13.7413 67.4986 13.112C68.1172 12.4827 68.4266 11.784 68.4266 11.016C68.4266 10.2693 68.1332 9.57067 67.5466 8.92C66.9599 8.26933 66.2026 7.944 65.2746 7.944C64.1866 7.944 63.3386 8.27467 62.7306 8.936C62.1332 9.59733 61.8346 10.3013 61.8346 11.048ZM71.1744 18.568V7.448C71.1744 7.30933 71.2331 7.20267 71.3504 7.128C71.4678 7.04267 71.6064 7 71.7664 7C72.1611 7 72.3584 7.14933 72.3584 7.448V9.192C73.3718 7.64533 74.8704 6.872 76.8544 6.872C77.7611 6.872 78.5291 7.176 79.1584 7.784C79.7984 8.38133 80.1184 9.08533 80.1184 9.896C80.1184 10.8453 79.8571 11.72 79.3344 12.52C78.8118 13.3093 78.1291 13.9227 77.2864 14.36C76.4544 14.7973 75.5798 15.016 74.6624 15.016C73.7771 15.016 73.0091 14.7227 72.3584 14.136V18.568C72.3584 18.856 72.1558 19 71.7504 19C71.5904 19 71.4518 18.9627 71.3344 18.888C71.2278 18.8133 71.1744 18.7067 71.1744 18.568ZM72.3424 11.848C72.3424 12.4987 72.5984 12.9893 73.1104 13.32C73.6331 13.6507 74.1504 13.816 74.6624 13.816C75.2811 13.816 75.9104 13.6667 76.5504 13.368C77.1904 13.0693 77.7344 12.6267 78.1824 12.04C78.6411 11.4427 78.8704 10.792 78.8704 10.088C78.8704 9.36267 78.6411 8.84 78.1824 8.52C77.7344 8.2 77.1904 8.04 76.5504 8.04C75.9531 8.04 75.3184 8.24267 74.6464 8.648C73.9851 9.04267 73.4358 9.544 72.9984 10.152C72.5611 10.7493 72.3424 11.3147 72.3424 11.848ZM81.5941 11.736V7.416C81.5941 7.27733 81.6474 7.17067 81.7541 7.096C81.8714 7.01067 82.0047 6.968 82.1541 6.968C82.5487 6.968 82.7461 7.11733 82.7461 7.416V11.592C82.7461 11.9867 82.8527 12.3387 83.0661 12.648C83.2794 12.9573 83.5461 13.192 83.8661 13.352C84.1967 13.512 84.5167 13.6347 84.8261 13.72C85.1461 13.7947 85.4394 13.832 85.7061 13.832C86.4634 13.832 87.1781 13.5973 87.8501 13.128C88.5221 12.6587 88.9967 12.0347 89.2741 11.256V7.416C89.2741 7.128 89.4767 6.984 89.8821 6.984C90.0421 6.984 90.1754 7.02133 90.2821 7.096C90.3994 7.17067 90.4581 7.27733 90.4581 7.416V15.08C90.4581 15.7093 90.3141 16.2853 90.0261 16.808C89.7487 17.3413 89.3861 17.768 88.9381 18.088C88.4901 18.408 88.0047 18.6533 87.4821 18.824C86.9594 18.9947 86.4421 19.08 85.9301 19.08C85.0554 19.08 84.1967 18.8773 83.3541 18.472C82.5221 18.0667 82.1007 17.5227 82.0901 16.84C82.0901 16.6693 82.1434 16.536 82.2501 16.44C82.3674 16.3547 82.5061 16.312 82.6661 16.312C82.8367 16.312 82.9861 16.36 83.1141 16.456C83.2421 16.552 83.3061 16.6747 83.3061 16.824C83.3061 17.1653 83.6101 17.4267 84.2181 17.608C84.8261 17.8 85.4234 17.896 86.0101 17.896C86.4901 17.896 86.9647 17.8053 87.4341 17.624C87.9141 17.4533 88.3407 17.1493 88.7141 16.712C89.0874 16.2853 89.2741 15.7787 89.2741 15.192V13.336C88.3034 14.4453 87.0661 15 85.5621 15C84.5167 15 83.5941 14.7013 82.7941 14.104C81.9941 13.496 81.5941 12.7067 81.5941 11.736ZM92.3616 14.552V7.464C92.3616 7.176 92.5642 7.032 92.9696 7.032C93.1296 7.032 93.2629 7.06933 93.3696 7.144C93.4869 7.21867 93.5456 7.32533 93.5456 7.464V9.464C93.9509 8.58933 94.3989 7.928 94.8896 7.48C95.3909 7.032 96.0522 6.808 96.8736 6.808C97.4496 6.808 98.0309 6.88267 98.6176 7.032C98.9269 7.18133 99.0816 7.384 99.0816 7.64C99.0816 7.82133 99.0442 7.94933 98.9696 8.024C98.8949 8.09867 98.7722 8.14667 98.6016 8.168C98.0576 8.04 97.6149 7.976 97.2736 7.976C96.4842 7.976 95.7642 8.36533 95.1136 9.144C94.4629 9.92267 93.9402 10.936 93.5456 12.184V14.552C93.5456 14.6907 93.4869 14.8027 93.3696 14.888C93.2522 14.9627 93.1136 15 92.9536 15C92.5589 15 92.3616 14.8507 92.3616 14.552ZM100.206 14.552V7.432C100.206 7.144 100.408 7 100.814 7C100.974 7 101.107 7.03733 101.214 7.112C101.331 7.18667 101.39 7.29333 101.39 7.432V14.552C101.39 14.6907 101.331 14.8027 101.214 14.888C101.096 14.9627 100.958 15 100.798 15C100.403 15 100.206 14.8507 100.206 14.552ZM100.206 4.952V4.664C100.206 4.376 100.408 4.232 100.814 4.232C100.974 4.232 101.107 4.26933 101.214 4.344C101.331 4.41867 101.39 4.52533 101.39 4.664V4.952C101.39 5.09067 101.331 5.20267 101.214 5.288C101.096 5.36267 100.958 5.4 100.798 5.4C100.403 5.4 100.206 5.25067 100.206 4.952ZM102.963 12.088C102.963 10.6587 103.523 9.42667 104.643 8.392C105.763 7.35733 107.032 6.84 108.451 6.84C109.336 6.84 110.11 7.15467 110.771 7.784V7.416C110.771 7.128 110.974 6.984 111.379 6.984C111.539 6.984 111.672 7.02133 111.779 7.096C111.896 7.17067 111.955 7.27733 111.955 7.416V15.08C111.955 16.328 111.55 17.304 110.739 18.008C109.928 18.7227 108.984 19.08 107.907 19.08C107.054 19.08 106.339 18.9307 105.763 18.632C105.187 18.3333 104.894 17.8373 104.883 17.144C104.883 16.9733 104.936 16.84 105.043 16.744C105.15 16.6587 105.283 16.616 105.443 16.616C105.614 16.616 105.758 16.664 105.875 16.76C106.003 16.856 106.067 16.9787 106.067 17.128C106.067 17.3093 106.115 17.4533 106.211 17.56C106.318 17.6773 106.483 17.7573 106.707 17.8C106.931 17.8427 107.123 17.8693 107.283 17.88C107.454 17.8907 107.688 17.896 107.987 17.896C108.744 17.896 109.395 17.6667 109.939 17.208C110.494 16.7493 110.771 16.0773 110.771 15.192V11.944C109.907 13.064 109.08 13.8747 108.291 14.376C107.512 14.8773 106.707 15.128 105.875 15.128C105.107 15.128 104.43 14.8187 103.843 14.2C103.256 13.5707 102.963 12.8667 102.963 12.088ZM104.115 12.12C104.115 12.728 104.328 13.192 104.755 13.512C105.182 13.8213 105.635 13.976 106.115 13.976C106.67 13.976 107.304 13.704 108.019 13.16C108.734 12.6053 109.326 11.992 109.795 11.32C110.275 10.6373 110.515 10.104 110.515 9.72C110.515 9.4 110.419 9.11733 110.227 8.872C110.046 8.616 109.816 8.42933 109.539 8.312C109.272 8.19467 109.027 8.10933 108.803 8.056C108.579 7.992 108.392 7.96 108.243 7.96C107.198 7.96 106.248 8.38133 105.395 9.224C104.542 10.056 104.115 11.0213 104.115 12.12ZM113.878 14.584V3.416C113.878 3.27733 113.931 3.17067 114.038 3.096C114.155 3.02133 114.294 2.984 114.454 2.984C114.859 2.984 115.062 3.128 115.062 3.416V8.728C115.584 8.17333 116.224 7.736 116.982 7.416C117.739 7.096 118.512 6.936 119.302 6.936C120.315 6.936 121.158 7.23467 121.83 7.832C122.502 8.41867 122.838 9.208 122.838 10.2C122.838 10.296 122.832 10.7867 122.822 11.672C122.822 12.5467 122.822 13.5067 122.822 14.552C122.822 14.6907 122.763 14.8027 122.646 14.888C122.528 14.9627 122.39 15 122.23 15C121.835 15 121.638 14.8507 121.638 14.552V10.344C121.638 9.82133 121.488 9.384 121.19 9.032C120.902 8.66933 120.582 8.424 120.23 8.296C119.878 8.168 119.52 8.104 119.158 8.104C118.368 8.104 117.563 8.34933 116.742 8.84C115.931 9.33067 115.371 9.96 115.062 10.728V14.584C115.062 14.872 114.859 15.016 114.454 15.016C114.294 15.016 114.155 14.9787 114.038 14.904C113.931 14.8293 113.878 14.7227 113.878 14.584ZM124.053 7.592C124.053 7.432 124.09 7.29333 124.165 7.176C124.25 7.05867 124.362 7 124.501 7H125.045V5.032C125.045 4.89333 125.098 4.78667 125.205 4.712C125.322 4.63733 125.461 4.6 125.621 4.6C126.026 4.6 126.229 4.744 126.229 5.032V7H128.789C128.927 7 129.034 7.05867 129.109 7.176C129.183 7.28267 129.221 7.416 129.221 7.576C129.221 7.98133 129.077 8.184 128.789 8.184H126.229V12.008C126.229 13.2027 126.682 13.8 127.589 13.8C127.973 13.8 128.303 13.6933 128.581 13.48C128.869 13.2667 129.013 12.8933 129.013 12.36C129.013 12.2107 129.071 12.088 129.189 11.992C129.317 11.896 129.466 11.848 129.637 11.848C129.797 11.848 129.93 11.896 130.037 11.992C130.143 12.0773 130.197 12.2053 130.197 12.376C130.186 13.2187 129.93 13.864 129.429 14.312C128.938 14.76 128.325 14.984 127.589 14.984C125.893 14.984 125.045 13.848 125.045 11.576V8.184H124.501C124.202 8.184 124.053 7.98667 124.053 7.592ZM131.296 8.28C131.296 7.608 131.408 6.984 131.632 6.408C131.856 5.832 132.15 5.34133 132.512 4.936C132.886 4.52 133.312 4.168 133.792 3.88C134.283 3.58133 134.79 3.36267 135.312 3.224C135.846 3.07467 136.374 3 136.896 3C137.696 3 138.486 3.21867 139.264 3.656C140.054 4.08267 140.715 4.712 141.248 5.544C141.782 6.36533 142.048 7.27733 142.048 8.28C142.048 9.67733 141.563 10.8987 140.592 11.944C139.632 12.9787 138.379 13.496 136.832 13.496C135.328 13.496 134.027 12.9733 132.928 11.928C131.84 10.8827 131.296 9.66667 131.296 8.28ZM132.464 8.344C132.464 9.496 132.891 10.4507 133.744 11.208C134.598 11.9547 135.638 12.328 136.864 12.328C137.974 12.328 138.918 11.9067 139.696 11.064C140.486 10.2213 140.88 9.29867 140.88 8.296C140.88 7.83733 140.79 7.37333 140.608 6.904C140.427 6.424 140.171 5.976 139.84 5.56C139.52 5.144 139.099 4.808 138.576 4.552C138.054 4.28533 137.483 4.152 136.864 4.152C136.139 4.152 135.483 4.29067 134.896 4.568C134.31 4.84533 133.846 5.19733 133.504 5.624C133.163 6.05067 132.902 6.49867 132.72 6.968C132.55 7.43733 132.464 7.896 132.464 8.344ZM133.632 8.392C133.632 7.41067 133.984 6.59467 134.688 5.944C135.403 5.29333 136.24 4.968 137.2 4.968C137.776 4.968 138.31 5.16533 138.8 5.56C138.854 5.61333 138.88 5.672 138.88 5.736C138.88 5.864 138.832 6.04533 138.736 6.28C138.651 6.51467 138.571 6.632 138.496 6.632C138.422 6.632 138.363 6.61067 138.32 6.568C138.022 6.29067 137.638 6.152 137.168 6.152C136.39 6.152 135.803 6.39733 135.408 6.888C135.014 7.368 134.816 7.864 134.816 8.376C134.816 8.93067 135.003 9.40533 135.376 9.8C135.75 10.184 136.352 10.376 137.184 10.376C137.739 10.376 138.198 10.1733 138.56 9.768C138.635 9.69333 138.694 9.656 138.736 9.656C138.832 9.656 138.923 9.77867 139.008 10.024C139.104 10.2693 139.152 10.4507 139.152 10.568C139.152 10.6213 139.131 10.6693 139.088 10.712C138.587 11.2773 137.968 11.56 137.232 11.56C136.112 11.56 135.232 11.2667 134.592 10.68C133.952 10.0827 133.632 9.32 133.632 8.392Z" fill="#FAFF00"/>
</svg>
