<svg width="87" height="41" viewBox="0 0 87 41" fill="none" xmlns="http://www.w3.org/2000/svg">
<path d="M2.1463 0.806501L1.09961 1.57962V8.65368C1.09961 14.5736 1.18818 15.9321 1.64711 16.9703L2.19461 18.2128H6.80407H11.4135L12.0899 16.7052L12.7662 15.1976L12.0577 13.8999L11.3491 12.6021H8.80084H6.25255V6.85894V1.12127L4.73887 0.56352C3.90152 0.254271 3.21715 0.0112902 3.20909 0.0223348C3.20104 0.0278571 2.72601 0.381284 2.1463 0.806501ZM4.48123 1.40291C4.74692 1.86678 3.51505 2.50737 2.87093 2.2423C2.48446 2.08215 2.44823 1.91096 2.73003 1.54097C3.15676 0.983214 4.19137 0.90038 4.48123 1.40291ZM5.61246 7.52713V12.6076H4.80731H4.00216V7.89713C4.00216 3.76645 4.0706 3.14243 4.56577 2.83871C4.88783 2.6399 5.23404 2.47976 5.37091 2.46871C5.50376 2.45767 5.61246 4.72733 5.61246 7.52713ZM3.03196 8.22847L3.19299 13.4802L6.65915 13.5851C8.56332 13.6403 10.1253 13.817 10.1253 13.9717C10.1253 14.8276 9.15913 15.0595 5.54805 15.0595H1.74373V8.91323C1.74373 3.24183 1.78801 2.77796 2.30733 2.87184C2.80652 2.96572 2.88704 3.57317 3.03196 8.22847ZM11.6068 14.8497C11.9208 16.2137 11.0673 17.1359 10.6325 15.8989C10.387 15.1976 10.697 14.0103 11.1277 14.0103C11.2807 14.0103 11.5021 14.3913 11.6068 14.8497ZM9.99648 16.3739C10.234 16.7218 10.4232 17.0973 10.4313 17.2519C10.4393 17.3955 8.72435 17.517 6.59474 17.517C3.11248 17.517 2.7099 17.4507 2.40395 16.8322C2.21474 16.4456 2.06579 16.0646 2.06579 15.9542C2.06579 15.8492 3.75659 15.7609 5.8218 15.7609C9.01018 15.7609 9.63819 15.8492 9.99648 16.3739Z" fill="#DF00A1"/>
<path d="M21.0867 0.320908C17.9023 1.03328 15.6801 3.60667 14.9635 7.4281C14.1866 11.5588 15.6882 15.2256 18.8604 16.943C20.2815 17.7106 21.0062 17.8652 23.164 17.8652C24.9997 17.8652 26.1349 17.6775 27.0488 17.2136C30.523 15.4575 32.2541 10.6863 31.1067 6.03096C30.6397 4.14234 28.7758 1.84506 27.0488 1.03881C25.519 0.320908 22.6326 -0.0269969 21.0867 0.320908ZM27.5319 2.25371C29.4401 3.62876 30.523 5.63888 30.6921 8.12391C30.8531 10.504 30.3177 13.0056 29.4683 13.8284C28.9167 14.3586 28.9127 14.3199 29.3233 13.0608C30.986 7.98033 27.2179 2.06595 22.8902 2.95504C19.3637 3.67846 17.5601 7.88093 19.11 11.7686L19.7944 13.4861L18.8443 12.365C16.1511 9.18419 17.0529 3.50175 20.5352 1.73462C22.5037 0.729558 25.7565 0.972539 27.5319 2.25371ZM16.8476 5.21918C16.3122 6.8814 16.6705 10.1892 17.5803 11.9785C19.0054 14.7783 22.5883 15.9987 24.9876 14.5022C26.618 13.4805 27.6043 11.1391 27.4232 8.72584C27.3427 7.63795 27.0246 6.23529 26.7106 5.57261L26.147 4.3798L26.8878 5.09217C28.7074 6.84274 29.4844 11.2771 28.3773 13.591C25.9779 18.5997 18.7115 18.18 16.2316 12.8897C15.3339 10.9789 15.346 7.59929 16.2558 5.36276C16.9925 3.53488 17.4233 3.43548 16.8476 5.21918ZM24.6656 4.6283C25.3499 5.12531 25.9981 6.05857 26.3886 7.10781C26.9401 8.57674 26.9683 8.99643 26.6261 10.4322C26.0947 12.6743 24.3193 14.5022 22.9546 14.215C20.8733 13.7732 19.1503 11.3765 19.1503 8.92464C19.1503 7.41706 20.1567 5.27993 21.2155 4.54546C22.5118 3.65085 23.3411 3.66742 24.6656 4.6283Z" fill="#DF00A1"/>
<path d="M34.7862 0.878045C34.5165 1.36953 34.0897 2.13161 33.82 2.61205C33.5624 3.06487 33.3369 3.66128 33.3369 3.87113C33.3369 4.09202 34.9714 7.4054 36.9641 11.2268L40.5913 18.1794L42.0566 18.196L43.522 18.2125L47.6162 10.6636C49.8786 6.49422 51.7103 2.92682 51.7103 2.69488C51.7103 2.46294 51.4245 1.76713 51.0662 1.13759C50.4664 0.0773121 50.3134 0 48.7313 0C47.7973 0 46.8875 0.115968 46.6983 0.26507C46.5091 0.40865 45.5309 2.04877 44.5043 3.94292C43.4777 5.83707 42.5478 7.3557 42.423 7.3557C42.2982 7.3557 41.3602 5.71005 40.3256 3.67785L38.4617 0H36.8675C35.5148 0 35.1968 0.132535 34.7862 0.878045ZM36.8353 2.27519C36.3079 3.25815 35.9818 3.50114 35.2089 3.50114C34.2749 3.50114 34.2548 3.47352 34.6936 2.71145C34.9351 2.29175 35.2572 1.71743 35.386 1.4855C35.5189 1.24252 36.0462 1.04924 36.5615 1.04924H37.4955L36.8353 2.27519ZM48.8762 2.18683C48.522 2.81085 46.5614 6.3893 44.5405 10.1003L40.8489 16.8761L37.737 10.9231C36.0181 7.63181 34.6251 4.79888 34.6251 4.58351C34.6251 4.37366 34.9794 4.19695 35.3981 4.19695C36.0422 4.19695 36.5132 4.84305 38.2201 8.10121C39.3393 10.2383 40.4141 12.0607 40.5913 12.127C40.7684 12.1932 42.2861 9.73029 43.9608 6.64884L47.0083 1.04371H48.2643H49.5204L48.8762 2.18683ZM41.7225 9.10627C40.6557 11.1716 40.6557 11.1716 38.7233 7.38883L36.9158 3.85456L37.5921 2.61205L38.2684 1.36953L40.1364 4.95902C41.4729 7.51032 41.9278 8.70866 41.7225 9.10627ZM50.7039 2.03221C51.1387 2.91577 43.3972 17.2682 42.3988 17.4339C42.0124 17.5002 41.7225 17.4394 41.7225 17.3014C41.7225 16.9866 50.096 1.40266 50.2651 1.40266C50.3335 1.40266 50.5308 1.67878 50.7039 2.03221Z" fill="#DF00A1"/>
<path d="M53.6467 7.21212C53.6467 14.358 53.6548 14.4408 54.5002 16.1417L55.3536 17.8591H60.7521C66.1023 17.8591 66.1547 17.8536 66.2795 17.0694C66.3519 16.6332 66.2916 15.7717 66.1507 15.1421L65.893 14.0045L60.1684 13.9162L54.4438 13.8278L54.3633 7.43854L54.2828 1.04924H59.1982H64.1136L64.1297 2.25862L64.1458 3.468L60.261 3.57293L56.3762 3.67785L56.2796 7.46062L56.1829 11.2434L61.0823 11.1385L65.9816 11.0336L66.2714 10.0892C66.4687 9.44865 66.4284 8.83015 66.1426 8.16196C65.728 7.19555 65.6756 7.17899 62.2578 7.0078C58.8399 6.8366 58.7836 6.82004 58.1475 5.78185C57.7812 5.18544 57.5034 4.61664 57.5034 4.46754C57.5034 4.32396 59.3915 4.20247 61.6781 4.20247C64.484 4.20247 65.9333 4.06441 66.0943 3.78277C66.513 3.04831 66.2352 0.88909 65.6595 0.436262C65.2851 0.127013 63.4816 0 59.3874 0H53.6467V7.21212ZM65.5146 2.67831L65.3858 3.67785L65.0436 2.7998C64.6611 1.81684 64.8503 0.8173 65.3214 1.33087C65.5025 1.52968 65.5871 2.12056 65.5146 2.67831ZM58.1475 8.8412C58.1596 10.1003 58.0469 10.5034 57.6805 10.5034C57.2981 10.5034 57.1974 10.0119 57.1974 8.15643C57.1974 6.0193 57.2377 5.8702 57.6644 6.49422C57.918 6.86974 58.1354 7.93002 58.1475 8.8412ZM64.1096 9.19462L64.1901 10.5089H61.6579H59.1258V9.0897V7.67047L61.5774 7.77539L64.0291 7.88032L64.1096 9.19462ZM65.5146 9.68059L65.3858 10.6801L65.0033 9.69715C64.5806 8.60926 64.7819 7.74226 65.3214 8.33315C65.5025 8.53195 65.5871 9.12284 65.5146 9.68059ZM64.1257 15.9318V17.1578H60.0476H55.9696L55.3094 15.9318L54.6491 14.7059H59.3874H64.1257V15.9318ZM65.5146 16.335L65.3858 17.3345L65.0436 16.4564C64.6611 15.4735 64.8503 14.4739 65.3214 14.9875C65.5025 15.1863 65.5871 15.7772 65.5146 16.335Z" fill="#DF00A1"/>
<path d="M4.76244 26.9957C5.12878 26.8797 5.67226 27.1668 6.08288 27.697C6.67869 28.4701 6.78336 28.4867 7.665 27.9068C8.2286 27.5368 8.78415 26.7471 9.11426 25.847L9.68189 24.3063L8.59494 23.5553C7.42345 22.7435 5.20527 22.379 4.02976 22.7987C1.66263 23.6491 0.257647 25.6482 0.269724 28.1498C0.277776 30.4637 0.712555 31.3417 2.60465 32.8382C3.91301 33.8764 4.48064 34.517 4.57323 35.0637C4.61349 35.2901 4.56921 35.5166 4.44038 35.7761C4.30351 36.0577 4.04586 36.2179 3.92106 36.1571C3.71978 36.0633 2.99112 35.9307 2.26246 35.8534C0.942022 35.7098 0.889687 35.743 0.438805 37.0683C0.225441 37.7199 0 38.5649 0 38.8686C0 39.2165 0.181158 39.5313 0.539448 39.7963C1.26811 40.3375 2.68919 40.6357 4.11027 40.6357C5.53136 40.6357 6.95647 40.3375 7.68513 39.6804C8.62715 38.8354 9.2149 37.1125 9.22296 35.1907C9.23101 32.7444 8.5265 31.3914 6.42507 29.8286C4.54908 28.4314 4.28741 27.9731 4.46454 27.3215C4.51285 27.1558 4.61349 27.0454 4.76244 26.9957ZM0.99033 38.2004C0.958125 38.1286 1.03864 37.847 1.23187 37.361C1.3768 36.9965 1.71899 36.7646 1.91625 36.7646C1.9404 36.7646 1.96456 36.7701 1.98066 36.7756C2.02092 36.7922 2.04507 36.8198 2.04105 36.9026C2.02897 37.3113 1.36472 38.239 1.14733 38.239C1.01046 38.239 0.99033 38.2004 0.99033 38.2004ZM1.68678 39.2993C1.65055 39.2662 1.61834 39.2386 1.59419 39.211C1.62237 39.211 1.65055 39.211 1.68678 39.211C1.89612 39.211 2.13364 39.3656 2.19402 39.4981C2.22623 39.5699 2.23428 39.6086 2.24233 39.6196C2.18195 39.6307 1.99274 39.5754 1.68678 39.2993ZM6.35261 23.8259C6.76726 23.8369 7.35099 24.0412 7.68513 24.2897C7.97095 24.5051 8.05549 24.6376 8.07965 24.6873C7.96693 24.7426 7.47579 24.6929 6.73103 24.229C6.51364 24.0909 6.26404 23.9363 6.09899 23.8259C6.18755 23.8203 6.28417 23.8203 6.35261 23.8259ZM5.47097 30.3698C8.08367 32.0762 8.93713 33.7881 8.41781 36.2731C8.16016 37.5156 7.62071 38.4544 6.85582 38.979C5.87355 39.6528 4.55713 39.6251 3.14812 38.8962C2.4557 38.5372 2.41947 38.4378 2.64893 37.5874C2.70932 37.3555 2.81801 37.245 3.19643 37.245C3.39772 37.245 3.67952 37.2782 4.07002 37.3444C5.17709 37.5267 5.8977 37.3665 6.3365 36.8309C6.67467 36.4222 6.8357 35.7927 6.8357 34.9146C6.8357 33.1144 5.95809 31.5957 4.22702 30.3919C3.39772 29.8175 2.98709 29.3426 2.8945 28.8567C2.83009 28.5364 2.90255 28.1829 3.11189 27.7356C3.32928 27.2773 3.63926 26.9791 3.77211 26.9183C3.76004 26.957 3.74393 27.0122 3.70367 27.1006C3.54667 27.4485 3.51044 27.8074 3.58693 28.1774C3.75198 28.9229 4.38402 29.6574 5.47097 30.3698ZM3.6916 25.8194C2.91061 26.2004 2.33493 27.0067 2.16182 27.9786C1.89209 29.4641 2.27051 30.1931 4.08612 31.6786C5.29786 32.667 5.98224 33.5837 6.12314 34.401C6.18755 34.7655 6.14327 35.1024 5.99029 35.4337C5.82121 35.8037 5.56356 36.0467 5.41059 36.0909C5.37033 36.1019 5.3502 36.0964 5.34617 36.0909C5.34617 36.0909 5.33007 36.0467 5.37033 35.9031C5.71252 34.6882 4.90737 33.1917 3.26487 32.0044C1.50562 30.7287 0.974228 29.8838 0.986305 28.3928C0.998382 27.0564 1.48952 25.8857 2.33895 25.1843C2.88243 24.737 3.52252 24.5106 4.18676 24.5106C4.85101 24.5106 5.54343 24.737 6.18353 25.1899C6.79946 25.6206 7.06114 25.9685 6.98867 26.2446C6.92829 26.4655 6.84777 26.5925 6.7431 26.6367C6.56597 26.7085 6.29222 26.5594 5.93393 26.1894C5.33007 25.5654 4.49272 25.4273 3.6916 25.8194Z" fill="#DF00A1"/>
<path d="M20.2252 22.7102L19.1463 22.9587V29.0995L14.6455 22.4782H13.1359C13.0755 22.4782 11.6222 22.4837 11.429 22.7488C11.2397 23.0084 11.2317 29.7014 11.2317 30.4635C11.2317 37.543 11.2599 37.9572 11.8315 39.3212C12.4193 40.7239 12.5159 40.7902 13.8967 40.7902H15.3862L15.5352 34.18L19.8387 41L23.3008 40.7791L23.3652 33.4345C23.4297 26.25 23.4216 26.1671 22.7694 24.5436C22.0045 22.6384 21.6463 22.3788 20.2252 22.7102ZM20.4828 23.8533C20.515 23.8036 20.7445 23.8036 20.8814 23.8036C21.2034 23.8036 21.6302 24.1239 21.8314 24.516C21.9361 24.7203 22.2461 25.3333 22.1857 25.5044C22.1535 25.5873 21.9925 25.6315 21.7026 25.6315C21.292 25.6315 21.0142 25.3498 20.7445 24.654C20.6237 24.3503 20.4587 23.9361 20.4828 23.8533ZM20.2413 25.7806C20.3258 26.0732 20.4224 27.0949 20.4224 28.4313C20.4224 29.9775 20.3419 30.4911 20.2976 30.6623C20.2131 30.3696 20.1165 29.348 20.1165 28.0116C20.1125 26.4653 20.197 25.9462 20.2413 25.7806ZM14.2631 39.9066C14.2268 39.9894 13.9249 39.9894 13.6834 39.9894C13.2043 39.9894 12.9185 39.7354 12.6206 39.0451C12.3951 38.515 12.3146 38.1836 12.379 38.029C12.4394 37.891 12.6447 37.8192 13.0151 37.8192C13.3694 37.8192 13.6632 38.1395 13.9169 38.7966C14.1141 39.2881 14.3114 39.7961 14.2631 39.9066ZM14.4644 37.8965C14.1987 37.1178 14.2027 33.208 14.3718 32.4625C14.4563 32.816 14.5489 33.9315 14.5489 35.5108C14.5529 37.0847 14.5046 37.6756 14.4644 37.8965ZM21.1752 39.9894C20.4104 39.9894 20.0802 39.5808 17.2703 35.1353C16.7469 34.307 14.1262 30.1874 13.8645 30.1874C13.5908 30.1874 13.5344 32.0705 13.5344 33.6498V36.8362H11.9483V30.6015C11.9483 26.8243 11.9483 24.9301 12.061 24.7645C12.0972 24.7755 12.2059 24.9246 12.2623 25.0074C12.5239 25.3774 14.8146 28.8178 17.3669 32.6724C19.8951 36.4938 21.7107 39.3654 21.9442 39.8348C21.8556 39.9011 21.5899 39.9894 21.1752 39.9894ZM22.7211 32.9485C22.7211 35.8588 22.6849 38.1063 22.6487 38.8077C21.5295 37.278 13.4499 25.1289 12.7454 23.9085C12.85 23.8643 13.0996 23.8091 13.478 23.8091C14.2188 23.8091 14.6254 24.273 17.4514 28.3208C17.5843 28.5086 20.664 32.9154 20.9981 32.9154C21.1994 32.9154 21.3926 32.6724 21.3926 29.8008V26.9623H22.7211V32.9485Z" fill="#DF00A1"/>
<path d="M27.3146 25.9794V33.9977L35.0198 33.7824L35.2855 32.711C35.4787 31.9324 35.4385 31.4188 35.1365 30.6733C34.742 29.6959 34.6213 29.6572 31.9361 29.5523L29.263 29.4474L28.3411 26.9568H31.61C34.8225 26.9568 35.1245 26.9347 35.3056 26.1229C35.4989 25.2725 35.2694 23.6876 34.8547 22.9863C34.6575 22.6494 33.8483 22.4782 29.9756 22.4782C29.5086 22.4782 25.3983 22.4837 25.2051 22.7488C25.0118 23.0139 25.0078 29.3093 25.0078 30.0272C25.0078 37.0129 25.0078 37.0129 25.7204 38.7966L26.453 40.619H35.1446L35.3177 39.6581C35.4063 39.1721 35.362 38.2941 35.2251 37.7419L34.9594 36.6705L25.8452 36.3226L25.7204 23.8146H33.3813V25.9794H27.3146ZM34.2589 30.6126C34.3274 30.6733 34.4643 31.1869 34.4643 31.9324C34.4643 32.5951 34.3837 32.8104 34.3596 32.827C34.2911 32.7718 34.1543 32.2527 34.1543 31.5127C34.1543 30.8555 34.2388 30.6347 34.2589 30.6126ZM29.5609 30.4303L33.3209 30.6291L33.4135 32.9872H29.5609V30.4303ZM28.482 29.7235C28.8685 30.7285 28.8806 31.9434 28.6753 32.5288C28.5988 32.7497 28.4941 32.8767 28.3693 32.9098C28.2405 32.943 28.2002 32.9154 28.1761 32.8878C28.0513 32.7442 28.0311 32.0981 28.0311 30.8666C28.0311 29.8726 28.0633 29.1547 28.0955 28.8289C28.1801 28.9945 28.329 29.3093 28.482 29.7235ZM34.3032 37.4602C34.3596 37.4989 34.4643 37.8689 34.4643 38.5647C34.4643 39.1832 34.3878 39.4538 34.3596 39.4814C34.2791 39.4151 34.1543 38.9291 34.1543 38.3548C34.1543 37.8357 34.2589 37.4934 34.3032 37.4602ZM29.8186 37.4657H33.3934V39.6415H27.065L26.6584 38.6972C26.4531 38.2168 26.3081 37.8081 26.2558 37.6259C26.5698 37.5486 27.846 37.4657 29.8186 37.4657ZM34.3032 23.8036C34.3596 23.8422 34.4643 24.2122 34.4643 24.908C34.4643 25.5265 34.3878 25.7971 34.3596 25.8247C34.2791 25.7585 34.1543 25.2725 34.1543 24.6982C34.1543 24.1791 34.2589 23.8367 34.3032 23.8036Z" fill="#DF00A1"/>
<path d="M45.9257 23.1409C45.6318 22.6715 45.1205 22.4782 44.1624 22.4782C42.9788 22.4782 42.7453 22.6163 42.375 23.5109C42.1576 24.041 40.7445 27.4207 39.2228 31.0378L36.437 37.6756L37.1415 39.3212C37.8219 40.9061 37.9024 40.9669 39.2832 40.9669C40.5714 40.9669 40.7687 40.8509 41.1954 39.8458L41.6141 38.8629H46.4772L46.8959 39.8458C47.3347 40.884 47.4957 40.9669 49.0134 40.9669H50.6519L52.0891 37.6093L49.1865 30.6567C47.6044 26.8574 46.1431 23.4888 45.9257 23.1409ZM37.7413 37.0571C37.8742 36.6263 38.9531 33.9315 40.4627 30.3199C43.1036 23.9913 43.2002 23.8036 43.949 23.8036C44.2912 23.8036 44.5368 23.8367 44.6495 23.8698C44.4925 24.3006 43.8162 25.9683 42.9064 28.1496C42.8903 28.1938 41.1069 32.457 41.1069 32.7884C41.1069 33.1639 42.3106 33.2854 43.0271 33.3295C44.5529 33.4179 44.8468 33.5339 45.1406 34.1579L45.4104 34.7322H40.1769L39.5851 36.0244C39.1745 36.9246 38.9008 37.1841 38.3694 37.1841C38.0312 37.1896 37.8098 37.1123 37.7413 37.0571ZM44.1101 32.076C44.1101 31.9379 44.1342 31.8717 44.1221 31.8661C44.1463 31.8772 44.2228 31.96 44.3073 32.1478C44.3395 32.2251 44.3355 32.2637 44.3355 32.2693C44.3315 32.2748 44.3154 32.2858 44.2791 32.2858C44.1825 32.2858 44.1101 32.1975 44.1101 32.076ZM39.1262 40.0115C38.7236 39.9618 38.309 39.6636 38.1117 39.2771C38.003 39.0617 37.7051 38.4874 37.7736 38.3107C37.8299 38.1616 38.2365 38.1615 38.3734 38.1615C38.8202 38.1615 39.1866 38.4321 39.4241 38.9402C39.6334 39.382 39.6979 39.752 39.6818 39.8182C39.569 39.9729 39.3677 40.0391 39.1262 40.0115ZM40.6197 38.9844C40.5392 39.1556 40.503 39.1611 40.503 39.1611C40.4869 39.1611 40.4185 39.1114 40.2454 38.5812C40.0843 38.0898 40.028 37.4547 40.1206 37.1289C40.1528 37.0129 40.2011 36.8362 40.2333 36.7755C40.2896 36.8362 40.4024 37.0405 40.4949 37.2117C40.7043 37.5983 40.8452 38.0235 40.8452 38.1781C40.8452 38.3383 40.7526 38.7027 40.6197 38.9844ZM48.9128 39.9894C48.0593 39.9894 47.8942 39.8569 47.4554 38.8297L46.9039 37.5375H44.1906C41.598 37.5375 41.5899 37.5099 41.3323 36.7423L41.1028 36.0631H43.5867C43.6954 36.0631 46.2719 36.0576 46.4651 35.7925C46.6664 35.5108 45.8935 33.5173 45.6519 32.9154C44.8669 30.955 44.734 30.4027 44.9474 29.9609C45.0923 29.6627 45.2171 29.486 45.2735 29.4308C45.4708 29.7621 46.3363 31.6839 47.5078 34.4727C48.7195 37.3608 49.6012 39.4869 49.734 39.8403C49.6535 39.9011 49.3757 39.9894 48.9128 39.9894ZM50.825 38.2168C50.6921 38.6199 50.5432 38.8684 50.4788 38.9291C50.2694 38.6144 49.2791 36.4441 48.0432 33.4952C47.8057 32.9264 45.6922 27.9122 45.2896 27.9122C44.9836 27.9122 44.3154 29.2651 43.9369 30.1708C43.2485 31.833 42.9426 32.2913 42.5199 32.2913H42.1012L42.5159 31.3636C42.7936 30.7451 43.5787 28.9007 44.2268 27.3323C44.8508 25.8303 45.3339 24.8197 45.4989 24.5601C45.7646 25.0295 46.8999 27.5643 48.3411 30.9936C50.6881 36.5656 51.0383 37.5762 50.825 38.2168Z" fill="#DF00A1"/>
<path d="M60.0237 31.7833C60.0117 31.579 60.5592 30.3862 61.5736 28.7626C62.407 27.4317 63.3409 25.8579 63.4295 25.5762C63.5302 25.2449 63.2725 24.4166 62.9867 23.787C62.4513 22.5997 62.2701 22.4782 61.0624 22.4782C59.8023 22.4782 59.6856 22.5666 58.5221 24.3448L57.4875 25.9352L57.246 22.6605L55.845 22.55C54.5085 22.4451 54.4481 22.4837 53.7718 24.0907C53.0955 25.6977 53.0955 25.6977 53.0955 33.2798V40.9669H54.4723C55.9135 40.9669 56.3362 40.4423 56.9883 37.8633L57.242 36.8638L58.341 38.6254C59.5608 40.5803 59.6091 40.619 61.01 40.619C62.3949 40.619 62.4714 40.5637 62.9746 39.1942L63.502 37.7639L61.7991 34.9255C60.8329 33.3074 60.0841 31.96 60.0237 31.7833ZM60.7685 23.533C60.845 23.4888 60.9577 23.4667 61.0825 23.4667C61.4126 23.4667 61.8474 23.6048 62.0125 23.8312C62.2902 24.2122 62.2741 24.3724 62.2621 24.411C62.25 24.4497 62.1815 24.5767 61.8031 24.5767C61.2798 24.5767 60.7041 24.0631 60.7041 23.5937C60.7041 23.5827 60.7282 23.5551 60.7685 23.533ZM56.5616 25.0516C56.5898 25.2449 56.6099 25.6259 56.626 25.9186C56.6743 26.7801 56.5777 27.3875 56.3362 27.7189C56.2999 27.7686 56.1953 27.9122 56.1349 27.9674C56.1107 27.8293 56.1107 27.4428 56.1107 27.2219C56.1107 26.6144 56.2476 25.7916 56.4167 25.383C56.4529 25.3001 56.5133 25.151 56.5616 25.0516ZM54.7017 24.168C54.9191 23.7373 55.5109 23.4225 55.8853 23.4225C55.9537 23.4225 56.0141 23.4336 56.0624 23.4557C56.1631 23.4999 56.1631 23.5661 56.1631 23.5993C56.1631 24.2454 55.3418 25.2836 54.8346 25.2836C54.5447 25.2836 54.3837 25.2394 54.3515 25.1565C54.2871 24.9853 54.6011 24.3669 54.7017 24.168ZM55.1446 33.4566V40.0115L53.9409 39.8293L53.8161 26.6089H55.4022V28.2214C55.4022 28.9283 55.4425 30.11 55.7202 30.11C55.9698 30.11 57.5801 27.5919 57.9022 27.0838C59.0012 25.3553 59.746 24.3116 59.903 24.1625C59.9634 24.2067 60.1123 24.4166 60.2371 24.7313C60.4183 25.1952 59.9915 26.007 57.8378 29.3204L55.1446 33.4566ZM56.1912 37.1731C56.1792 37.2504 56.1671 37.3222 56.155 37.3939C56.151 37.1731 56.151 36.9135 56.147 36.6264C56.1429 35.8422 56.1631 35.4888 56.1832 35.3341C56.1832 35.3397 56.1872 35.3452 56.1872 35.3452C56.3281 35.671 56.3281 36.3723 56.1912 37.1731ZM60.1767 38.5095C60.1445 38.6641 60.06 38.7745 59.9352 38.8408C59.5407 38.7359 56.4046 34.0861 56.3644 33.578C56.4207 33.3737 57.407 31.7336 58.7919 29.613C60.6034 26.8464 61.3603 25.9131 61.7951 25.9131C61.9601 25.9131 61.9923 25.9407 61.9964 25.9462C62.0447 26.1616 61.1912 27.5201 60.3659 28.8399C60.1405 29.1989 59.9311 29.5302 59.7419 29.8284C57.556 33.2909 57.5117 33.3572 58.6711 35.1464C58.7677 35.2955 58.8724 35.4556 58.9851 35.6379C60.0922 37.3884 60.2452 38.1671 60.1767 38.5095ZM62.2902 38.6586C62.2902 39.128 61.7145 39.6415 61.1912 39.6415C60.8128 39.6415 60.7443 39.5145 60.7323 39.4759C60.7202 39.4372 60.7041 39.2771 60.9819 38.896C61.1469 38.6696 61.5817 38.5315 61.9118 38.5315C62.0406 38.5315 62.1534 38.5536 62.2298 38.5978C62.2661 38.6144 62.2902 38.6365 62.2902 38.6586ZM61.6783 37.5375C61.1469 37.5375 59.5125 34.9862 59.0334 33.5946C58.8643 33.0976 58.9207 32.9761 58.9287 32.9651C59.0656 32.7387 59.2186 32.6006 59.275 32.5785C59.3957 32.6945 59.9231 33.5063 60.6598 34.815C61.3039 35.9582 62.0326 37.2559 61.9561 37.4713C61.948 37.4934 61.9078 37.5375 61.6783 37.5375Z" fill="#DF00A1"/>
<path d="M67.3987 25.9799V33.9596H71.3037C75.4341 33.9596 75.5146 33.9596 75.5146 31.7231C75.5146 29.7461 74.8101 29.4866 72.0203 29.4866H69.476L69.0573 28.4705C68.8198 27.8962 68.6628 27.3881 68.6306 27.2003C68.856 27.0954 69.943 26.9629 71.815 26.9629C74.6732 26.9629 75.2046 26.8635 75.3576 26.3168C75.6354 25.3228 75.5347 24.1741 75.0959 23.3182C74.6853 22.5119 74.5444 22.4898 70.0759 22.4898C69.6048 22.4898 65.4865 22.4953 65.2933 22.7604C65.1041 23.0255 65.1202 29.3982 65.1242 30.1272C65.1484 37.2067 65.1484 37.2067 65.8529 38.8137L66.5735 40.4539H75.3777L75.4623 39.2058C75.5066 38.5431 75.422 37.7203 75.261 37.2896C74.9832 36.5441 74.7095 36.4944 70.3738 36.4115L65.9414 36.3287L65.8166 23.8207H73.5299V25.9799H67.3987ZM74.3149 30.8782C74.323 30.8616 74.3431 30.8119 74.3633 30.8119C74.4075 30.823 74.5605 31.066 74.6571 31.585C74.786 32.3029 74.6934 32.7889 74.6088 32.8386C74.5887 32.8552 74.5243 32.8055 74.4438 32.6343C74.2304 32.1649 74.1861 31.204 74.3149 30.8782ZM69.6411 31.9495C69.6411 31.2924 69.7216 30.7291 69.7699 30.6518C69.8665 30.5689 70.6676 30.4585 71.7465 30.4585H73.5219V32.9822H69.637V31.9495H69.6411ZM68.9285 31.6347C68.9285 32.927 68.8359 32.9877 68.5179 32.9877C68.1797 32.9877 68.1073 32.9877 68.1073 30.7622V28.7908L68.4374 29.3596C68.7514 29.8897 68.9285 30.718 68.9285 31.6347ZM74.327 37.5436C74.3431 37.505 74.3633 37.4608 74.3914 37.4608C74.4438 37.4608 74.6128 37.7203 74.7014 38.1952C74.8262 38.8911 74.7175 39.4322 74.6128 39.493C74.5806 39.5095 74.5162 39.4433 74.4599 39.3163C74.2344 38.8358 74.1942 37.8805 74.327 37.5436ZM69.8987 37.4663H73.5259V39.6421H67.129L66.811 38.7585C66.658 38.3333 66.497 37.886 66.4084 37.6541C66.7506 37.5547 68.0751 37.4663 69.8987 37.4663ZM74.327 23.887C74.3431 23.8483 74.3633 23.8041 74.3914 23.8041C74.4438 23.8041 74.6128 24.0637 74.7014 24.5386C74.8262 25.2344 74.7175 25.7756 74.6128 25.8363C74.5806 25.8529 74.5203 25.7866 74.4599 25.6596C74.2344 25.1737 74.1942 24.2183 74.327 23.887Z" fill="#DF00A1"/>
<path d="M86.0739 35.4779L85.2084 33.8543L85.8807 32.4627C86.8469 30.4581 86.9395 27.0454 86.0699 25.4384C84.838 23.1687 84.1094 22.8263 80.4943 22.8263H77.1006V30.1599C77.1006 37.1843 77.1207 37.4383 77.7487 39.1502L78.413 40.9615H81.384V38.5483C81.384 37.477 81.4443 36.7259 81.5007 36.4774C81.6738 36.6928 82.169 37.477 82.797 38.6477L84.0409 40.9615H86.9999V39.0398C86.9999 37.5046 86.8549 36.9358 86.0739 35.4779ZM80.3816 39.9013C80.3453 39.9896 79.975 39.9896 79.7777 39.9896C79.3027 39.9896 78.9725 39.7411 78.7068 39.1778C78.5619 38.8686 78.3164 38.3495 78.3566 38.2501C78.3928 38.1617 78.7632 38.1617 78.9605 38.1617C79.4355 38.1617 79.7656 38.4102 80.0313 38.9735C80.1762 39.2883 80.4218 39.8019 80.3816 39.9013ZM80.6432 38.0237C80.5909 37.9464 80.5184 37.8194 80.4903 37.7641C80.1118 37.0849 79.9991 34.9257 80.2447 34.4563C80.2648 34.4176 80.2809 34.4066 80.293 34.4066C80.297 34.4066 80.3051 34.4066 80.3091 34.4121C80.3896 34.4452 80.5667 35.003 80.6231 36.494C80.6432 37.0738 80.6674 37.7752 80.6432 38.0237ZM85.2406 39.9896C84.9709 39.9896 84.0208 39.3546 80.9733 33.4623C80.4299 32.4075 80.1118 31.9768 79.8622 31.9768C79.8341 31.9768 79.8019 31.9823 79.7737 31.9933C79.4959 32.1148 79.3953 32.7996 79.3953 34.517V36.8309H77.8091V30.552C77.8091 26.9073 77.8937 24.2014 77.9581 23.9805C78.2278 23.616 82.9459 23.7209 83.7632 24.3008C85.5909 25.593 86.396 28.3265 85.6311 30.6514C85.2004 31.9602 83.9725 33.6887 83.578 33.6887C83.4492 33.6887 83.3686 33.6224 83.3284 33.4899C83.2318 33.1585 83.4129 32.4572 83.8759 31.8553C84.9186 30.5134 85.1681 28.5585 84.4959 26.9957C83.8236 25.4328 82.9943 24.9303 81.074 24.9303H79.3912V30.4581H80.9733C82.3944 30.4581 83.1674 30.1875 83.1674 28.7462C83.1674 27.6859 82.64 27.0343 81.7906 27.0343C81.2189 27.0343 80.615 26.5263 80.611 26.0624C80.7157 25.847 82.1488 25.8581 82.8976 26.3219C83.6665 26.8024 84.1134 27.7522 84.0852 28.8677C84.057 30.0937 83.4773 31.1484 82.5716 31.6233C82.334 31.7448 82.1327 31.8718 82.0724 32.148C81.9596 32.6836 82.4468 33.6114 84.0007 36.4609C84.9749 38.2446 85.6794 39.6417 85.768 39.8737C85.7116 39.9234 85.5305 39.9896 85.2406 39.9896ZM80.3252 27.2773C80.5104 27.4816 80.6714 28.0891 80.6714 28.6082C80.6714 29.0058 80.6231 29.4862 80.3896 29.4862C80.2527 29.4862 80.1078 29.3868 80.1078 28.1885C80.1078 27.9234 80.1078 27.2165 80.1601 27.1392C80.1682 27.1392 80.2044 27.1448 80.3252 27.2773ZM81.384 28.7462C81.384 28.4922 81.4162 28.1664 81.5611 28.0559C81.5973 28.0283 81.6416 28.0118 81.6939 28.0118C81.8308 28.0118 82.012 28.1112 82.2253 28.2989C82.3864 28.4425 82.4468 28.6634 82.3944 28.9119C82.334 29.188 82.1207 29.4807 81.7946 29.4807C81.5208 29.4862 81.384 29.3702 81.384 28.7462ZM85.2285 36.7536C84.6005 35.616 84.2905 34.749 84.3107 34.5999C84.3469 34.517 84.3992 34.4066 84.4153 34.3955C84.512 34.4121 84.8501 35.0748 85.4016 36.1792C86.0337 37.4383 86.2028 38.0458 86.2229 38.239C86.1102 38.1507 85.8042 37.7973 85.2285 36.7536Z" fill="#DF00A1"/>
</svg>
