<svg width="62" height="282" viewBox="0 0 62 282" fill="none" xmlns="http://www.w3.org/2000/svg">
<path d="M15.636 262.344L15.636 267.648L14.44 267.648C13.2267 267.648 12.1867 267.943 11.32 268.532C10.4187 269.087 9.968 270.04 9.968 271.392C9.968 272.12 10.1067 272.709 10.384 273.16C10.6613 273.611 11.008 273.975 11.424 274.252C11.8747 274.529 12.3947 274.72 12.984 274.824C13.5387 274.928 14.128 274.98 14.752 274.98C15.48 274.98 16.0867 274.963 16.572 274.928C17.0573 274.859 17.4907 274.72 17.872 274.512C18.2533 274.304 18.5827 274.009 18.86 273.628C19.1373 273.212 19.4147 272.657 19.692 271.964L21.304 267.908C21.7547 266.729 22.292 265.776 22.916 265.048C23.5053 264.32 24.1987 263.748 24.996 263.332C25.828 262.951 26.7813 262.691 27.856 262.552C28.896 262.413 30.092 262.344 31.444 262.344C33.004 262.344 34.46 262.5 35.812 262.812C37.1293 263.124 38.256 263.627 39.192 264.32C40.1627 265.048 40.9253 266.001 41.48 267.18C42.0347 268.359 42.312 269.797 42.312 271.496C42.312 272.779 42.0867 273.975 41.636 275.084C41.1853 276.193 40.5613 277.147 39.764 277.944C38.9667 278.741 38.048 279.383 37.008 279.868C35.9333 280.319 34.772 280.544 33.524 280.544L31.548 280.544L31.548 275.24L33.212 275.24C34.1827 275.24 35.0667 274.963 35.864 274.408C36.6267 273.819 37.008 272.848 37.008 271.496C37.008 270.595 36.8867 269.901 36.644 269.416C36.3667 268.896 35.9853 268.497 35.5 268.22C35.0147 267.943 34.4427 267.787 33.784 267.752C33.0907 267.683 32.328 267.648 31.496 267.648C30.5253 267.648 29.728 267.683 29.104 267.752C28.48 267.821 27.9773 267.96 27.596 268.168C27.2147 268.411 26.9027 268.74 26.66 269.156C26.4173 269.537 26.1573 270.057 25.88 270.716L24.32 274.512C23.384 276.8 22.1533 278.343 20.628 279.14C19.068 279.903 17.1267 280.284 14.804 280.284C13.4173 280.284 12.1 280.093 10.852 279.712C9.604 279.331 8.52933 278.759 7.628 277.996C6.72666 277.268 6.016 276.349 5.496 275.24C4.94133 274.096 4.664 272.744 4.664 271.184C4.664 269.867 4.90666 268.671 5.392 267.596C5.87733 266.487 6.51866 265.533 7.316 264.736C8.98 263.141 10.8867 262.344 13.036 262.344L15.636 262.344ZM42 258.379L4.976 258.379L4.976 250.423C4.976 248.967 5.16666 247.684 5.548 246.575C5.92933 245.466 6.60533 244.46 7.576 243.559C8.54666 242.658 9.69066 242.034 11.008 241.687C12.2907 241.34 14.0413 241.167 16.26 241.167C17.924 241.167 19.328 241.271 20.472 241.479C21.616 241.652 22.6907 242.051 23.696 242.675C24.9093 243.403 25.8627 244.374 26.556 245.587C27.2147 246.8 27.544 248.395 27.544 250.371L27.544 253.075L42 253.075L42 258.379ZM9.968 253.075L22.552 253.075L22.552 250.527C22.552 249.452 22.396 248.62 22.084 248.031C21.772 247.442 21.3387 247.008 20.784 246.731C20.264 246.454 19.6227 246.298 18.86 246.263C18.0973 246.194 17.248 246.159 16.312 246.159C15.4453 246.159 14.6307 246.176 13.868 246.211C13.0707 246.246 12.3773 246.402 11.788 246.679C11.1987 246.956 10.748 247.372 10.436 247.927C10.124 248.482 9.968 249.279 9.968 250.319L9.968 253.075ZM42 237.203L4.976 237.203L4.976 221.395L9.96799 221.395L9.96799 231.899L20.836 231.899L20.836 222.747L25.828 222.747L25.828 231.899L36.696 231.899L36.696 221.395L42 221.395L42 237.203ZM29.052 207.245L15.636 209.845L15.636 209.949L29.052 212.549L29.052 207.245ZM42 220.349L4.976 212.081L4.976 207.661L42 199.393L42 204.697L34.044 206.257L34.044 213.485L42 215.045L42 220.349ZM42 196.781L4.976 196.781L4.976 191.477L21.876 191.477L21.876 191.373L4.976 183.625L4.97599 178.321L19.796 185.549L42 176.969L42 182.585L25.568 188.617L30.924 191.477L42 191.477L42 196.781ZM42 174.641L4.97599 174.641L4.97599 158.833L9.96799 158.833L9.96799 169.337L20.836 169.337L20.836 160.185L25.828 160.185L25.828 169.337L36.696 169.337L36.696 158.833L42 158.833L42 174.641ZM9.96799 150.091L21.512 150.091L21.512 147.075C21.512 146.139 21.3907 145.393 21.148 144.839C20.8707 144.284 20.4893 143.851 20.004 143.539C19.5187 143.261 18.9293 143.071 18.236 142.967C17.508 142.863 16.676 142.811 15.74 142.811C14.804 142.811 13.9893 142.863 13.296 142.967C12.568 143.071 11.944 143.279 11.424 143.591C10.4533 144.249 9.96799 145.497 9.96799 147.335L9.96799 150.091ZM42 155.395L4.97599 155.395L4.97599 146.867C4.97599 140.627 8.59866 137.507 15.844 137.507C18.028 137.507 19.8827 137.853 21.408 138.547C22.9333 139.205 24.164 140.384 25.1 142.083L42 136.363L42 141.979L26.192 146.919L26.192 150.091L42 150.091L42 155.395Z" fill="#E32D6F"/>
<path d="M10.3641 18.4586L10.3777 18.4651L10.3916 18.4711C11.4853 18.9499 12.7076 19.1768 14.0387 19.1768L35.2398 19.1768C36.5709 19.1768 37.7932 18.9499 38.8869 18.4711L38.9007 18.4651L38.9144 18.4586C39.9687 17.9586 40.8847 17.2983 41.6519 16.4755C42.4138 15.6583 43.0043 14.7234 43.4216 13.6771L43.4296 13.6571L43.4368 13.6367C43.8124 12.5623 44 11.449 44 10.3017C44 9.15456 43.8124 8.0544 43.4329 7.00773L43.4296 6.99865L43.4261 6.98964C43.0103 5.90838 42.4194 4.95125 41.6519 4.12802C40.882 3.30228 39.9612 2.65656 38.9006 2.1902C37.8034 1.67263 36.5758 1.42672 35.2398 1.42672L14.0387 1.42672C12.7027 1.42672 11.4751 1.67263 10.3779 2.1902C9.3173 2.65656 8.39651 3.30228 7.62663 4.12802L8.33529 4.78875L7.62663 4.12802C6.85755 4.95288 6.28195 5.91313 5.89961 6.9982C5.48448 8.04644 5.2785 9.15017 5.2785 10.3017C5.2785 11.4575 5.48592 12.5778 5.89963 13.6567C6.28365 14.7121 6.86071 15.654 7.62663 16.4755L7.62663 16.4755C8.39378 17.2983 9.30982 17.9586 10.3641 18.4586ZM12.9028 9.16039L12.9153 9.14849L12.9274 9.13616C13.193 8.86482 13.5343 8.71127 14.0387 8.71127L35.2398 8.71127C35.7372 8.71127 36.1072 8.86159 36.4137 9.14835C36.6738 9.41991 36.8265 9.77632 36.8265 10.3017C36.8265 10.8272 36.6738 11.1836 36.4137 11.4551C36.1072 11.7419 35.7372 11.8922 35.2398 11.8922L14.0387 11.8922C13.5343 11.8922 13.193 11.7387 12.9274 11.4673L12.9153 11.455L12.9028 11.4431C12.6114 11.1652 12.452 10.8138 12.452 10.3017C12.452 9.78973 12.6114 9.43823 12.9028 9.16039Z" fill="white" stroke="white" stroke-width="2"/>
<path d="M42.6957 31.6664L43.6957 31.6664L43.6957 30.6664L43.6957 25.3818L43.6957 24.3818L42.6957 24.3818L6.58285 24.3818L5.58285 24.3818L5.58285 25.3818L5.58285 30.6664L5.58286 30.9889L5.77126 31.2506L9.57528 36.5351L9.87457 36.9509L10.3869 36.9509L15.8647 36.9509L17.8166 36.9509L16.6763 35.3667L14.0126 31.6664L42.6957 31.6664Z" fill="white" stroke="white" stroke-width="2"/>
<path d="M42.6957 46.6158L43.6957 46.6158L43.6957 45.6158L43.6957 40.3313L43.6957 39.3313L42.6957 39.3313L37.5222 39.3313L36.5222 39.3313L36.5222 40.3313L36.5222 45.6158L36.5222 46.6158L37.5222 46.6158L42.6957 46.6158Z" fill="white" stroke="white" stroke-width="2"/>
<path d="M42.6957 58.0192L43.6957 58.0192L43.6957 57.0192L43.6957 51.7346L43.6957 50.7346L42.6957 50.7346L6.58285 50.7346L5.58285 50.7346L5.58285 51.7346L5.58286 57.0192L5.58286 58.0192L6.58286 58.0192L42.6957 58.0192Z" fill="white" stroke="white" stroke-width="2"/>
<path d="M14.8425 69.1363L14.8425 69.1363L14.8496 69.1352C15.4623 69.0413 16.2041 68.9913 17.082 68.9913C17.9573 68.9913 18.7179 69.041 19.3686 69.1358C19.9355 69.223 20.3759 69.3744 20.7137 69.5669C21.0088 69.7661 21.2547 70.0438 21.4472 70.4282C21.6042 70.8078 21.7119 71.3927 21.7119 72.2397L21.7119 74.2446L12.452 74.2446L12.452 72.4987C12.452 70.8206 12.8826 69.9922 13.4199 69.6058C13.7866 69.3864 14.253 69.2223 14.8425 69.1363ZM42.6957 81.5292L43.6957 81.5292L43.6957 80.5292L43.6957 75.2446L43.6957 74.2446L42.6957 74.2446L28.2767 74.2446L28.2767 72.8148L42.9998 68.115L43.6957 67.8929L43.6957 67.1624L43.6957 61.567L43.6957 60.1632L42.3689 60.6219L26.658 66.0536C25.7146 64.5815 24.5071 63.4888 23.0229 62.8319C21.3717 62.0672 19.4135 61.7068 17.1834 61.7068C13.525 61.7068 10.5944 62.5086 8.57247 64.2874C6.52607 66.0877 5.58285 68.7341 5.58285 72.0324L5.58286 80.5292L5.58286 81.5292L6.58286 81.5292L42.6957 81.5292Z" fill="white" stroke="white" stroke-width="2"/>
<path d="M42.6957 102L43.6957 102L43.6957 101L43.6957 95.7154L43.6957 94.7154L42.6957 94.7154L28.2767 94.7154L28.2767 86.597L28.2767 85.597L27.2767 85.597L22.4076 85.597L21.4076 85.597L21.4076 86.597L21.4076 94.7154L12.452 94.7155L12.452 85.25L12.452 84.25L11.452 84.25L6.58285 84.25L5.58285 84.25L5.58285 85.25L5.58286 101L5.58286 102L6.58286 102L42.6957 102Z" fill="white" stroke="white" stroke-width="2"/>
<path d="M8.29985 16.5801L8.30668 16.5833L8.31359 16.5863C9.33382 17.0329 10.486 17.25 11.7602 17.25L32.9613 17.25C34.2355 17.25 35.3877 17.0329 36.4079 16.5863L36.4148 16.5833L36.4216 16.5801C37.4222 16.1055 38.286 15.4818 39.0077 14.7077C39.7267 13.9365 40.2841 13.0546 40.6787 12.0652L40.6827 12.0551L40.6863 12.0449C41.0432 11.0242 41.2215 9.96671 41.2215 8.87498C41.2215 7.7833 41.0432 6.74103 40.6843 5.75141L40.6844 5.75138L40.681 5.74237C40.2871 4.71818 39.7296 3.81651 39.0077 3.04223C38.2846 2.26668 37.4184 1.65887 36.4148 1.21847C35.3927 0.735146 34.2379 0.499962 32.9613 0.499962L11.7602 0.499963C10.4836 0.499963 9.32877 0.735147 8.30672 1.21847C7.30308 1.65887 6.43691 2.26669 5.71383 3.04223L6.06555 3.37016L5.71383 3.04223C4.99114 3.81734 4.44974 4.72058 4.08951 5.74664C3.69597 6.73705 3.5 7.78112 3.5 8.87499C3.5 9.97093 3.69669 11.0319 4.08952 12.0549C4.4506 13.0489 4.99273 13.9343 5.71383 14.7077L6.07953 14.3668L5.71383 14.7077C6.43554 15.4818 7.29932 16.1055 8.29985 16.5801ZM10.2793 7.37174L10.2855 7.36579L10.2916 7.35963C10.6611 6.98218 11.136 6.78451 11.7602 6.78451L32.9613 6.78451C33.5822 6.78451 34.0797 6.98064 34.4866 7.36575C34.8531 7.74323 35.048 8.23187 35.048 8.87498C35.048 9.51809 34.8531 10.0067 34.4866 10.3842C34.0797 10.7693 33.5822 10.9654 32.9613 10.9654L11.7602 10.9654C11.136 10.9654 10.6611 10.7678 10.2916 10.3903L10.2855 10.3842L10.2793 10.3782C9.87997 9.99753 9.67347 9.51092 9.67347 8.87499C9.67347 8.23904 9.87997 7.75244 10.2793 7.37174Z" fill="#FF7A00" stroke="white"/>
<path d="M40.4172 29.7396L40.9172 29.7396L40.9172 29.2396L40.9172 23.9551L40.9172 23.4551L40.4172 23.4551L4.30432 23.4551L3.80432 23.4551L3.80432 23.9551L3.80432 29.2396L3.80432 29.4009L3.89852 29.5317L7.70254 34.8163L7.85219 35.0242L8.10834 35.0242L13.5861 35.0242L14.5621 35.0242L13.9919 34.2321L10.7581 29.7396L40.4172 29.7396Z" fill="#FF17E8" stroke="white"/>
<path d="M40.4172 44.6891L40.9172 44.6891L40.9172 44.1891L40.9172 38.9045L40.9172 38.4045L40.4172 38.4045L35.2437 38.4045L34.7437 38.4045L34.7437 38.9045L34.7437 44.1891L34.7437 44.6891L35.2437 44.6891L40.4172 44.6891Z" fill="#FFB800" stroke="white"/>
<path d="M40.4172 56.0924L40.9172 56.0924L40.9172 55.5924L40.9172 50.3079L40.9172 49.8079L40.4172 49.8079L4.30432 49.8079L3.80432 49.8079L3.80432 50.3079L3.80432 55.5924L3.80432 56.0924L4.30432 56.0924L40.4172 56.0924Z" fill="#15E62A" stroke="white"/>
<path d="M12.4918 67.2148L12.4918 67.2148L12.4953 67.2142C13.1398 67.1155 13.908 67.0646 14.8034 67.0646C15.6976 67.0646 16.4836 67.1153 17.164 67.2145C17.7863 67.31 18.2938 67.4809 18.699 67.715C19.0828 67.9699 19.3918 68.3243 19.6236 68.7935C19.8201 69.2586 19.9334 69.922 19.9334 70.8129L19.9334 73.3179L9.67347 73.3179L9.67347 71.072C9.67347 69.3152 10.1267 68.281 10.8671 67.7606C11.3038 67.4956 11.8412 67.3097 12.4918 67.2148ZM40.4172 79.6024L40.9172 79.6024L40.9172 79.1024L40.9172 73.8179L40.9172 73.3179L40.4172 73.3179L25.4982 73.3179L25.4982 71.0227L40.5692 66.2119L40.9172 66.1009L40.9172 65.7356L40.9172 60.1402L40.9172 59.4383L40.2538 59.6676L24.1637 65.2305C23.2345 63.6544 22.0286 62.5193 20.5382 61.8607C18.9686 61.1329 17.085 60.78 14.9049 60.78C11.3089 60.78 8.51855 61.5695 6.6242 63.236C4.71762 64.9133 3.80432 67.4022 3.80432 70.6057L3.80432 79.1024L3.80432 79.6024L4.30432 79.6024L40.4172 79.6024Z" fill="#00B2FF" stroke="white"/>
<path d="M40.4172 100.073L40.9172 100.073L40.9172 99.5732L40.9172 94.2887L40.9172 93.7887L40.4172 93.7887L25.4982 93.7887L25.4982 85.1703L25.4982 84.6703L24.9982 84.6703L20.129 84.6703L19.629 84.6703L19.629 85.1703L19.6291 93.7887L9.67347 93.7887L9.67347 83.8232L9.67347 83.3232L9.17347 83.3232L4.30432 83.3232L3.80432 83.3232L3.80432 83.8232L3.80432 99.5732L3.80432 100.073L4.30432 100.073L40.4172 100.073Z" fill="#FF2C2C" stroke="white"/>
</svg>
