<svg width="62" height="283" viewBox="0 0 62 283" fill="none" xmlns="http://www.w3.org/2000/svg">
<path d="M46.364 155.656L46.364 150.352L47.56 150.352C48.7733 150.352 49.8133 150.057 50.68 149.468C51.5813 148.913 52.032 147.96 52.032 146.608C52.032 145.88 51.8933 145.291 51.616 144.84C51.3387 144.389 50.992 144.025 50.576 143.748C50.1253 143.471 49.6053 143.28 49.016 143.176C48.4613 143.072 47.872 143.02 47.248 143.02C46.52 143.02 45.9133 143.037 45.428 143.072C44.9427 143.141 44.5093 143.28 44.128 143.488C43.7467 143.696 43.4173 143.991 43.14 144.372C42.8627 144.788 42.5853 145.343 42.308 146.036L40.696 150.092C40.2453 151.271 39.708 152.224 39.084 152.952C38.4947 153.68 37.8013 154.252 37.004 154.668C36.172 155.049 35.2187 155.309 34.144 155.448C33.104 155.587 31.908 155.656 30.556 155.656C28.996 155.656 27.54 155.5 26.188 155.188C24.8707 154.876 23.744 154.373 22.808 153.68C21.8373 152.952 21.0747 151.999 20.52 150.82C19.9653 149.641 19.688 148.203 19.688 146.504C19.688 145.221 19.9133 144.025 20.364 142.916C20.8147 141.807 21.4387 140.853 22.236 140.056C23.0333 139.259 23.952 138.617 24.992 138.132C26.0667 137.681 27.228 137.456 28.476 137.456L30.452 137.456L30.452 142.76L28.788 142.76C27.8173 142.76 26.9333 143.037 26.136 143.592C25.3733 144.181 24.992 145.152 24.992 146.504C24.992 147.405 25.1133 148.099 25.356 148.584C25.6333 149.104 26.0147 149.503 26.5 149.78C26.9853 150.057 27.5573 150.213 28.216 150.248C28.9093 150.317 29.672 150.352 30.504 150.352C31.4747 150.352 32.272 150.317 32.896 150.248C33.52 150.179 34.0227 150.04 34.404 149.832C34.7853 149.589 35.0973 149.26 35.34 148.844C35.5827 148.463 35.8427 147.943 36.12 147.284L37.68 143.488C38.616 141.2 39.8467 139.657 41.372 138.86C42.932 138.097 44.8733 137.716 47.196 137.716C48.5827 137.716 49.9 137.907 51.148 138.288C52.396 138.669 53.4707 139.241 54.372 140.004C55.2733 140.732 55.984 141.651 56.504 142.76C57.0587 143.904 57.336 145.256 57.336 146.816C57.336 148.133 57.0933 149.329 56.608 150.404C56.1227 151.513 55.4813 152.467 54.684 153.264C53.02 154.859 51.1133 155.656 48.964 155.656L46.364 155.656ZM20 159.621L57.024 159.621L57.024 167.577C57.024 169.033 56.8333 170.316 56.452 171.425C56.0707 172.534 55.3947 173.54 54.424 174.441C53.4533 175.342 52.3093 175.966 50.992 176.313C49.7093 176.66 47.9587 176.833 45.74 176.833C44.076 176.833 42.672 176.729 41.528 176.521C40.384 176.348 39.3093 175.949 38.304 175.325C37.0907 174.597 36.1373 173.626 35.444 172.413C34.7853 171.2 34.456 169.605 34.456 167.629L34.456 164.925L20 164.925L20 159.621ZM52.032 164.925L39.448 164.925L39.448 167.473C39.448 168.548 39.604 169.38 39.916 169.969C40.228 170.558 40.6613 170.992 41.216 171.269C41.736 171.546 42.3773 171.702 43.14 171.737C43.9027 171.806 44.752 171.841 45.688 171.841C46.5547 171.841 47.3693 171.824 48.132 171.789C48.9293 171.754 49.6227 171.598 50.212 171.321C50.8013 171.044 51.252 170.628 51.564 170.073C51.876 169.518 52.032 168.721 52.032 167.681L52.032 164.925ZM20 180.797L57.024 180.797L57.024 196.605L52.032 196.605L52.032 186.101L41.164 186.101L41.164 195.253L36.172 195.253L36.172 186.101L25.304 186.101L25.304 196.605L20 196.605L20 180.797ZM32.948 210.755L46.364 208.155L46.364 208.051L32.948 205.451L32.948 210.755ZM20 197.651L57.024 205.919L57.024 210.339L20 218.607L20 213.303L27.956 211.743L27.956 204.515L20 202.955L20 197.651ZM20 221.219L57.024 221.219L57.024 226.523L40.124 226.523L40.124 226.627L57.024 234.375L57.024 239.679L42.204 232.451L20 241.031L20 235.415L36.432 229.383L31.076 226.523L20 226.523L20 221.219ZM20 243.359L57.024 243.359L57.024 259.167L52.032 259.167L52.032 248.663L41.164 248.663L41.164 257.815L36.172 257.815L36.172 248.663L25.304 248.663L25.304 259.167L20 259.167L20 243.359ZM52.032 267.909L40.488 267.909L40.488 270.925C40.488 271.861 40.6093 272.607 40.852 273.161C41.1293 273.716 41.5107 274.149 41.996 274.461C42.4813 274.739 43.0707 274.929 43.764 275.033C44.492 275.137 45.324 275.189 46.26 275.189C47.196 275.189 48.0107 275.137 48.704 275.033C49.432 274.929 50.056 274.721 50.576 274.409C51.5467 273.751 52.032 272.503 52.032 270.665L52.032 267.909ZM20 262.605L57.024 262.605L57.024 271.133C57.024 277.373 53.4013 280.493 46.156 280.493C43.972 280.493 42.1173 280.147 40.592 279.453C39.0667 278.795 37.836 277.616 36.9 275.917L20 281.637L20 276.021L35.808 271.081L35.808 267.909L20 267.909L20 262.605Z" fill="#E32D6F"/>
<path d="M17.3094 96.6975L16.3094 96.6975L16.3094 97.6975L16.3094 103L16.3094 104L17.3094 104L54.025 104L55.025 104L55.025 103L55.025 97.6975L55.025 97.3716L54.8329 97.1083L50.9654 91.8059L50.6659 91.3951L50.1575 91.3951L44.5883 91.3951L42.6212 91.3951L43.7804 92.9844L46.4887 96.6975L17.3094 96.6975Z" fill="white" stroke="white" stroke-width="2"/>
<path d="M17.3094 77.8755L16.3094 77.8755L16.3094 78.8755L16.3094 84.1779L16.3094 85.1779L17.3094 85.1779L54.025 85.1779L55.025 85.1779L55.025 84.1779L55.025 78.8755L55.025 78.5496L54.8329 78.2862L50.9654 72.9838L50.6659 72.5731L50.1575 72.5731L44.5883 72.5731L42.6212 72.5731L43.7804 74.1624L46.4887 77.8755L17.3094 77.8755Z" fill="white" stroke="white" stroke-width="2"/>
<path d="M17.3094 62.8757L16.3094 62.8757L16.3094 63.8757L16.3094 69.1781L16.3094 70.1781L17.3094 70.1781L22.5692 70.1781L23.5692 70.1781L23.5692 69.1781L23.5692 63.8757L23.5692 62.8757L22.5692 62.8757L17.3094 62.8757Z" fill="white" stroke="white" stroke-width="2"/>
<path d="M17.3094 48.1105L16.3094 48.1105L16.3094 49.1105L16.3094 54.4129L16.3094 55.4129L17.3094 55.4129L48.0746 55.4129L48.0746 60.547L48.0746 61.547L49.0746 61.547L54.025 61.547L55.025 61.547L55.025 60.547L55.025 42.9763L55.025 41.9763L54.025 41.9763L49.0746 41.9763L48.0746 41.9763L48.0746 42.9763L48.0746 48.1105L17.3094 48.1105Z" fill="white" stroke="white" stroke-width="2"/>
<path d="M17.5291 22.6345L16.3094 22.36L16.3094 23.6101L16.3094 28.9125L16.3094 29.7342L17.1155 29.8935L24.1992 31.2937L24.1992 36.8762L17.1155 38.2764L16.3094 38.4357L16.3094 39.2574L16.3094 44.5598L16.3094 45.8099L17.5291 45.5354L54.2446 37.2699L55.025 37.0942L55.025 36.2943L55.025 31.8756L55.025 31.0757L54.2447 30.9L17.5291 22.6345ZM31.1496 32.622L38.5046 34.059L31.1496 35.4959L31.1496 32.622Z" fill="white" stroke="white" stroke-width="2"/>
<path d="M42.4538 21.7385L42.4538 20.7385L42.4538 15.4361L42.4538 14.4361L43.4538 14.4361L44.6398 14.4361C45.6734 14.4361 46.5002 14.1856 47.1684 13.7275L47.1873 13.7146L47.2067 13.7026C47.7223 13.3827 48.0746 12.811 48.0746 11.6932C48.0746 11.0824 47.9581 10.6917 47.8085 10.4468C47.6075 10.1174 47.367 9.86485 47.0878 9.67414C46.7648 9.47666 46.3765 9.33002 45.9086 9.24676L45.898 9.24488L45.898 9.24482C45.4152 9.15357 44.8934 9.10627 44.3304 9.10627C43.6413 9.10627 43.0777 9.12243 42.6344 9.15306C42.2722 9.20869 41.9708 9.31154 41.7183 9.45039C41.486 9.5781 41.2724 9.76358 41.0793 10.0269C40.8592 10.3636 40.6177 10.8436 40.3615 11.4892C40.3614 11.4895 40.3612 11.4898 40.3611 11.4902L38.7657 15.537C38.2929 16.782 37.7124 17.8377 37.0054 18.6723C36.3408 19.497 35.5508 20.1553 34.6373 20.6358L34.6145 20.6478L34.5912 20.6585C33.6597 21.089 32.6142 21.3725 31.4666 21.5219C30.3812 21.6677 29.1499 21.7385 27.7775 21.7385C26.1634 21.7385 24.6428 21.5758 23.2193 21.2446L23.2136 21.2433C21.7958 20.9047 20.549 20.3508 19.4957 19.5643L19.4909 19.5607C18.3883 18.7271 17.5325 17.6412 16.9189 16.3269L17.8251 15.9039L16.9189 16.3269C16.2912 14.9822 16 13.3907 16 11.5892C16 10.1882 16.2447 8.86471 16.7429 7.62852C17.2363 6.40411 17.9263 5.3366 18.8168 4.43891C19.6911 3.55758 20.6987 2.84904 21.8341 2.31487L21.8521 2.30641L21.8704 2.29866C23.0678 1.7925 24.3529 1.54394 25.7148 1.54394L27.6743 1.54394L28.6743 1.54394L28.6743 2.54394L28.6743 7.84635L28.6743 8.84635L27.6743 8.84635L26.0242 8.84635C25.2767 8.84635 24.6075 9.05488 23.9905 9.48146C23.5752 9.81541 23.2598 10.4296 23.2598 11.5892C23.2598 12.4152 23.3726 12.9266 23.5113 13.2133C23.7027 13.5703 23.9497 13.8222 24.2544 13.9977C24.5772 14.1837 24.986 14.3057 25.51 14.3335L25.5337 14.3348L25.5573 14.3371C26.2059 14.4025 26.9281 14.4361 27.7259 14.4361C28.669 14.4361 29.419 14.4019 29.9867 14.3383C30.5055 14.2802 30.8563 14.173 31.0824 14.0556C31.3048 13.9065 31.4965 13.7035 31.6561 13.4277L31.6657 13.411L31.676 13.3947C31.8744 13.0804 32.1071 12.6184 32.3707 11.9875L33.9155 8.1981L42.4538 21.7385ZM42.4538 21.7385L43.4538 21.7385M42.4538 21.7385L43.4538 21.7385M43.4538 21.7385L46.0321 21.7385C48.4438 21.7385 50.5784 20.8255 52.3993 19.0664L52.407 19.059L52.4145 19.0514C53.2979 18.1608 54.0008 17.1035 54.5275 15.8915C55.0712 14.6755 55.3344 13.3401 55.3344 11.9011C55.3344 10.2277 55.0397 8.72371 54.4134 7.41882C53.8398 6.18732 53.0478 5.14963 52.0354 4.32296C51.0296 3.46718 49.8429 2.83602 48.4923 2.42001C47.1536 2.00765 45.7476 1.80387 44.2789 1.80387C41.8713 1.80387 39.784 2.20154 38.0613 3.05054L38.0492 3.05653M43.4538 21.7385L38.0492 3.05653M38.0492 3.05653L38.0372 3.06284M38.0492 3.05653L38.0372 3.06284M38.0372 3.06284C36.2407 4.00951 34.8944 5.78645 33.9161 8.19663L38.0372 3.06284Z" fill="white" stroke="white" stroke-width="2"/>
<path d="M19.975 95.6541L19.475 95.6541L19.475 96.1541L19.475 101.456L19.475 101.956L19.975 101.956L56.6906 101.956L57.1906 101.956L57.1906 101.456L57.1906 96.1541L57.1906 95.9911L57.0946 95.8594L53.2271 90.557L53.0773 90.3517L52.8231 90.3517L47.2539 90.3517L46.2703 90.3517L46.8499 91.1463L50.1378 95.6541L19.975 95.6541Z" fill="#FF7A00" stroke="white"/>
<path d="M19.975 76.8321L19.475 76.8321L19.475 77.3321L19.475 82.6345L19.475 83.1345L19.975 83.1345L56.6906 83.1345L57.1906 83.1345L57.1906 82.6345L57.1906 77.3321L57.1906 77.1691L57.0946 77.0374L53.2271 71.735L53.0773 71.5297L52.8231 71.5297L47.2539 71.5297L46.2703 71.5297L46.8499 72.3243L50.1378 76.8321L19.975 76.8321Z" fill="#FF17E8" stroke="white"/>
<path d="M19.975 61.8323L19.475 61.8323L19.475 62.3323L19.475 67.6347L19.475 68.1347L19.975 68.1347L25.2348 68.1347L25.7348 68.1347L25.7348 67.6347L25.7348 62.3323L25.7348 61.8323L25.2348 61.8323L19.975 61.8323Z" fill="#FFB800" stroke="white"/>
<path d="M19.975 47.067L19.475 47.067L19.475 47.567L19.475 52.8694L19.475 53.3694L19.975 53.3694L51.2402 53.3694L51.2402 59.0036L51.2402 59.5036L51.7402 59.5036L56.6906 59.5036L57.1906 59.5036L57.1906 59.0036L57.1906 41.4329L57.1906 40.9329L56.6906 40.9329L51.7402 40.9329L51.2402 40.9329L51.2402 41.4329L51.2402 47.067L19.975 47.067Z" fill="#15E52A" stroke="white"/>
<path d="M20.0848 21.5789L19.475 21.4416L19.475 22.0666L19.475 27.3691L19.475 27.7799L19.8781 27.8596L27.3647 29.3394L27.3647 35.7436L19.8781 37.2234L19.475 37.3031L19.475 37.7139L19.475 43.0163L19.475 43.6414L20.0848 43.5041L56.8004 35.2386L57.1906 35.1508L57.1906 34.7508L57.1906 30.3322L57.1906 29.9322L56.8004 29.8444L20.0848 21.5789ZM33.3152 30.4714L43.7778 32.5155L33.3152 34.5596L33.3152 30.4714Z" fill="#00B2FF" stroke="white"/>
<path d="M45.6194 19.1945L45.6194 19.6945L46.1194 19.6945L48.6977 19.6945C50.9693 19.6945 52.982 18.8395 54.7175 17.1628L54.7176 17.1629L54.7251 17.1554C55.5621 16.3115 56.2316 15.3063 56.7356 14.1459C57.2481 13.0007 57.5 11.7351 57.5 10.3572C57.5 8.74074 57.2151 7.31294 56.6269 6.08864C56.0823 4.91842 55.334 3.94036 54.3808 3.16312C53.431 2.354 52.3048 1.75251 51.0107 1.3539C49.7226 0.957115 48.3664 0.759921 46.9445 0.759921C44.589 0.759921 42.5828 1.14937 40.9479 1.95509L40.9479 1.95492L40.9359 1.96123C39.2812 2.83318 37.9978 4.49293 37.0445 6.84191C37.0445 6.842 37.0445 6.84208 37.0444 6.84217L35.4993 10.6323C35.4991 10.633 35.4988 10.6336 35.4986 10.6342C35.2292 11.279 34.9839 11.7699 34.7644 12.1177L34.7593 12.1258L34.7545 12.1341C34.5541 12.4805 34.3035 12.7464 34.0034 12.9421C33.7028 13.1039 33.2788 13.2273 32.7079 13.2913C32.1147 13.3577 31.3443 13.3921 30.3915 13.3921C29.5801 13.3921 28.8408 13.358 28.1727 13.2907L28.1609 13.2895L28.1491 13.2888C27.5605 13.2576 27.0725 13.1186 26.6704 12.887C26.2774 12.6606 25.9648 12.3355 25.7315 11.8968C25.5423 11.5117 25.4254 10.9099 25.4254 10.0453C25.4254 8.78806 25.773 7.9971 26.3575 7.53613C27.0616 7.04536 27.8346 6.8024 28.6898 6.8024L30.3399 6.8024L30.8399 6.8024L30.8399 6.3024L30.8399 0.999999L30.8399 0.499999L30.3399 0.499999L28.3804 0.499999C27.0806 0.499999 25.8622 0.736907 24.7307 1.21526L24.7216 1.21913L24.7126 1.22336C23.6292 1.73304 22.6699 2.40788 21.8374 3.24709C20.9968 4.09448 20.3424 5.10476 19.8722 6.27146C19.3997 7.44406 19.1656 8.70363 19.1656 10.0453C19.1656 11.7951 19.4487 13.3099 20.0376 14.5715C20.6194 15.8178 21.4255 16.8372 22.4581 17.618L22.4604 17.6197C23.4512 18.3596 24.6332 18.8878 25.9953 19.213L25.9982 19.2137C27.3803 19.5352 28.8625 19.6945 30.4431 19.6945C31.7997 19.6945 33.0085 19.6245 34.0669 19.4822C35.1735 19.3382 36.1688 19.0665 37.0471 18.6607L37.0587 18.6553L37.0701 18.6493C37.9222 18.2012 38.661 17.5861 39.2855 16.8099C39.9484 16.0286 40.5051 15.0242 40.9649 13.8127L42.5619 9.76182C42.562 9.76165 42.5621 9.76148 42.5621 9.76131C42.8279 9.09148 43.0863 8.57428 43.3336 8.1983C43.5678 7.87588 43.838 7.63601 44.1429 7.46832C44.4579 7.29513 44.8232 7.17431 45.2452 7.11173C45.7074 7.07909 46.2901 7.06232 46.996 7.06232C47.5869 7.06232 48.14 7.11196 48.6564 7.20958L48.6564 7.20961L48.6617 7.21055C49.1882 7.3042 49.6401 7.4729 50.0249 7.71017C50.3707 7.94412 50.6628 8.25225 50.9009 8.64229C51.1132 8.99004 51.2402 9.47995 51.2402 10.1492C51.2402 11.384 50.8406 12.1463 50.1359 12.5835L50.1262 12.5895L50.1167 12.596C49.3529 13.1196 48.4238 13.3921 47.3054 13.3921L46.1194 13.3921L45.6194 13.3921L45.6194 13.8921L45.6194 19.1945Z" fill="#FF2C2C" stroke="white"/>
</svg>
