<svg width="86" height="9" viewBox="0 0 86 9" fill="none" xmlns="http://www.w3.org/2000/svg">
<path d="M0.761719 0.802734H2.26562V6.70605H5.83008V8H0.761719V0.802734ZM10.0586 6.92578C10.6543 6.92578 11.1263 6.70605 11.4746 6.2666C11.8262 5.82715 12.002 5.20215 12.002 4.3916C12.002 3.58431 11.8262 2.96094 11.4746 2.52148C11.1263 2.07878 10.6543 1.85742 10.0586 1.85742C9.46289 1.85742 8.98763 2.07715 8.63281 2.5166C8.27799 2.95605 8.10059 3.58105 8.10059 4.3916C8.10059 5.20215 8.27799 5.82715 8.63281 6.2666C8.98763 6.70605 9.46289 6.92578 10.0586 6.92578ZM13.5059 4.3916C13.5059 5.68392 13.1429 6.6735 12.417 7.36035C11.8734 7.92025 11.0872 8.2002 10.0586 8.2002C9.02995 8.2002 8.24382 7.92025 7.7002 7.36035C6.97103 6.6735 6.60645 5.68392 6.60645 4.3916C6.60645 3.07324 6.97103 2.08366 7.7002 1.42285C8.24382 0.862956 9.02995 0.583008 10.0586 0.583008C11.0872 0.583008 11.8734 0.862956 12.417 1.42285C13.1429 2.08366 13.5059 3.07324 13.5059 4.3916ZM18.8721 0.802734H20.4346L17.9785 8H16.5576L14.126 0.802734H15.7324L17.2949 6.2666L18.8721 0.802734ZM26.6504 2.07715H22.8418V3.60547H26.3379V4.85547H22.8418V6.70605H26.8262V8H21.3721V0.802734H26.6504V2.07715ZM31.8701 5.77832C31.9157 6.1071 32.0052 6.35286 32.1387 6.51562C32.3828 6.81185 32.8011 6.95996 33.3936 6.95996C33.7484 6.95996 34.0365 6.9209 34.2578 6.84277C34.6777 6.69303 34.8877 6.41471 34.8877 6.00781C34.8877 5.77018 34.7835 5.58626 34.5752 5.45605C34.3669 5.3291 34.0397 5.2168 33.5938 5.11914L32.832 4.94824C32.0833 4.77897 31.5658 4.59505 31.2793 4.39648C30.7943 4.06445 30.5518 3.54525 30.5518 2.83887C30.5518 2.19434 30.7861 1.65885 31.2549 1.23242C31.7236 0.80599 32.4121 0.592773 33.3203 0.592773C34.0788 0.592773 34.7249 0.794596 35.2588 1.19824C35.7959 1.59863 36.0775 2.18132 36.1035 2.94629H34.6582C34.6322 2.51335 34.4434 2.20573 34.0918 2.02344C33.8574 1.90299 33.5661 1.84277 33.2178 1.84277C32.8304 1.84277 32.5212 1.9209 32.29 2.07715C32.0589 2.2334 31.9434 2.4515 31.9434 2.73145C31.9434 2.98861 32.0573 3.18066 32.2852 3.30762C32.4316 3.39225 32.7441 3.49154 33.2227 3.60547L34.4629 3.90332C35.0065 4.03353 35.4167 4.20768 35.6934 4.42578C36.123 4.76432 36.3379 5.25423 36.3379 5.89551C36.3379 6.55306 36.0856 7.09993 35.5811 7.53613C35.0798 7.96908 34.3701 8.18555 33.4521 8.18555C32.5146 8.18555 31.7773 7.97233 31.2402 7.5459C30.7031 7.11621 30.4346 6.52702 30.4346 5.77832H31.8701ZM37.4268 0.802734H39.0039L41.8701 5.82715V0.802734H43.2715V8H41.7676L38.8281 2.8877V8H37.4268V0.802734ZM50 2.07715H46.1914V3.60547H49.6875V4.85547H46.1914V6.70605H50.1758V8H44.7217V0.802734H50V2.07715ZM53.3154 5.28027H55.1416L54.2432 2.44824L53.3154 5.28027ZM53.4082 0.802734H55.1074L57.6562 8H56.0254L55.5615 6.52051H52.9102L52.4121 8H50.8398L53.4082 0.802734ZM58.5986 0.802734H60.0781V3.7666L62.8564 0.802734H64.7998L61.8506 3.7666L64.9512 8H63.0176L60.7959 4.85547L60.0781 5.59277V8H58.5986V0.802734ZM71.123 2.07715H67.3145V3.60547H70.8105V4.85547H67.3145V6.70605H71.2988V8H65.8447V0.802734H71.123V2.07715ZM73.9746 2.05273V3.98633H75.6787C76.0173 3.98633 76.2712 3.94727 76.4404 3.86914C76.7399 3.73242 76.8896 3.46224 76.8896 3.05859C76.8896 2.6224 76.7448 2.32943 76.4551 2.17969C76.2923 2.09505 76.0482 2.05273 75.7227 2.05273H73.9746ZM76.0352 0.802734C76.5397 0.8125 76.9271 0.874349 77.1973 0.988281C77.4707 1.10221 77.7018 1.26986 77.8906 1.49121C78.0469 1.6735 78.1706 1.87533 78.2617 2.09668C78.3529 2.31803 78.3984 2.57031 78.3984 2.85352C78.3984 3.19531 78.3122 3.53223 78.1396 3.86426C77.9671 4.19303 77.6823 4.42578 77.2852 4.5625C77.6172 4.69596 77.8516 4.88639 77.9883 5.13379C78.1283 5.37793 78.1982 5.75228 78.1982 6.25684V6.74023C78.1982 7.06901 78.2113 7.29199 78.2373 7.40918C78.2764 7.59473 78.3675 7.73145 78.5107 7.81934V8H76.8555C76.8099 7.84049 76.7773 7.71191 76.7578 7.61426C76.7188 7.41243 76.6976 7.20573 76.6943 6.99414L76.6846 6.3252C76.6781 5.86621 76.5934 5.56022 76.4307 5.40723C76.2712 5.25423 75.9701 5.17773 75.5273 5.17773H73.9746V8H72.5049V0.802734H76.0352ZM80.7861 5.77832C80.8317 6.1071 80.9212 6.35286 81.0547 6.51562C81.2988 6.81185 81.7171 6.95996 82.3096 6.95996C82.6644 6.95996 82.9525 6.9209 83.1738 6.84277C83.5938 6.69303 83.8037 6.41471 83.8037 6.00781C83.8037 5.77018 83.6995 5.58626 83.4912 5.45605C83.2829 5.3291 82.9557 5.2168 82.5098 5.11914L81.748 4.94824C80.9993 4.77897 80.4818 4.59505 80.1953 4.39648C79.7103 4.06445 79.4678 3.54525 79.4678 2.83887C79.4678 2.19434 79.7021 1.65885 80.1709 1.23242C80.6396 0.80599 81.3281 0.592773 82.2363 0.592773C82.9948 0.592773 83.641 0.794596 84.1748 1.19824C84.7119 1.59863 84.9935 2.18132 85.0195 2.94629H83.5742C83.5482 2.51335 83.3594 2.20573 83.0078 2.02344C82.7734 1.90299 82.4821 1.84277 82.1338 1.84277C81.7464 1.84277 81.4372 1.9209 81.2061 2.07715C80.9749 2.2334 80.8594 2.4515 80.8594 2.73145C80.8594 2.98861 80.9733 3.18066 81.2012 3.30762C81.3477 3.39225 81.6602 3.49154 82.1387 3.60547L83.3789 3.90332C83.9225 4.03353 84.3327 4.20768 84.6094 4.42578C85.0391 4.76432 85.2539 5.25423 85.2539 5.89551C85.2539 6.55306 85.0016 7.09993 84.4971 7.53613C83.9958 7.96908 83.2861 8.18555 82.3682 8.18555C81.4307 8.18555 80.6934 7.97233 80.1562 7.5459C79.6191 7.11621 79.3506 6.52702 79.3506 5.77832H80.7861Z" fill="#E3FF38"/>
</svg>
