<svg width="122" height="47" viewBox="0 0 122 47" fill="none" xmlns="http://www.w3.org/2000/svg">
<path d="M2.496 43V5.976H18.304V10.968H7.8V21.836H16.952V26.828H7.8V37.696H18.304V43H2.496ZM43.8941 5.976L36.3021 43H31.6221L24.0821 5.976H29.6981L33.9101 31.82H34.0141L38.2781 5.976H43.8941ZM51.2379 43V5.976H67.0459V10.968H56.5419V21.836H65.6939V26.828H56.5419V37.696H67.0459V43H51.2379ZM74.436 43V5.976H79.532L87.54 28.284H87.644V5.976H92.948V43H87.956L79.844 20.744H79.74V43H74.436ZM105.393 43V10.968H99.2574V5.976H116.833V10.968H110.697V43H105.393Z" fill="#2AD4B6"/>
<path d="M2.496 43H1.496V44H2.496V43ZM2.496 5.976V4.976H1.496V5.976H2.496ZM18.304 5.976H19.304V4.976H18.304V5.976ZM18.304 10.968V11.968H19.304V10.968H18.304ZM7.8 10.968V9.968H6.8V10.968H7.8ZM7.8 21.836H6.8V22.836H7.8V21.836ZM16.952 21.836H17.952V20.836H16.952V21.836ZM16.952 26.828V27.828H17.952V26.828H16.952ZM7.8 26.828V25.828H6.8V26.828H7.8ZM7.8 37.696H6.8V38.696H7.8V37.696ZM18.304 37.696H19.304V36.696H18.304V37.696ZM18.304 43V44H19.304V43H18.304ZM3.496 43V5.976H1.496V43H3.496ZM2.496 6.976H18.304V4.976H2.496V6.976ZM17.304 5.976V10.968H19.304V5.976H17.304ZM18.304 9.968H7.8V11.968H18.304V9.968ZM6.8 10.968V21.836H8.8V10.968H6.8ZM7.8 22.836H16.952V20.836H7.8V22.836ZM15.952 21.836V26.828H17.952V21.836H15.952ZM16.952 25.828H7.8V27.828H16.952V25.828ZM6.8 26.828V37.696H8.8V26.828H6.8ZM7.8 38.696H18.304V36.696H7.8V38.696ZM17.304 37.696V43H19.304V37.696H17.304ZM18.304 42H2.496V44H18.304V42ZM43.8941 5.976L44.8737 6.17688L45.12 4.976H43.8941V5.976ZM36.3021 43V44H37.1178L37.2817 43.2009L36.3021 43ZM31.6221 43L30.6422 43.1996L30.8052 44H31.6221V43ZM24.0821 5.976V4.976H22.8579L23.1022 6.17555L24.0821 5.976ZM29.6981 5.976L30.6851 5.81514L30.5483 4.976H29.6981V5.976ZM33.9101 31.82L32.9231 31.9809L33.0599 32.82H33.9101V31.82ZM34.0141 31.82V32.82H34.8626L35.0008 31.9828L34.0141 31.82ZM38.2781 5.976V4.976H37.4296L37.2914 5.81321L38.2781 5.976ZM42.9145 5.77512L35.3225 42.7991L37.2817 43.2009L44.8737 6.17688L42.9145 5.77512ZM36.3021 42H31.6221V44H36.3021V42ZM32.602 42.8004L25.062 5.77644L23.1022 6.17555L30.6422 43.1996L32.602 42.8004ZM24.0821 6.976H29.6981V4.976H24.0821V6.976ZM28.7111 6.13686L32.9231 31.9809L34.8971 31.6591L30.6851 5.81514L28.7111 6.13686ZM33.9101 32.82H34.0141V30.82H33.9101V32.82ZM35.0008 31.9828L39.2648 6.13879L37.2914 5.81321L33.0274 31.6572L35.0008 31.9828ZM38.2781 6.976H43.8941V4.976H38.2781V6.976ZM51.2379 43H50.2379V44H51.2379V43ZM51.2379 5.976V4.976H50.2379V5.976H51.2379ZM67.0459 5.976H68.0459V4.976H67.0459V5.976ZM67.0459 10.968V11.968H68.0459V10.968H67.0459ZM56.5419 10.968V9.968H55.5419V10.968H56.5419ZM56.5419 21.836H55.5419V22.836H56.5419V21.836ZM65.6939 21.836H66.6939V20.836H65.6939V21.836ZM65.6939 26.828V27.828H66.6939V26.828H65.6939ZM56.5419 26.828V25.828H55.5419V26.828H56.5419ZM56.5419 37.696H55.5419V38.696H56.5419V37.696ZM67.0459 37.696H68.0459V36.696H67.0459V37.696ZM67.0459 43V44H68.0459V43H67.0459ZM52.2379 43V5.976H50.2379V43H52.2379ZM51.2379 6.976H67.0459V4.976H51.2379V6.976ZM66.0459 5.976V10.968H68.0459V5.976H66.0459ZM67.0459 9.968H56.5419V11.968H67.0459V9.968ZM55.5419 10.968V21.836H57.5419V10.968H55.5419ZM56.5419 22.836H65.6939V20.836H56.5419V22.836ZM64.6939 21.836V26.828H66.6939V21.836H64.6939ZM65.6939 25.828H56.5419V27.828H65.6939V25.828ZM55.5419 26.828V37.696H57.5419V26.828H55.5419ZM56.5419 38.696H67.0459V36.696H56.5419V38.696ZM66.0459 37.696V43H68.0459V37.696H66.0459ZM67.0459 42H51.2379V44H67.0459V42ZM74.436 43H73.436V44H74.436V43ZM74.436 5.976V4.976H73.436V5.976H74.436ZM79.532 5.976L80.4732 5.63813L80.2355 4.976H79.532V5.976ZM87.54 28.284L86.5988 28.6219L86.8365 29.284H87.54V28.284ZM87.644 28.284V29.284H88.644V28.284H87.644ZM87.644 5.976V4.976H86.644V5.976H87.644ZM92.948 5.976H93.948V4.976H92.948V5.976ZM92.948 43V44H93.948V43H92.948ZM87.956 43L87.0164 43.3424L87.2561 44H87.956V43ZM79.844 20.744L80.7835 20.4016L80.5438 19.744H79.844V20.744ZM79.74 20.744V19.744H78.74V20.744H79.74ZM79.74 43V44H80.74V43H79.74ZM75.436 43V5.976H73.436V43H75.436ZM74.436 6.976H79.532V4.976H74.436V6.976ZM78.5908 6.31386L86.5988 28.6219L88.4812 27.9461L80.4732 5.63813L78.5908 6.31386ZM87.54 29.284H87.644V27.284H87.54V29.284ZM88.644 28.284V5.976H86.644V28.284H88.644ZM87.644 6.976H92.948V4.976H87.644V6.976ZM91.948 5.976V43H93.948V5.976H91.948ZM92.948 42H87.956V44H92.948V42ZM88.8955 42.6576L80.7835 20.4016L78.9044 21.0864L87.0164 43.3424L88.8955 42.6576ZM79.844 19.744H79.74V21.744H79.844V19.744ZM78.74 20.744V43H80.74V20.744H78.74ZM79.74 42H74.436V44H79.74V42ZM105.393 43H104.393V44H105.393V43ZM105.393 10.968H106.393V9.968H105.393V10.968ZM99.2574 10.968H98.2574V11.968H99.2574V10.968ZM99.2574 5.976V4.976H98.2574V5.976H99.2574ZM116.833 5.976H117.833V4.976H116.833V5.976ZM116.833 10.968V11.968H117.833V10.968H116.833ZM110.697 10.968V9.968H109.697V10.968H110.697ZM110.697 43V44H111.697V43H110.697ZM106.393 43V10.968H104.393V43H106.393ZM105.393 9.968H99.2574V11.968H105.393V9.968ZM100.257 10.968V5.976H98.2574V10.968H100.257ZM99.2574 6.976H116.833V4.976H99.2574V6.976ZM115.833 5.976V10.968H117.833V5.976H115.833ZM116.833 9.968H110.697V11.968H116.833V9.968ZM109.697 10.968V43H111.697V10.968H109.697ZM110.697 42H105.393V44H110.697V42Z" fill="#2AD4B6"/>
<path d="M2.496 42V4.976H18.304V9.968H7.8V20.836H16.952V25.828H7.8V36.696H18.304V42H2.496ZM43.8941 4.976L36.3021 42H31.6221L24.0821 4.976H29.6981L33.9101 30.82H34.0141L38.2781 4.976H43.8941ZM51.2379 42V4.976H67.0459V9.968H56.5419V20.836H65.6939V25.828H56.5419V36.696H67.0459V42H51.2379ZM74.436 42V4.976H79.532L87.54 27.284H87.644V4.976H92.948V42H87.956L79.844 19.744H79.74V42H74.436ZM105.393 42V9.968H99.2574V4.976H116.833V9.968H110.697V42H105.393Z" fill="#FAFF00"/>
</svg>
