<svg width="74" height="47" viewBox="0 0 74 47" fill="none" xmlns="http://www.w3.org/2000/svg">
<path d="M7.98 43V10.968H1.844V5.976H19.42V10.968H13.284V43H7.98ZM25.0003 14.712C25.0003 13.2213 25.2603 11.904 25.7803 10.76C26.3003 9.616 26.9936 8.66266 27.8602 7.9C28.6923 7.172 29.6283 6.61733 30.6683 6.236C31.7429 5.85466 32.8176 5.664 33.8923 5.664C34.9669 5.664 36.0243 5.85466 37.0643 6.236C38.1389 6.61733 39.1096 7.172 39.9763 7.9C40.8083 8.66266 41.4843 9.616 42.0043 10.76C42.5243 11.904 42.7843 13.2213 42.7843 14.712V34.264C42.7843 35.824 42.5243 37.1587 42.0043 38.268C41.4843 39.3773 40.8083 40.296 39.9763 41.024C39.1096 41.7867 38.1389 42.3587 37.0643 42.74C36.0243 43.1213 34.9669 43.312 33.8923 43.312C32.8176 43.312 31.7429 43.1213 30.6683 42.74C29.6283 42.3587 28.6923 41.7867 27.8602 41.024C26.9936 40.296 26.3003 39.3773 25.7803 38.268C25.2603 37.1587 25.0003 35.824 25.0003 34.264V14.712ZM30.3043 34.264C30.3043 35.5467 30.6509 36.5 31.3443 37.124C32.0723 37.7133 32.9216 38.008 33.8923 38.008C34.8629 38.008 35.6949 37.7133 36.3883 37.124C37.1163 36.5 37.4803 35.5467 37.4803 34.264V14.712C37.4803 13.4293 37.1163 12.4933 36.3883 11.904C35.6949 11.28 34.8629 10.968 33.8923 10.968C32.9216 10.968 32.0723 11.28 31.3443 11.904C30.6509 12.4933 30.3043 13.4293 30.3043 14.712V34.264ZM51.6129 43V5.976H59.5689C61.0249 5.976 62.3075 6.16667 63.4169 6.548C64.5262 6.92933 65.5315 7.60533 66.4329 8.576C67.3342 9.54667 67.9582 10.6907 68.3049 12.008C68.6515 13.2907 68.8249 15.0413 68.8249 17.26C68.8249 18.924 68.7209 20.328 68.5129 21.472C68.3395 22.616 67.9409 23.6907 67.3169 24.696C66.5889 25.9093 65.6182 26.8627 64.4049 27.556C63.1915 28.2147 61.5969 28.544 59.6209 28.544H56.9169V43H51.6129ZM56.9169 10.968V23.552H59.4649C60.5395 23.552 61.3715 23.396 61.9609 23.084C62.5502 22.772 62.9835 22.3387 63.2609 21.784C63.5382 21.264 63.6942 20.6227 63.7289 19.86C63.7982 19.0973 63.8329 18.248 63.8329 17.312C63.8329 16.4453 63.8155 15.6307 63.7809 14.868C63.7462 14.0707 63.5902 13.3773 63.3129 12.788C63.0355 12.1987 62.6195 11.748 62.0649 11.436C61.5102 11.124 60.7129 10.968 59.6729 10.968H56.9169Z" fill="#2AD4B6"/>
<path d="M7.98 43H6.98V44H7.98V43ZM7.98 10.968H8.98V9.968H7.98V10.968ZM1.844 10.968H0.844V11.968H1.844V10.968ZM1.844 5.976V4.976H0.844V5.976H1.844ZM19.42 5.976H20.42V4.976H19.42V5.976ZM19.42 10.968V11.968H20.42V10.968H19.42ZM13.284 10.968V9.968H12.284V10.968H13.284ZM13.284 43V44H14.284V43H13.284ZM8.98 43V10.968H6.98V43H8.98ZM7.98 9.968H1.844V11.968H7.98V9.968ZM2.844 10.968V5.976H0.844V10.968H2.844ZM1.844 6.976H19.42V4.976H1.844V6.976ZM18.42 5.976V10.968H20.42V5.976H18.42ZM19.42 9.968H13.284V11.968H19.42V9.968ZM12.284 10.968V43H14.284V10.968H12.284ZM13.284 42H7.98V44H13.284V42ZM25.7803 10.76L26.6906 11.1738L25.7803 10.76ZM27.8603 7.9L27.2017 7.14742L27.1996 7.14929L27.8603 7.9ZM30.6683 6.236L30.3338 5.29352L30.324 5.29712L30.6683 6.236ZM37.0643 6.236L36.72 7.17493L36.7298 7.17843L37.0643 6.236ZM39.9762 7.9L40.652 7.16284L40.636 7.14822L40.6194 7.13429L39.9762 7.9ZM42.0042 10.76L42.9146 10.3462L42.0042 10.76ZM42.0042 38.268L42.9097 38.6924L42.0042 38.268ZM39.9762 41.024L39.3177 40.2714L39.3156 40.2733L39.9762 41.024ZM37.0643 42.74L36.7298 41.7975L36.72 41.8011L37.0643 42.74ZM30.6683 42.74L30.324 43.6789L30.3338 43.6824L30.6683 42.74ZM27.8603 41.024L28.536 40.2868L28.52 40.2722L28.5034 40.2583L27.8603 41.024ZM25.7803 38.268L26.6857 37.8436L25.7803 38.268ZM31.3442 37.124L30.6753 37.8673L30.6947 37.8848L30.7151 37.9012L31.3442 37.124ZM36.3882 37.124L37.0359 37.8859L37.039 37.8833L36.3882 37.124ZM36.3882 11.904L35.7193 12.6473L35.7387 12.6648L35.7591 12.6812L36.3882 11.904ZM31.3442 11.904L31.9919 12.6659L31.995 12.6633L31.3442 11.904ZM26.0002 14.712C26.0002 13.3378 26.2397 12.1659 26.6906 11.1738L24.8699 10.3462C24.2808 11.6421 24.0002 13.1048 24.0002 14.712H26.0002ZM26.6906 11.1738C27.1574 10.147 27.7694 9.31198 28.5209 8.65071L27.1996 7.14929C26.2177 8.01335 25.4431 9.08502 24.8699 10.3462L26.6906 11.1738ZM28.5188 8.65258C29.2581 8.00561 30.0876 7.51402 31.0125 7.17488L30.324 5.29712C29.1689 5.72065 28.1264 6.33839 27.2017 7.14742L28.5188 8.65258ZM31.0027 7.17843C31.9766 6.83285 32.9383 6.664 33.8923 6.664V4.664C32.6968 4.664 31.5093 4.87648 30.3338 5.29357L31.0027 7.17843ZM33.8923 6.664C34.8459 6.664 35.7868 6.83271 36.72 7.17488L37.4085 5.29712C36.2617 4.87662 35.088 4.664 33.8923 4.664V6.664ZM36.7298 7.17843C37.6927 7.52009 38.5586 8.01518 39.3331 8.6657L40.6194 7.13429C39.6605 6.32882 38.5851 5.71458 37.3987 5.29357L36.7298 7.17843ZM39.3005 8.63715C40.0227 9.29913 40.6232 10.1384 41.0939 11.1738L42.9146 10.3462C42.3453 9.09364 41.5938 8.0262 40.652 7.16284L39.3005 8.63715ZM41.0939 11.1738C41.5448 12.1659 41.7842 13.3378 41.7842 14.712H43.7842C43.7842 13.1048 43.5037 11.6421 42.9146 10.3462L41.0939 11.1738ZM41.7842 14.712V34.264H43.7842V14.712H41.7842ZM41.7842 34.264C41.7842 35.7161 41.5419 36.8982 41.0988 37.8436L42.9097 38.6924C43.5066 37.4191 43.7842 35.9319 43.7842 34.264H41.7842ZM41.0988 37.8436C40.6311 38.8412 40.0349 39.644 39.3177 40.2714L40.6348 41.7766C41.5816 40.948 42.3374 39.9134 42.9097 38.6924L41.0988 37.8436ZM39.3156 40.2733C38.5433 40.9529 37.683 41.4593 36.7298 41.7976L37.3987 43.6824C38.5948 43.258 39.6759 42.6204 40.6369 41.7747L39.3156 40.2733ZM36.72 41.8011C35.7868 42.1433 34.8459 42.312 33.8923 42.312V44.312C35.088 44.312 36.2617 44.0994 37.4085 43.6789L36.72 41.8011ZM33.8923 42.312C32.9383 42.312 31.9766 42.1431 31.0027 41.7976L30.3338 43.6824C31.5093 44.0995 32.6968 44.312 33.8923 44.312V42.312ZM31.0125 41.8011C30.0975 41.4656 29.2736 40.963 28.536 40.2868L27.1845 41.7612C28.1109 42.6103 29.159 43.2517 30.324 43.6789L31.0125 41.8011ZM28.5034 40.2583C27.7569 39.6312 27.1493 38.8325 26.6857 37.8436L24.8748 38.6924C25.4513 39.9222 26.2303 40.9608 27.2171 41.7897L28.5034 40.2583ZM26.6857 37.8436C26.2426 36.8982 26.0002 35.7161 26.0002 34.264H24.0002C24.0002 35.9319 24.2779 37.4191 24.8748 38.6924L26.6857 37.8436ZM26.0002 34.264V14.712H24.0002V34.264H26.0002ZM29.3043 34.264C29.3043 35.7197 29.7011 36.9905 30.6753 37.8673L32.0132 36.3807C31.6007 36.0095 31.3043 35.3737 31.3043 34.264H29.3043ZM30.7151 37.9012C31.628 38.6403 32.7015 39.008 33.8923 39.008V37.008C33.1416 37.008 32.5165 36.7864 31.9734 36.3468L30.7151 37.9012ZM33.8923 39.008C35.0831 39.008 36.1491 38.6397 37.0359 37.8859L35.7406 36.3621C35.2407 36.787 34.6428 37.008 33.8923 37.008V39.008ZM37.039 37.8833C38.0572 37.0105 38.4803 35.7343 38.4803 34.264H36.4803C36.4803 35.3591 36.1753 35.9895 35.7375 36.3647L37.039 37.8833ZM38.4803 34.264V14.712H36.4803V34.264H38.4803ZM38.4803 14.712C38.4803 13.2457 38.0585 11.9695 37.0174 11.1268L35.7591 12.6812C36.174 13.0171 36.4803 13.613 36.4803 14.712H38.4803ZM37.0572 11.1607C36.1722 10.3642 35.0989 9.968 33.8923 9.968V11.968C34.6269 11.968 35.2176 12.1958 35.7193 12.6473L37.0572 11.1607ZM33.8923 9.968C32.6861 9.968 31.6051 10.3633 30.6935 11.1447L31.995 12.6633C32.5394 12.1967 33.1571 11.968 33.8923 11.968V9.968ZM30.6966 11.1421C29.6995 11.9896 29.3043 13.2608 29.3043 14.712H31.3043C31.3043 13.5978 31.6024 12.997 31.9919 12.6659L30.6966 11.1421ZM29.3043 14.712V34.264H31.3043V14.712H29.3043ZM51.6129 43H50.6129V44H51.6129V43ZM51.6129 5.976V4.976H50.6129V5.976H51.6129ZM63.4169 6.548L63.0918 7.49368V7.49369L63.4169 6.548ZM66.4329 8.576L67.1657 7.89555H67.1657L66.4329 8.576ZM68.3049 12.008L67.3378 12.2625L67.3395 12.2689L68.3049 12.008ZM68.5129 21.472L67.529 21.2931L67.5264 21.3076L67.5242 21.3222L68.5129 21.472ZM67.3169 24.696L66.4672 24.1686L66.4633 24.175L66.4594 24.1815L67.3169 24.696ZM64.4049 27.556L64.882 28.4349L64.8915 28.4297L64.901 28.4242L64.4049 27.556ZM56.9169 28.544V27.544H55.9169V28.544H56.9169ZM56.9169 43V44H57.9169V43H56.9169ZM56.9169 10.968V9.968H55.9169V10.968H56.9169ZM56.9169 23.552H55.9169V24.552H56.9169V23.552ZM61.9609 23.084L62.4288 23.9678L61.9609 23.084ZM63.2609 21.784L62.3785 21.3134L62.3723 21.325L62.3664 21.3368L63.2609 21.784ZM63.7289 19.86L62.733 19.7695L62.7309 19.792L62.7299 19.8146L63.7289 19.86ZM63.7809 14.868L62.7818 14.9114L62.7819 14.9134L63.7809 14.868ZM63.3129 12.788L62.4081 13.2138V13.2138L63.3129 12.788ZM52.6129 43V5.976H50.6129V43H52.6129ZM51.6129 6.976H59.5689V4.976H51.6129V6.976ZM59.5689 6.976C60.9399 6.976 62.1088 7.15579 63.0918 7.49368L63.742 5.60231C62.5063 5.17754 61.1099 4.976 59.5689 4.976V6.976ZM63.0918 7.49369C64.0263 7.81492 64.8961 8.39061 65.7001 9.25645L67.1657 7.89555C66.167 6.82005 65.0261 6.04374 63.742 5.60231L63.0918 7.49369ZM65.7001 9.25645C66.4862 10.1031 67.0318 11.0996 67.3378 12.2625L69.2719 11.7535C68.8847 10.2818 68.1822 8.99027 67.1657 7.89555L65.7001 9.25645ZM67.3395 12.2689C67.653 13.4287 67.8249 15.0791 67.8249 17.26H69.8249C69.8249 15.0036 69.6501 13.1526 69.2702 11.7471L67.3395 12.2689ZM67.8249 17.26C67.8249 18.8873 67.7228 20.2273 67.529 21.2931L69.4967 21.6509C69.719 20.4287 69.8249 18.9607 69.8249 17.26H67.8249ZM67.5242 21.3222C67.3716 22.3291 67.0214 23.2758 66.4672 24.1686L68.1665 25.2234C68.8603 24.1056 69.3075 22.9029 69.5016 21.6218L67.5242 21.3222ZM66.4594 24.1815C65.8184 25.2498 64.9714 26.0805 63.9087 26.6878L64.901 28.4242C66.2651 27.6448 67.3594 26.5688 68.1744 25.2105L66.4594 24.1815ZM63.9278 26.6771C62.9105 27.2294 61.4976 27.544 59.6209 27.544V29.544C61.6961 29.544 63.4726 29.1999 64.882 28.4349L63.9278 26.6771ZM59.6209 27.544H56.9169V29.544H59.6209V27.544ZM55.9169 28.544V43H57.9169V28.544H55.9169ZM56.9169 42H51.6129V44H56.9169V42ZM55.9169 10.968V23.552H57.9169V10.968H55.9169ZM56.9169 24.552H59.4649V22.552H56.9169V24.552ZM59.4649 24.552C60.6135 24.552 61.633 24.3891 62.4288 23.9678L61.493 22.2002C61.1101 22.4029 60.4655 22.552 59.4649 22.552V24.552ZM62.4288 23.9678C63.1877 23.566 63.7776 22.9866 64.1553 22.2312L62.3664 21.3368C62.1895 21.6907 61.9128 21.978 61.493 22.2002L62.4288 23.9678ZM64.1432 22.2546C64.5081 21.5705 64.6883 20.7745 64.7278 19.9054L62.7299 19.8146C62.7001 20.4709 62.5683 20.9575 62.3785 21.3134L64.1432 22.2546ZM64.7248 19.9505C64.7974 19.152 64.8329 18.2719 64.8329 17.312H62.8329C62.8329 18.2241 62.7991 19.0426 62.733 19.7695L64.7248 19.9505ZM64.8329 17.312C64.8329 16.4322 64.8153 15.6022 64.7798 14.8226L62.7819 14.9134C62.8158 15.6591 62.8329 16.4585 62.8329 17.312H64.8329ZM64.7799 14.8246C64.7408 13.9238 64.5626 13.0952 64.2177 12.3622L62.4081 13.2138C62.6178 13.6594 62.7516 14.2175 62.7818 14.9114L64.7799 14.8246ZM64.2177 12.3622C63.8541 11.5895 63.2955 10.9808 62.5551 10.5644L61.5746 12.3076C61.9436 12.5151 62.217 12.8078 62.4081 13.2138L64.2177 12.3622ZM62.5551 10.5644C61.7843 10.1308 60.7874 9.968 59.6729 9.968V11.968C60.6383 11.968 61.2361 12.1172 61.5746 12.3076L62.5551 10.5644ZM59.6729 9.968H56.9169V11.968H59.6729V9.968Z" fill="#2AD4B6"/>
<path d="M6.98 42V9.968H0.844V4.976H18.42V9.968H12.284V42H6.98ZM24.0003 13.712C24.0003 12.2213 24.2603 10.904 24.7803 9.76C25.3003 8.616 25.9936 7.66266 26.8602 6.9C27.6923 6.172 28.6283 5.61733 29.6683 5.236C30.7429 4.85466 31.8176 4.664 32.8923 4.664C33.9669 4.664 35.0243 4.85466 36.0643 5.236C37.1389 5.61733 38.1096 6.172 38.9763 6.9C39.8083 7.66266 40.4843 8.616 41.0043 9.76C41.5243 10.904 41.7843 12.2213 41.7843 13.712V33.264C41.7843 34.824 41.5243 36.1587 41.0043 37.268C40.4843 38.3773 39.8083 39.296 38.9763 40.024C38.1096 40.7867 37.1389 41.3587 36.0643 41.74C35.0243 42.1213 33.9669 42.312 32.8923 42.312C31.8176 42.312 30.7429 42.1213 29.6683 41.74C28.6283 41.3587 27.6923 40.7867 26.8602 40.024C25.9936 39.296 25.3003 38.3773 24.7803 37.268C24.2603 36.1587 24.0003 34.824 24.0003 33.264V13.712ZM29.3043 33.264C29.3043 34.5467 29.6509 35.5 30.3443 36.124C31.0723 36.7133 31.9216 37.008 32.8923 37.008C33.8629 37.008 34.6949 36.7133 35.3883 36.124C36.1163 35.5 36.4803 34.5467 36.4803 33.264V13.712C36.4803 12.4293 36.1163 11.4933 35.3883 10.904C34.6949 10.28 33.8629 9.968 32.8923 9.968C31.9216 9.968 31.0723 10.28 30.3443 10.904C29.6509 11.4933 29.3043 12.4293 29.3043 13.712V33.264ZM50.6129 42V4.976H58.5689C60.0249 4.976 61.3075 5.16667 62.4169 5.548C63.5262 5.92933 64.5315 6.60533 65.4329 7.576C66.3342 8.54667 66.9582 9.69067 67.3049 11.008C67.6515 12.2907 67.8249 14.0413 67.8249 16.26C67.8249 17.924 67.7209 19.328 67.5129 20.472C67.3395 21.616 66.9409 22.6907 66.3169 23.696C65.5889 24.9093 64.6182 25.8627 63.4049 26.556C62.1915 27.2147 60.5969 27.544 58.6209 27.544H55.9169V42H50.6129ZM55.9169 9.968V22.552H58.4649C59.5395 22.552 60.3715 22.396 60.9609 22.084C61.5502 21.772 61.9835 21.3387 62.2609 20.784C62.5382 20.264 62.6942 19.6227 62.7289 18.86C62.7982 18.0973 62.8329 17.248 62.8329 16.312C62.8329 15.4453 62.8155 14.6307 62.7809 13.868C62.7462 13.0707 62.5902 12.3773 62.3129 11.788C62.0355 11.1987 61.6195 10.748 61.0649 10.436C60.5102 10.124 59.7129 9.968 58.6729 9.968H55.9169Z" fill="#FAFF00"/>
</svg>
