<svg width="157" height="16" viewBox="0 0 157 16" fill="none" xmlns="http://www.w3.org/2000/svg">
<path d="M0.523438 0.605469H3.53125V12.4121H10.6602V15H0.523438V0.605469ZM19.1172 12.8516C20.3086 12.8516 21.2526 12.4121 21.9492 11.5332C22.6523 10.6543 23.0039 9.4043 23.0039 7.7832C23.0039 6.16862 22.6523 4.92188 21.9492 4.04297C21.2526 3.15755 20.3086 2.71484 19.1172 2.71484C17.9258 2.71484 16.9753 3.1543 16.2656 4.0332C15.556 4.91211 15.2012 6.16211 15.2012 7.7832C15.2012 9.4043 15.556 10.6543 16.2656 11.5332C16.9753 12.4121 17.9258 12.8516 19.1172 12.8516ZM26.0117 7.7832C26.0117 10.3678 25.2858 12.347 23.834 13.7207C22.7467 14.8405 21.1745 15.4004 19.1172 15.4004C17.0599 15.4004 15.4876 14.8405 14.4004 13.7207C12.9421 12.347 12.2129 10.3678 12.2129 7.7832C12.2129 5.14648 12.9421 3.16732 14.4004 1.8457C15.4876 0.725911 17.0599 0.166016 19.1172 0.166016C21.1745 0.166016 22.7467 0.725911 23.834 1.8457C25.2858 3.16732 26.0117 5.14648 26.0117 7.7832ZM36.7441 0.605469H39.8691L34.957 15H32.1152L27.252 0.605469H30.4648L33.5898 11.5332L36.7441 0.605469ZM52.3008 3.1543H44.6836V6.21094H51.6758V8.71094H44.6836V12.4121H52.6523V15H41.7441V0.605469H52.3008V3.1543ZM62.7402 10.5566C62.8314 11.2142 63.0104 11.7057 63.2773 12.0312C63.7656 12.6237 64.6022 12.9199 65.7871 12.9199C66.4967 12.9199 67.0729 12.8418 67.5156 12.6855C68.3555 12.3861 68.7754 11.8294 68.7754 11.0156C68.7754 10.5404 68.5671 10.1725 68.1504 9.91211C67.7337 9.6582 67.0794 9.43359 66.1875 9.23828L64.6641 8.89648C63.1667 8.55794 62.1315 8.1901 61.5586 7.79297C60.5885 7.12891 60.1035 6.09049 60.1035 4.67773C60.1035 3.38867 60.5723 2.31771 61.5098 1.46484C62.4473 0.611979 63.8242 0.185547 65.6406 0.185547C67.1576 0.185547 68.4499 0.589193 69.5176 1.39648C70.5918 2.19727 71.1549 3.36263 71.207 4.89258H68.3164C68.2643 4.02669 67.8867 3.41146 67.1836 3.04688C66.7148 2.80599 66.1322 2.68555 65.4355 2.68555C64.6608 2.68555 64.0423 2.8418 63.5801 3.1543C63.1178 3.4668 62.8867 3.90299 62.8867 4.46289C62.8867 4.97721 63.1146 5.36133 63.5703 5.61523C63.8633 5.78451 64.4883 5.98307 65.4453 6.21094L67.9258 6.80664C69.013 7.06706 69.8333 7.41536 70.3867 7.85156C71.2461 8.52865 71.6758 9.50846 71.6758 10.791C71.6758 12.1061 71.1712 13.1999 70.1621 14.0723C69.1595 14.9382 67.7402 15.3711 65.9043 15.3711C64.0293 15.3711 62.5547 14.9447 61.4805 14.0918C60.4062 13.2324 59.8691 12.054 59.8691 10.5566H62.7402ZM73.8535 0.605469H77.0078L82.7402 10.6543V0.605469H85.543V15H82.5352L76.6562 4.77539V15H73.8535V0.605469ZM99 3.1543H91.3828V6.21094H98.375V8.71094H91.3828V12.4121H99.3516V15H88.4434V0.605469H99V3.1543ZM105.631 9.56055H109.283L107.486 3.89648L105.631 9.56055ZM105.816 0.605469H109.215L114.312 15H111.051L110.123 12.041H104.82L103.824 15H100.68L105.816 0.605469ZM116.197 0.605469H119.156V6.5332L124.713 0.605469H128.6L122.701 6.5332L128.902 15H125.035L120.592 8.71094L119.156 10.1855V15H116.197V0.605469ZM141.246 3.1543H133.629V6.21094H140.621V8.71094H133.629V12.4121H141.598V15H130.689V0.605469H141.246V3.1543ZM146.949 3.10547V6.97266H150.357C151.035 6.97266 151.542 6.89453 151.881 6.73828C152.48 6.46484 152.779 5.92448 152.779 5.11719C152.779 4.24479 152.49 3.65885 151.91 3.35938C151.585 3.1901 151.096 3.10547 150.445 3.10547H146.949ZM151.07 0.605469C152.079 0.625 152.854 0.748698 153.395 0.976562C153.941 1.20443 154.404 1.53971 154.781 1.98242C155.094 2.34701 155.341 2.75065 155.523 3.19336C155.706 3.63607 155.797 4.14062 155.797 4.70703C155.797 5.39062 155.624 6.06445 155.279 6.72852C154.934 7.38607 154.365 7.85156 153.57 8.125C154.234 8.39193 154.703 8.77279 154.977 9.26758C155.257 9.75586 155.396 10.5046 155.396 11.5137V12.4805C155.396 13.138 155.423 13.584 155.475 13.8184C155.553 14.1895 155.735 14.4629 156.021 14.6387V15H152.711C152.62 14.681 152.555 14.4238 152.516 14.2285C152.438 13.8249 152.395 13.4115 152.389 12.9883L152.369 11.6504C152.356 10.7324 152.187 10.1204 151.861 9.81445C151.542 9.50846 150.94 9.35547 150.055 9.35547H146.949V15H144.01V0.605469H151.07Z" fill="#E3FF38"/>
</svg>
