<svg width="400" height="42" viewBox="0 0 400 42" fill="none" xmlns="http://www.w3.org/2000/svg">
<path d="M1.88477 2.29395V1.29395H0.884766V2.29395H1.88477ZM9.55469 2.29395H10.5547V1.29395H9.55469V2.29395ZM9.55469 32.4009H8.55469V33.4009H9.55469V32.4009ZM27.7334 32.4009H28.7334V31.4009H27.7334V32.4009ZM27.7334 39V40H28.7334V39H27.7334ZM1.88477 39H0.884766V40H1.88477V39ZM1.88477 3.29395H9.55469V1.29395H1.88477V3.29395ZM8.55469 2.29395V32.4009H10.5547V2.29395H8.55469ZM9.55469 33.4009H27.7334V31.4009H9.55469V33.4009ZM26.7334 32.4009V39H28.7334V32.4009H26.7334ZM27.7334 38H1.88477V40H27.7334V38ZM2.88477 39V2.29395H0.884766V39H2.88477ZM56.5205 30.1597L55.7396 29.535L55.7368 29.5385L56.5205 30.1597ZM56.5205 11.0596L55.7346 11.6779L55.7396 11.6843L56.5205 11.0596ZM61.3267 35.7378L60.6394 35.0114L60.624 35.026L60.6092 35.0412L61.3267 35.7378ZM37.271 35.7378L37.9885 35.0412L37.9729 35.0252L37.9567 35.0099L37.271 35.7378ZM37.271 5.45654L37.9425 6.19753L37.9662 6.17607L37.9885 6.15314L37.271 5.45654ZM61.3267 5.45654L60.6092 6.15314L60.6307 6.17527L60.6535 6.19603L61.3267 5.45654ZM49.2988 34.5215C52.6203 34.5215 55.3249 33.278 57.3042 30.7808L55.7368 29.5385C54.1634 31.5237 52.0535 32.5215 49.2988 32.5215V34.5215ZM57.3014 30.7844C59.2869 28.3024 60.21 24.8607 60.21 20.5972H58.21C58.21 24.6012 57.34 27.5345 55.7396 29.535L57.3014 30.7844ZM60.21 20.5972C60.21 16.3491 59.2864 12.9162 57.3014 10.4349L55.7396 11.6843C57.3405 13.6854 58.21 16.6109 58.21 20.5972H60.21ZM57.3064 10.4412C55.3282 7.92684 52.6231 6.67285 49.2988 6.67285V8.67285C52.0507 8.67285 54.1601 9.67667 55.7346 11.6779L57.3064 10.4412ZM49.2988 6.67285C45.9776 6.67285 43.2604 7.91569 41.2493 10.4065L42.8054 11.6629C44.4135 9.67122 46.5439 8.67285 49.2988 8.67285V6.67285ZM41.2493 10.4065C39.2451 12.8887 38.313 16.3318 38.313 20.5972H40.313C40.313 16.595 41.1904 13.6631 42.8054 11.6629L41.2493 10.4065ZM38.313 20.5972C38.313 24.8625 39.2451 28.3057 41.2493 30.7879L42.8054 29.5315C41.1904 27.5313 40.313 24.5994 40.313 20.5972H38.313ZM41.2493 30.7879C43.2604 33.2786 45.9776 34.5215 49.2988 34.5215V32.5215C46.5439 32.5215 44.4135 31.5231 42.8054 29.5315L41.2493 30.7879ZM65.8799 20.5972C65.8799 26.998 64.0877 31.7487 60.6394 35.0114L62.014 36.4642C65.97 32.721 67.8799 27.3779 67.8799 20.5972H65.8799ZM60.6092 35.0412C58.0795 37.6467 54.3642 39.021 49.2988 39.021V41.021C54.7256 41.021 59.0289 39.5399 62.0441 36.4344L60.6092 35.0412ZM49.2988 39.021C44.2334 39.021 40.5182 37.6467 37.9885 35.0412L36.5535 36.4344C39.5687 39.5399 43.872 41.021 49.2988 41.021V39.021ZM37.9567 35.0099C34.4926 31.7469 32.6929 26.9967 32.6929 20.5972H30.6929C30.6929 27.3792 32.6119 32.7229 36.5853 36.4657L37.9567 35.0099ZM32.6929 20.5972C32.6929 14.0553 34.4973 9.31974 37.9425 6.19753L36.5995 4.71556C32.6072 8.33358 30.6929 13.6917 30.6929 20.5972H32.6929ZM37.9885 6.15314C40.5182 3.54768 44.2334 2.17334 49.2988 2.17334V0.17334C43.872 0.17334 39.5687 1.65447 36.5535 4.75994L37.9885 6.15314ZM49.2988 2.17334C54.3642 2.17334 58.0795 3.54768 60.6092 6.15314L62.0441 4.75994C59.0289 1.65447 54.7256 0.17334 49.2988 0.17334V2.17334ZM60.6535 6.19603C64.0829 9.31791 65.8799 14.054 65.8799 20.5972H67.8799C67.8799 13.693 65.9747 8.33541 61.9998 4.71705L60.6535 6.19603ZM94.2476 2.29395V1.29395H93.4954L93.2868 2.01662L94.2476 2.29395ZM102.216 2.29395L103.163 2.61691L103.614 1.29395H102.216V2.29395ZM89.6904 39V40H90.4058L90.6368 39.323L89.6904 39ZM82.4438 39L81.4965 39.3201L81.7262 40H82.4438V39ZM70.0425 2.29395V1.29395H68.6491L69.0951 2.61403L70.0425 2.29395ZM78.2354 2.29395L79.1968 2.019L78.9895 1.29395H78.2354V2.29395ZM86.2041 30.1597L85.2426 30.4346L86.1996 33.781L87.1649 30.437L86.2041 30.1597ZM94.2476 3.29395H102.216V1.29395H94.2476V3.29395ZM101.27 1.97098L88.744 38.677L90.6368 39.323L103.163 2.61691L101.27 1.97098ZM89.6904 38H82.4438V40H89.6904V38ZM83.3912 38.6799L70.9899 1.97386L69.0951 2.61403L81.4965 39.3201L83.3912 38.6799ZM70.0425 3.29395H78.2354V1.29395H70.0425V3.29395ZM77.2739 2.56889L85.2426 30.4346L87.1656 29.8847L79.1968 2.019L77.2739 2.56889ZM87.1649 30.437L95.2083 2.57127L93.2868 2.01662L85.2433 29.8823L87.1649 30.437ZM133.917 8.79346V9.79346H134.917V8.79346H133.917ZM114.493 8.79346V7.79346H113.493V8.79346H114.493ZM114.493 16.5879H113.493V17.5879H114.493V16.5879ZM132.323 16.5879H133.323V15.5879H132.323V16.5879ZM132.323 22.9629V23.9629H133.323V22.9629H132.323ZM114.493 22.9629V21.9629H113.493V22.9629H114.493ZM114.493 32.4009H113.493V33.4009H114.493V32.4009ZM134.813 32.4009H135.813V31.4009H134.813V32.4009ZM134.813 39V40H135.813V39H134.813ZM106.998 39H105.998V40H106.998V39ZM106.998 2.29395V1.29395H105.998V2.29395H106.998ZM133.917 2.29395H134.917V1.29395H133.917V2.29395ZM133.917 7.79346H114.493V9.79346H133.917V7.79346ZM113.493 8.79346V16.5879H115.493V8.79346H113.493ZM114.493 17.5879H132.323V15.5879H114.493V17.5879ZM131.323 16.5879V22.9629H133.323V16.5879H131.323ZM132.323 21.9629H114.493V23.9629H132.323V21.9629ZM113.493 22.9629V32.4009H115.493V22.9629H113.493ZM114.493 33.4009H134.813V31.4009H114.493V33.4009ZM133.813 32.4009V39H135.813V32.4009H133.813ZM134.813 38H106.998V40H134.813V38ZM107.998 39V2.29395H105.998V39H107.998ZM106.998 3.29395H133.917V1.29395H106.998V3.29395ZM132.917 2.29395V8.79346H134.917V2.29395H132.917ZM160.538 27.6694L161.528 27.5321L161.409 26.6694H160.538V27.6694ZM161.907 31.4297L161.134 32.0638L161.136 32.0657L161.907 31.4297ZM172.715 33.0981L173.048 34.0411L173.051 34.0401L172.715 33.0981ZM174.333 26.0259L174.864 25.1778L174.854 25.1719L174.333 26.0259ZM169.328 24.3076L169.109 25.2834L169.114 25.2845L169.328 24.3076ZM165.443 23.436L165.223 24.4114L165.224 24.4118L165.443 23.436ZM157.524 20.6221L158.094 19.8002L158.089 19.7969L157.524 20.6221ZM177.82 4.31104L177.217 5.10871L177.222 5.11278L177.82 4.31104ZM182.128 13.2261V14.2261H183.163L183.127 13.1921L182.128 13.2261ZM174.757 13.2261L173.759 13.2861L173.815 14.2261H174.757V13.2261ZM171.868 8.51953L172.328 7.63177L172.325 7.6301L171.868 8.51953ZM162.654 15.0688L163.155 14.203L163.148 14.1991L163.141 14.1953L162.654 15.0688ZM167.436 16.5879L167.669 15.6155L167.667 15.6151L167.436 16.5879ZM173.761 18.1069L173.527 19.0793L173.528 19.0794L173.761 18.1069ZM180.036 20.7715L179.417 21.5568L179.417 21.557L180.036 20.7715ZM179.463 36.6343L180.117 37.3911L180.117 37.3908L179.463 36.6343ZM157.325 36.6841L156.701 37.465L156.703 37.4673L157.325 36.6841ZM153.216 27.6694V26.6694H152.216V27.6694H153.216ZM159.547 27.8067C159.791 29.5699 160.287 31.0314 161.134 32.0638L162.68 30.7956C162.166 30.1678 161.749 29.1225 161.528 27.5321L159.547 27.8067ZM161.136 32.0657C162.655 33.9088 165.151 34.6958 168.307 34.6958V32.6958C165.421 32.6958 163.65 31.972 162.679 30.7937L161.136 32.0657ZM168.307 34.6958C170.178 34.6958 171.772 34.4914 173.048 34.0411L172.382 32.1552C171.4 32.5018 170.055 32.6958 168.307 32.6958V34.6958ZM173.051 34.0401C174.255 33.6108 175.241 32.9669 175.922 32.0631C176.61 31.152 176.927 30.0571 176.927 28.8398H174.927C174.927 29.6978 174.709 30.3502 174.326 30.8586C173.937 31.3741 173.317 31.8219 172.379 32.1562L173.051 34.0401ZM176.927 28.8398C176.927 27.2692 176.206 26.0172 174.863 25.1779L173.803 26.8739C174.586 27.3627 174.927 27.9867 174.927 28.8398H176.927ZM174.854 25.1719C173.647 24.4365 171.848 23.8356 169.542 23.3308L169.114 25.2845C171.358 25.7757 172.895 26.3203 173.813 26.8798L174.854 25.1719ZM169.547 23.3319L165.662 22.4603L165.224 24.4118L169.109 25.2834L169.547 23.3319ZM165.664 22.4607C161.856 21.5998 159.384 20.6941 158.094 19.8002L156.955 21.4439C158.587 22.5755 161.394 23.5457 165.223 24.4114L165.664 22.4607ZM158.089 19.7969C155.945 18.3292 154.814 16.0268 154.814 12.6782H152.814C152.814 16.5347 154.156 19.5283 156.96 21.4472L158.089 19.7969ZM154.814 12.6782C154.814 9.66725 155.895 7.20669 158.073 5.22506L156.727 3.74564C154.124 6.11362 152.814 9.11497 152.814 12.6782H154.814ZM158.073 5.22506C160.213 3.27795 163.444 2.22314 167.934 2.22314V0.223145C163.16 0.223145 159.368 1.34314 156.727 3.74564L158.073 5.22506ZM167.934 2.22314C171.614 2.22314 174.69 3.19862 177.217 5.10869L178.423 3.51338C175.504 1.30627 171.989 0.223145 167.934 0.223145V2.22314ZM177.222 5.11278C179.681 6.94586 181.004 9.61355 181.129 13.2601L183.127 13.1921C182.986 9.03586 181.437 5.76019 178.417 3.50929L177.222 5.11278ZM182.128 12.2261H174.757V14.2261H182.128V12.2261ZM175.755 13.166C175.604 10.647 174.468 8.74127 172.328 7.63178L171.408 9.40729C172.854 10.1572 173.645 11.3891 173.759 13.2861L175.755 13.166ZM172.325 7.6301C170.95 6.92362 169.297 6.59814 167.411 6.59814V8.59814C169.077 8.59814 170.395 8.88692 171.411 9.40896L172.325 7.6301ZM167.411 6.59814C165.31 6.59814 163.516 7.02063 162.119 7.96501L163.239 9.6219C164.2 8.97254 165.56 8.59814 167.411 8.59814V6.59814ZM162.119 7.96501C160.664 8.94864 159.911 10.372 159.911 12.1304H161.911C161.911 11.0333 162.337 10.232 163.239 9.6219L162.119 7.96501ZM159.911 12.1304C159.911 12.938 160.092 13.6925 160.487 14.3588C160.882 15.0244 161.458 15.5473 162.168 15.9424L163.141 14.1953C162.688 13.943 162.393 13.6523 162.207 13.3384C162.021 13.0253 161.911 12.6342 161.911 12.1304H159.911ZM162.154 15.9347C163.048 16.4511 164.785 16.9848 167.204 17.5607L167.667 15.6151C165.205 15.0289 163.755 14.5499 163.155 14.203L162.154 15.9347ZM167.202 17.5602L173.527 19.0793L173.994 17.1346L167.669 15.6155L167.202 17.5602ZM173.528 19.0794C176.233 19.7274 178.167 20.5714 179.417 21.5568L180.655 19.9861C179.083 18.747 176.833 17.8146 173.994 17.1344L173.528 19.0794ZM179.417 21.557C181.325 23.0601 182.323 25.2437 182.323 28.2671H184.323C184.323 24.7494 183.13 21.936 180.655 19.986L179.417 21.557ZM182.323 28.2671C182.323 31.3254 181.167 33.84 178.809 35.8778L180.117 37.3908C182.907 34.9793 184.323 31.9158 184.323 28.2671H182.323ZM178.81 35.8775C176.494 37.8773 173.14 38.9463 168.606 38.9463V40.9463C173.435 40.9463 177.319 39.8073 180.117 37.3911L178.81 35.8775ZM168.606 38.9463C163.968 38.9463 160.454 37.8916 157.947 35.9009L156.703 37.4673C159.675 39.8262 163.681 40.9463 168.606 40.9463V38.9463ZM157.95 35.9032C155.471 33.92 154.216 31.2148 154.216 27.6694H152.216C152.216 31.7608 153.701 35.0654 156.701 37.465L157.95 35.9032ZM153.216 28.6694H160.538V26.6694H153.216V28.6694ZM188.876 2.29395V1.29395H187.876V2.29395H188.876ZM196.92 2.29395L197.789 1.79844L197.501 1.29395H196.92V2.29395ZM211.538 27.9185L210.669 28.414L212.538 31.6896V27.9185H211.538ZM211.538 2.29395V1.29395H210.538V2.29395H211.538ZM218.685 2.29395H219.685V1.29395H218.685V2.29395ZM218.685 39V40H219.685V39H218.685ZM211.015 39L210.148 39.4985L210.436 40H211.015V39ZM196.023 12.9272L196.89 12.4288L195.023 9.18185V12.9272H196.023ZM196.023 39V40H197.023V39H196.023ZM188.876 39H187.876V40H188.876V39ZM188.876 3.29395H196.92V1.29395H188.876V3.29395ZM196.051 2.78945L210.669 28.414L212.406 27.423L197.789 1.79844L196.051 2.78945ZM212.538 27.9185V2.29395H210.538V27.9185H212.538ZM211.538 3.29395H218.685V1.29395H211.538V3.29395ZM217.685 2.29395V39H219.685V2.29395H217.685ZM218.685 38H211.015V40H218.685V38ZM211.882 38.5015L196.89 12.4288L195.157 13.4257L210.148 39.4985L211.882 38.5015ZM195.023 12.9272V39H197.023V12.9272H195.023ZM196.023 38H188.876V40H196.023V38ZM189.876 39V2.29395H187.876V39H189.876ZM253 8.79346V9.79346H254V8.79346H253ZM233.576 8.79346V7.79346H232.576V8.79346H233.576ZM233.576 16.5879H232.576V17.5879H233.576V16.5879ZM251.406 16.5879H252.406V15.5879H251.406V16.5879ZM251.406 22.9629V23.9629H252.406V22.9629H251.406ZM233.576 22.9629V21.9629H232.576V22.9629H233.576ZM233.576 32.4009H232.576V33.4009H233.576V32.4009ZM253.896 32.4009H254.896V31.4009H253.896V32.4009ZM253.896 39V40H254.896V39H253.896ZM226.081 39H225.081V40H226.081V39ZM226.081 2.29395V1.29395H225.081V2.29395H226.081ZM253 2.29395H254V1.29395H253V2.29395ZM253 7.79346H233.576V9.79346H253V7.79346ZM232.576 8.79346V16.5879H234.576V8.79346H232.576ZM233.576 17.5879H251.406V15.5879H233.576V17.5879ZM250.406 16.5879V22.9629H252.406V16.5879H250.406ZM251.406 21.9629H233.576V23.9629H251.406V21.9629ZM232.576 22.9629V32.4009H234.576V22.9629H232.576ZM233.576 33.4009H253.896V31.4009H233.576V33.4009ZM252.896 32.4009V39H254.896V32.4009H252.896ZM253.896 38H226.081V40H253.896V38ZM227.081 39V2.29395H225.081V39H227.081ZM226.081 3.29395H253V1.29395H226.081V3.29395ZM252 2.29395V8.79346H254V2.29395H252ZM269.909 25.1294L268.958 24.8181L268.529 26.1294H269.909V25.1294ZM279.222 25.1294V26.1294H280.589L280.175 24.827L279.222 25.1294ZM274.64 10.686L275.593 10.3836L274.655 7.42717L273.69 10.3747L274.64 10.686ZM270.382 2.29395V1.29395H269.677L269.44 1.95785L270.382 2.29395ZM279.048 2.29395L279.99 1.96012L279.755 1.29395H279.048V2.29395ZM292.047 39V40H293.462L292.99 38.6662L292.047 39ZM283.729 39L282.775 39.2992L282.995 40H283.729V39ZM281.364 31.4546L282.318 31.1554L282.098 30.4546H281.364V31.4546ZM267.842 31.4546V30.4546H267.123L266.894 31.1355L267.842 31.4546ZM265.302 39V40H266.02L266.25 39.319L265.302 39ZM257.283 39L256.341 38.6639L255.865 40H257.283V39ZM269.909 26.1294H279.222V24.1294H269.909V26.1294ZM280.175 24.827L275.593 10.3836L273.687 10.9884L278.269 25.4318L280.175 24.827ZM273.69 10.3747L268.958 24.8181L270.859 25.4407L275.59 10.9973L273.69 10.3747ZM270.382 3.29395H279.048V1.29395H270.382V3.29395ZM278.105 2.62777L291.104 39.3338L292.99 38.6662L279.99 1.96012L278.105 2.62777ZM292.047 38H283.729V40H292.047V38ZM284.684 38.7008L282.318 31.1554L280.41 31.7538L282.775 39.2992L284.684 38.7008ZM281.364 30.4546H267.842V32.4546H281.364V30.4546ZM266.894 31.1355L264.354 38.681L266.25 39.319L268.79 31.7736L266.894 31.1355ZM265.302 38H257.283V40H265.302V38ZM258.225 39.3361L271.324 2.63004L269.44 1.95785L256.341 38.6639L258.225 39.3361ZM296.853 2.29395V1.29395H295.853V2.29395H296.853ZM304.398 2.29395H305.398V1.29395H304.398V2.29395ZM304.398 17.4097H303.398V19.9387L305.128 18.0936L304.398 17.4097ZM318.568 2.29395V1.29395H318.135L317.838 1.61004L318.568 2.29395ZM328.479 2.29395L329.188 2.9993L330.885 1.29395H328.479V2.29395ZM313.438 17.4097L312.729 16.7043L312.126 17.3106L312.631 18.0005L313.438 17.4097ZM329.251 39V40H331.223L330.058 38.4091L329.251 39ZM319.39 39L318.573 39.577L318.872 40H319.39V39ZM308.059 22.9629L308.876 22.3859L308.182 21.4034L307.343 22.2653L308.059 22.9629ZM304.398 26.7231L303.682 26.0256L303.398 26.3168V26.7231H304.398ZM304.398 39V40H305.398V39H304.398ZM296.853 39H295.853V40H296.853V39ZM296.853 3.29395H304.398V1.29395H296.853V3.29395ZM303.398 2.29395V17.4097H305.398V2.29395H303.398ZM305.128 18.0936L319.297 2.97785L317.838 1.61004L303.669 16.7258L305.128 18.0936ZM318.568 3.29395H328.479V1.29395H318.568V3.29395ZM327.77 1.58859L312.729 16.7043L314.147 18.115L329.188 2.9993L327.77 1.58859ZM312.631 18.0005L328.444 39.5909L330.058 38.4091L314.245 16.8188L312.631 18.0005ZM329.251 38H319.39V40H329.251V38ZM320.206 38.423L308.876 22.3859L307.242 23.5399L318.573 39.577L320.206 38.423ZM307.343 22.2653L303.682 26.0256L305.115 27.4207L308.776 23.6604L307.343 22.2653ZM303.398 26.7231V39H305.398V26.7231H303.398ZM304.398 38H296.853V40H304.398V38ZM297.853 39V2.29395H295.853V39H297.853ZM360.728 8.79346V9.79346H361.728V8.79346H360.728ZM341.304 8.79346V7.79346H340.304V8.79346H341.304ZM341.304 16.5879H340.304V17.5879H341.304V16.5879ZM359.134 16.5879H360.134V15.5879H359.134V16.5879ZM359.134 22.9629V23.9629H360.134V22.9629H359.134ZM341.304 22.9629V21.9629H340.304V22.9629H341.304ZM341.304 32.4009H340.304V33.4009H341.304V32.4009ZM361.624 32.4009H362.624V31.4009H361.624V32.4009ZM361.624 39V40H362.624V39H361.624ZM333.808 39H332.808V40H333.808V39ZM333.808 2.29395V1.29395H332.808V2.29395H333.808ZM360.728 2.29395H361.728V1.29395H360.728V2.29395ZM360.728 7.79346H341.304V9.79346H360.728V7.79346ZM340.304 8.79346V16.5879H342.304V8.79346H340.304ZM341.304 17.5879H359.134V15.5879H341.304V17.5879ZM358.134 16.5879V22.9629H360.134V16.5879H358.134ZM359.134 21.9629H341.304V23.9629H359.134V21.9629ZM340.304 22.9629V32.4009H342.304V22.9629H340.304ZM341.304 33.4009H361.624V31.4009H341.304V33.4009ZM360.624 32.4009V39H362.624V32.4009H360.624ZM361.624 38H333.808V40H361.624V38ZM334.808 39V2.29395H332.808V39H334.808ZM333.808 3.29395H360.728V1.29395H333.808V3.29395ZM359.728 2.29395V8.79346H361.728V2.29395H359.728ZM375.271 8.66895V7.66895H374.271V8.66895H375.271ZM375.271 18.5303H374.271V19.5303H375.271V18.5303ZM387.846 17.9326L387.431 17.0229L387.427 17.0247L387.846 17.9326ZM387.921 9.31641L387.46 10.2036L387.462 10.2048L387.921 9.31641ZM385.779 2.29395L385.799 1.29413L385.789 1.29395H385.779V2.29395ZM391.706 3.24023L391.318 4.16167L391.321 4.16331L391.706 3.24023ZM395.242 5.80518L394.481 6.45412L394.483 6.45597L395.242 5.80518ZM396.512 17.9077L397.398 18.3724L397.4 18.3688L396.512 17.9077ZM392.154 21.4688L391.829 20.5232L389.293 21.3963L391.781 22.3966L392.154 21.4688ZM395.74 24.3823L394.865 24.866L394.869 24.8729L394.873 24.8797L395.74 24.3823ZM397.01 35.9868L397.989 35.7808L397.986 35.7699L397.01 35.9868ZM398.405 38.0786H399.405V37.519L398.928 37.2263L398.405 38.0786ZM398.405 39V40H399.405V39H398.405ZM389.963 39L389.001 39.2747L389.209 40H389.963V39ZM389.465 37.0327L388.483 37.2227L388.484 37.2288L389.465 37.0327ZM389.141 33.8701L388.141 33.8847L388.141 33.8855L389.141 33.8701ZM389.091 30.4585L388.091 30.4727V30.4731L389.091 30.4585ZM387.796 25.7769L387.104 26.4986L387.111 26.5055L387.796 25.7769ZM375.271 24.6064V23.6064H374.271V24.6064H375.271ZM375.271 39V40H376.271V39H375.271ZM367.775 39H366.775V40H367.775V39ZM367.775 2.29395V1.29395H366.775V2.29395H367.775ZM374.271 8.66895V18.5303H376.271V8.66895H374.271ZM375.271 19.5303H383.961V17.5303H375.271V19.5303ZM383.961 19.5303C385.733 19.5303 387.203 19.3307 388.265 18.8406L387.427 17.0247C386.763 17.3314 385.643 17.5303 383.961 17.5303V19.5303ZM388.261 18.8423C389.206 18.411 389.947 17.7497 390.439 16.861C390.925 15.985 391.137 14.9473 391.137 13.7988H389.137C389.137 14.709 388.968 15.3895 388.69 15.8915C388.419 16.3806 388.014 16.7569 387.431 17.0229L388.261 18.8423ZM391.137 13.7988C391.137 11.3468 390.302 9.42167 388.38 8.42805L387.462 10.2048C388.494 10.7385 389.137 11.8016 389.137 13.7988H391.137ZM388.382 8.42919C387.338 7.88635 385.9 7.66895 384.186 7.66895V9.66895C385.792 9.66895 386.843 9.88318 387.46 10.2036L388.382 8.42919ZM384.186 7.66895H375.271V9.66895H384.186V7.66895ZM385.76 3.29376C388.284 3.34262 390.112 3.65321 391.318 4.16166L392.095 2.31881C390.544 1.66515 388.421 1.34488 385.799 1.29413L385.76 3.29376ZM391.321 4.16331C392.573 4.685 393.622 5.44715 394.481 6.45412L396.003 5.15623C394.936 3.90539 393.628 2.95758 392.091 2.31716L391.321 4.16331ZM394.483 6.45597C395.211 7.30524 395.786 8.24343 396.21 9.27382L398.059 8.51232C397.554 7.28489 396.867 6.16448 396.001 5.15438L394.483 6.45597ZM396.21 9.27382C396.617 10.262 396.832 11.4157 396.832 12.7529H398.832C398.832 11.2015 398.582 9.78197 398.059 8.51232L396.21 9.27382ZM396.832 12.7529C396.832 14.3208 396.438 15.8819 395.625 17.4466L397.4 18.3688C398.346 16.5468 398.832 14.6714 398.832 12.7529H396.832ZM395.627 17.4431C394.881 18.8639 393.647 19.8972 391.829 20.5232L392.48 22.4143C394.712 21.6458 396.384 20.3051 397.398 18.3724L395.627 17.4431ZM391.781 22.3966C393.319 23.0147 394.306 23.8544 394.865 24.866L396.615 23.8986C395.78 22.3868 394.376 21.2841 392.527 20.5409L391.781 22.3966ZM394.873 24.8797C395.455 25.896 395.811 27.5924 395.811 30.1099H397.811C397.811 27.4809 397.453 25.3589 396.608 23.8849L394.873 24.8797ZM395.811 30.1099V32.5752H397.811V30.1099H395.811ZM395.811 32.5752C395.811 34.2406 395.874 35.4836 396.034 36.2037L397.986 35.7699C397.881 35.2947 397.811 34.2633 397.811 32.5752H395.811ZM396.032 36.1928C396.28 37.37 396.886 38.3199 397.882 38.9309L398.928 37.2263C398.463 36.9409 398.139 36.4962 397.989 35.7808L396.032 36.1928ZM397.405 38.0786V39H399.405V38.0786H397.405ZM398.405 38H389.963V40H398.405V38ZM390.924 38.7253C390.695 37.9231 390.537 37.2966 390.445 36.8366L388.484 37.2288C388.591 37.7649 388.766 38.4499 389.001 39.2747L390.924 38.7253ZM390.447 36.8427C390.259 35.8726 390.157 34.8769 390.141 33.8547L388.141 33.8855C388.159 35.0215 388.272 36.1342 388.483 37.2227L390.447 36.8427ZM390.141 33.8555L390.091 30.4439L388.091 30.4731L388.141 33.8847L390.141 33.8555ZM390.091 30.4443C390.074 29.2229 389.953 28.156 389.706 27.2659C389.461 26.3796 389.075 25.6061 388.481 25.0482L387.111 26.5055C387.348 26.7279 387.592 27.1248 387.779 27.7991C387.964 28.4695 388.076 29.3532 388.091 30.4727L390.091 30.4443ZM388.489 25.0552C387.374 23.9859 385.482 23.6064 383.189 23.6064V25.6064C385.412 25.6064 386.592 26.0073 387.104 26.4985L388.489 25.0552ZM383.189 23.6064H375.271V25.6064H383.189V23.6064ZM374.271 24.6064V39H376.271V24.6064H374.271ZM375.271 38H367.775V40H375.271V38ZM368.775 39V2.29395H366.775V39H368.775ZM367.775 3.29395H385.779V1.29395H367.775V3.29395Z" fill="#FF78D9"/>
</svg>
