<svg width="297" height="30" viewBox="0 0 297 30" fill="none" xmlns="http://www.w3.org/2000/svg">
<path d="M0.894531 1.65039H6.60938V24.083H20.1543V29H0.894531V1.65039ZM36.2227 24.918C38.4863 24.918 40.2799 24.083 41.6035 22.4131C42.9395 20.7432 43.6074 18.3682 43.6074 15.2881C43.6074 12.2204 42.9395 9.85156 41.6035 8.18164C40.2799 6.49935 38.4863 5.6582 36.2227 5.6582C33.959 5.6582 32.153 6.49316 30.8047 8.16309C29.4564 9.83301 28.7822 12.208 28.7822 15.2881C28.7822 18.3682 29.4564 20.7432 30.8047 22.4131C32.153 24.083 33.959 24.918 36.2227 24.918ZM49.3223 15.2881C49.3223 20.1989 47.943 23.9593 45.1846 26.5693C43.1188 28.6969 40.1315 29.7607 36.2227 29.7607C32.3138 29.7607 29.3265 28.6969 27.2607 26.5693C24.4899 23.9593 23.1045 20.1989 23.1045 15.2881C23.1045 10.2783 24.4899 6.5179 27.2607 4.00684C29.3265 1.87923 32.3138 0.81543 36.2227 0.81543C40.1315 0.81543 43.1188 1.87923 45.1846 4.00684C47.943 6.5179 49.3223 10.2783 49.3223 15.2881ZM69.7139 1.65039H75.6514L66.3184 29H60.9189L51.6787 1.65039H57.7832L63.7207 22.4131L69.7139 1.65039ZM99.2715 6.49316H84.7988V12.3008H98.084V17.0508H84.7988V24.083H99.9395V29H79.2139V1.65039H99.2715V6.49316ZM119.106 20.5576C119.28 21.807 119.62 22.7409 120.127 23.3594C121.055 24.485 122.644 25.0479 124.896 25.0479C126.244 25.0479 127.339 24.8994 128.18 24.6025C129.775 24.0335 130.573 22.9759 130.573 21.4297C130.573 20.5267 130.177 19.8278 129.386 19.333C128.594 18.8506 127.351 18.4238 125.656 18.0527L122.762 17.4033C119.917 16.7601 117.95 16.0612 116.861 15.3066C115.018 14.0449 114.097 12.0719 114.097 9.3877C114.097 6.93848 114.987 4.90365 116.769 3.2832C118.55 1.66276 121.166 0.852539 124.617 0.852539C127.499 0.852539 129.955 1.61947 131.983 3.15332C134.024 4.6748 135.094 6.889 135.193 9.7959H129.701C129.602 8.15072 128.885 6.98177 127.549 6.28906C126.658 5.83138 125.551 5.60254 124.228 5.60254C122.756 5.60254 121.58 5.89941 120.702 6.49316C119.824 7.08691 119.385 7.91569 119.385 8.97949C119.385 9.95671 119.818 10.6865 120.684 11.1689C121.24 11.4906 122.428 11.8678 124.246 12.3008L128.959 13.4326C131.025 13.9274 132.583 14.5892 133.635 15.418C135.268 16.7044 136.084 18.5661 136.084 21.0029C136.084 23.5016 135.125 25.5798 133.208 27.2373C131.303 28.8825 128.606 29.7051 125.118 29.7051C121.556 29.7051 118.754 28.8949 116.713 27.2744C114.672 25.6416 113.651 23.4027 113.651 20.5576H119.106ZM140.222 1.65039H146.215L157.106 20.7432V1.65039H162.432V29H156.717L145.547 9.57324V29H140.222V1.65039ZM188 6.49316H173.527V12.3008H186.812V17.0508H173.527V24.083H188.668V29H167.942V1.65039H188V6.49316ZM200.599 18.665H207.538L204.124 7.90332L200.599 18.665ZM200.951 1.65039H207.408L217.094 29H210.896L209.134 23.3779H199.059L197.166 29H191.191L200.951 1.65039ZM220.675 1.65039H226.297V12.9131L236.854 1.65039H244.239L233.032 12.9131L244.814 29H237.467L229.024 17.0508L226.297 19.8525V29H220.675V1.65039ZM268.268 6.49316H253.795V12.3008H267.08V17.0508H253.795V24.083H268.936V29H248.21V1.65039H268.268V6.49316ZM279.104 6.40039V13.748H285.579C286.866 13.748 287.83 13.5996 288.474 13.3027C289.612 12.7832 290.181 11.7565 290.181 10.2227C290.181 8.5651 289.63 7.45182 288.529 6.88281C287.911 6.5612 286.983 6.40039 285.746 6.40039H279.104ZM286.934 1.65039C288.851 1.6875 290.323 1.92253 291.35 2.35547C292.389 2.78841 293.267 3.42546 293.984 4.2666C294.578 4.95931 295.048 5.72624 295.395 6.56738C295.741 7.40853 295.914 8.36719 295.914 9.44336C295.914 10.7422 295.586 12.0225 294.931 13.2842C294.275 14.5335 293.193 15.418 291.684 15.9375C292.945 16.4447 293.836 17.1683 294.355 18.1084C294.887 19.0361 295.153 20.4587 295.153 22.376V24.2129C295.153 25.4622 295.203 26.3096 295.302 26.7549C295.45 27.46 295.797 27.9795 296.341 28.3135V29H290.051C289.878 28.3939 289.754 27.9053 289.68 27.5342C289.531 26.7673 289.451 25.9818 289.438 25.1777L289.401 22.6357C289.377 20.8916 289.055 19.7288 288.437 19.1475C287.83 18.5661 286.686 18.2754 285.004 18.2754H279.104V29H273.519V1.65039H286.934Z" fill="white"/>
</svg>
